<svg width="260" height="100" viewBox="0 0 260 100" fill="none" xmlns="http://www.w3.org/2000/svg">
<g filter="url(#filter0_i_46_1216)">
<path d="M79 21H57V48H79V21Z" fill="#ECECEC"/>
</g>
<path d="M78.5 21.5H57.5V47.5H78.5V21.5Z" stroke="#DFEDFF" stroke-miterlimit="10"/>
<g filter="url(#filter1_i_46_1216)">
<path d="M180 18H158V45H180V18Z" fill="#ECECEC"/>
</g>
<path d="M179.5 18.5H158.5V44.5H179.5V18.5Z" stroke="#DFEDFF" stroke-miterlimit="10"/>
<path d="M184 71H8V73H184V71Z" fill="#BCC6DB"/>
<g filter="url(#filter2_i_46_1216)">
<path d="M17 43C18.3845 43 19.7378 43.4105 20.889 44.1797C22.0401 44.9489 22.9374 46.0421 23.4672 47.3212C23.997 48.6003 24.1356 50.0078 23.8655 51.3656C23.5954 52.7235 22.9287 53.9708 21.9498 54.9497C20.9708 55.9287 19.7235 56.5954 18.3656 56.8655C17.0078 57.1356 15.6003 56.997 14.3212 56.4672C13.0421 55.9373 11.9489 55.0401 11.1797 53.889C10.4105 52.7378 10 51.3845 10 50C10 48.1435 10.7375 46.363 12.0502 45.0502C13.363 43.7375 15.1435 43 17 43Z" fill="#C8D0DD"/>
</g>
<g filter="url(#filter3_i_46_1216)">
<path d="M17 45C17.9889 45 18.9556 45.2932 19.7779 45.8426C20.6001 46.3921 21.241 47.1729 21.6194 48.0866C21.9978 49.0002 22.0968 50.0055 21.9039 50.9754C21.711 51.9453 21.2348 52.8363 20.5355 53.5355C19.8363 54.2348 18.9453 54.711 17.9754 54.9039C17.0055 55.0969 16.0002 54.9978 15.0866 54.6194C14.1729 54.241 13.3921 53.6001 12.8426 52.7778C12.2932 51.9556 12 50.9889 12 50C12 48.6739 12.5268 47.4021 13.4645 46.4645C14.4022 45.5268 15.6739 45 17 45Z" fill="#6A779E"/>
</g>
<g filter="url(#filter4_d_46_1216)">
<path d="M20.817 50.4875C20.8375 50.3275 20.8529 50.165 20.8529 50C20.8529 49.835 20.8375 49.6725 20.817 49.5125L21.9038 48.685C22.0015 48.61 22.0297 48.475 21.9655 48.365L20.9377 46.6325C20.8735 46.525 20.7399 46.48 20.6242 46.525L19.3446 47.0275C19.08 46.83 18.7896 46.6625 18.4761 46.535L18.2834 45.21C18.2603 45.0925 18.155 45 18.0265 45H15.9709C15.8425 45 15.7371 45.0925 15.7166 45.21L15.5239 46.535C15.2104 46.6625 14.92 46.8275 14.6554 47.0275L13.3758 46.525C13.2602 46.4825 13.1265 46.525 13.0623 46.6325L12.0345 48.365C11.9703 48.4725 11.9985 48.6075 12.0962 48.685L13.1805 49.5125C13.1599 49.6725 13.1445 49.835 13.1445 50C13.1445 50.165 13.1599 50.3275 13.1805 50.4875L12.0962 51.315C11.9985 51.39 11.9703 51.525 12.0345 51.635L13.0623 53.3675C13.1265 53.475 13.2601 53.52 13.3758 53.475L14.6554 52.9725C14.92 53.17 15.2104 53.3375 15.5239 53.465L15.7166 54.79C15.7371 54.9075 15.8425 55 15.9709 55H18.0265C18.155 55 18.2603 54.9075 18.2809 54.79L18.4736 53.465C18.7871 53.3375 19.0774 53.1725 19.3421 52.9725L20.6217 53.475C20.7373 53.5175 20.8709 53.475 20.9351 53.3675L21.9629 51.635C22.0272 51.5275 21.9989 51.3925 21.9013 51.315L20.8169 50.4875L20.817 50.4875ZM16.9987 51.75C16.0043 51.75 15.2001 50.9675 15.2001 50C15.2001 49.0325 16.0043 48.25 16.9987 48.25C17.9931 48.25 18.7973 49.0325 18.7973 50C18.7973 50.9675 17.9931 51.75 16.9987 51.75L16.9987 51.75Z" fill="#ECECEC"/>
</g>
<g filter="url(#filter5_i_46_1216)">
<path d="M20 25H205V48H20V25Z" fill="#A9BAD0"/>
</g>
<path d="M20.5 25.5H204.5V47.5H20.5V25.5Z" stroke="#DFEDFF" stroke-miterlimit="10"/>
<g filter="url(#filter6_i_46_1216)">
<path d="M246 25H204V73H246V25Z" fill="#A9BAD0"/>
</g>
<path d="M245.5 25.5H204.5V72.5H245.5V25.5Z" stroke="#DFEDFF" stroke-miterlimit="10"/>
<path d="M13 59H11V71H13V59Z" fill="#6A779E"/>
<path d="M29.75 59H27.75V71H29.75V59Z" fill="#6A779E"/>
<path d="M46.5 59H44.5V71H46.5V59Z" fill="#6A779E"/>
<path d="M63.25 59H61.25V71H63.25V59Z" fill="#6A779E"/>
<path d="M80 59H78V71H80V59Z" fill="#6A779E"/>
<path d="M96.75 59H94.75V71H96.75V59Z" fill="#6A779E"/>
<path d="M113.5 59H111.5V71H113.5V59Z" fill="#6A779E"/>
<path d="M130.25 59H128.25V71H130.25V59Z" fill="#6A779E"/>
<path d="M147 59H145V71H147V59Z" fill="#6A779E"/>
<g filter="url(#filter7_d_46_1216)">
<path d="M163 48L163 60L5 60L5 48L163 48Z" fill="#ECECEC"/>
</g>
<g filter="url(#filter8_i_46_1216)">
<path d="M158 44H167V66H158V44Z" fill="#ECECEC"/>
</g>
<path d="M158.5 44.5H166.5V65.5H158.5V44.5Z" stroke="#DFEDFF" stroke-miterlimit="10"/>
<g filter="url(#filter9_i_46_1216)">
<path d="M205 44H163V73H205V44Z" fill="#ECECEC"/>
</g>
<path d="M204.5 44.5H163.5V72.5H204.5V44.5Z" stroke="#DFEDFF" stroke-miterlimit="10"/>
<defs>
<filter id="filter0_i_46_1216" x="57" y="21" width="22" height="27" filterUnits="userSpaceOnUse" color-interpolation-filters="sRGB">
<feFlood flood-opacity="0" result="BackgroundImageFix"/>
<feBlend mode="normal" in="SourceGraphic" in2="BackgroundImageFix" result="shape"/>
<feColorMatrix in="SourceAlpha" type="matrix" values="0 0 0 0 0 0 0 0 0 0 0 0 0 0 0 0 0 0 127 0" result="hardAlpha"/>
<feOffset/>
<feGaussianBlur stdDeviation="3"/>
<feComposite in2="hardAlpha" operator="arithmetic" k2="-1" k3="1"/>
<feColorMatrix type="matrix" values="0 0 0 0 0.0156863 0 0 0 0 0.270588 0 0 0 0 0.380392 0 0 0 1 0"/>
<feBlend mode="normal" in2="shape" result="effect1_innerShadow_46_1216"/>
</filter>
<filter id="filter1_i_46_1216" x="158" y="18" width="22" height="27" filterUnits="userSpaceOnUse" color-interpolation-filters="sRGB">
<feFlood flood-opacity="0" result="BackgroundImageFix"/>
<feBlend mode="normal" in="SourceGraphic" in2="BackgroundImageFix" result="shape"/>
<feColorMatrix in="SourceAlpha" type="matrix" values="0 0 0 0 0 0 0 0 0 0 0 0 0 0 0 0 0 0 127 0" result="hardAlpha"/>
<feOffset/>
<feGaussianBlur stdDeviation="3"/>
<feComposite in2="hardAlpha" operator="arithmetic" k2="-1" k3="1"/>
<feColorMatrix type="matrix" values="0 0 0 0 0.0156863 0 0 0 0 0.270588 0 0 0 0 0.380392 0 0 0 1 0"/>
<feBlend mode="normal" in2="shape" result="effect1_innerShadow_46_1216"/>
</filter>
<filter id="filter2_i_46_1216" x="10" y="43" width="14" height="14" filterUnits="userSpaceOnUse" color-interpolation-filters="sRGB">
<feFlood flood-opacity="0" result="BackgroundImageFix"/>
<feBlend mode="normal" in="SourceGraphic" in2="BackgroundImageFix" result="shape"/>
<feColorMatrix in="SourceAlpha" type="matrix" values="0 0 0 0 0 0 0 0 0 0 0 0 0 0 0 0 0 0 127 0" result="hardAlpha"/>
<feOffset/>
<feGaussianBlur stdDeviation="5"/>
<feComposite in2="hardAlpha" operator="arithmetic" k2="-1" k3="1"/>
<feColorMatrix type="matrix" values="0 0 0 0 0.576471 0 0 0 0 0.619608 0 0 0 0 0.741176 0 0 0 1 0"/>
<feBlend mode="normal" in2="shape" result="effect1_innerShadow_46_1216"/>
</filter>
<filter id="filter3_i_46_1216" x="12" y="45" width="10" height="10" filterUnits="userSpaceOnUse" color-interpolation-filters="sRGB">
<feFlood flood-opacity="0" result="BackgroundImageFix"/>
<feBlend mode="normal" in="SourceGraphic" in2="BackgroundImageFix" result="shape"/>
<feColorMatrix in="SourceAlpha" type="matrix" values="0 0 0 0 0 0 0 0 0 0 0 0 0 0 0 0 0 0 127 0" result="hardAlpha"/>
<feOffset/>
<feGaussianBlur stdDeviation="3"/>
<feComposite in2="hardAlpha" operator="arithmetic" k2="-1" k3="1"/>
<feColorMatrix type="matrix" values="0 0 0 0 0.0156863 0 0 0 0 0.270588 0 0 0 0 0.380392 0 0 0 0.55 0"/>
<feBlend mode="normal" in2="shape" result="effect1_innerShadow_46_1216"/>
</filter>
<filter id="filter4_d_46_1216" x="8" y="41" width="18" height="18" filterUnits="userSpaceOnUse" color-interpolation-filters="sRGB">
<feFlood flood-opacity="0" result="BackgroundImageFix"/>
<feColorMatrix in="SourceAlpha" type="matrix" values="0 0 0 0 0 0 0 0 0 0 0 0 0 0 0 0 0 0 127 0" result="hardAlpha"/>
<feOffset/>
<feGaussianBlur stdDeviation="2"/>
<feComposite in2="hardAlpha" operator="out"/>
<feColorMatrix type="matrix" values="0 0 0 0 0.0156863 0 0 0 0 0.270588 0 0 0 0 0.380392 0 0 0 0.55 0"/>
<feBlend mode="normal" in2="BackgroundImageFix" result="effect1_dropShadow_46_1216"/>
<feBlend mode="normal" in="SourceGraphic" in2="effect1_dropShadow_46_1216" result="shape"/>
</filter>
<filter id="filter5_i_46_1216" x="20" y="25" width="185" height="23" filterUnits="userSpaceOnUse" color-interpolation-filters="sRGB">
<feFlood flood-opacity="0" result="BackgroundImageFix"/>
<feBlend mode="normal" in="SourceGraphic" in2="BackgroundImageFix" result="shape"/>
<feColorMatrix in="SourceAlpha" type="matrix" values="0 0 0 0 0 0 0 0 0 0 0 0 0 0 0 0 0 0 127 0" result="hardAlpha"/>
<feOffset/>
<feGaussianBlur stdDeviation="3"/>
<feComposite in2="hardAlpha" operator="arithmetic" k2="-1" k3="1"/>
<feColorMatrix type="matrix" values="0 0 0 0 0.0156863 0 0 0 0 0.270588 0 0 0 0 0.380392 0 0 0 1 0"/>
<feBlend mode="normal" in2="shape" result="effect1_innerShadow_46_1216"/>
</filter>
<filter id="filter6_i_46_1216" x="204" y="25" width="42" height="48" filterUnits="userSpaceOnUse" color-interpolation-filters="sRGB">
<feFlood flood-opacity="0" result="BackgroundImageFix"/>
<feBlend mode="normal" in="SourceGraphic" in2="BackgroundImageFix" result="shape"/>
<feColorMatrix in="SourceAlpha" type="matrix" values="0 0 0 0 0 0 0 0 0 0 0 0 0 0 0 0 0 0 127 0" result="hardAlpha"/>
<feOffset/>
<feGaussianBlur stdDeviation="3"/>
<feComposite in2="hardAlpha" operator="arithmetic" k2="-1" k3="1"/>
<feColorMatrix type="matrix" values="0 0 0 0 0.0156863 0 0 0 0 0.270588 0 0 0 0 0.380392 0 0 0 1 0"/>
<feBlend mode="normal" in2="shape" result="effect1_innerShadow_46_1216"/>
</filter>
<filter id="filter7_d_46_1216" x="1" y="44" width="166" height="20" filterUnits="userSpaceOnUse" color-interpolation-filters="sRGB">
<feFlood flood-opacity="0" result="BackgroundImageFix"/>
<feColorMatrix in="SourceAlpha" type="matrix" values="0 0 0 0 0 0 0 0 0 0 0 0 0 0 0 0 0 0 127 0" result="hardAlpha"/>
<feOffset/>
<feGaussianBlur stdDeviation="2"/>
<feComposite in2="hardAlpha" operator="out"/>
<feColorMatrix type="matrix" values="0 0 0 0 0.0156863 0 0 0 0 0.270588 0 0 0 0 0.380392 0 0 0 0.55 0"/>
<feBlend mode="normal" in2="BackgroundImageFix" result="effect1_dropShadow_46_1216"/>
<feBlend mode="normal" in="SourceGraphic" in2="effect1_dropShadow_46_1216" result="shape"/>
</filter>
<filter id="filter8_i_46_1216" x="158" y="44" width="9" height="22" filterUnits="userSpaceOnUse" color-interpolation-filters="sRGB">
<feFlood flood-opacity="0" result="BackgroundImageFix"/>
<feBlend mode="normal" in="SourceGraphic" in2="BackgroundImageFix" result="shape"/>
<feColorMatrix in="SourceAlpha" type="matrix" values="0 0 0 0 0 0 0 0 0 0 0 0 0 0 0 0 0 0 127 0" result="hardAlpha"/>
<feOffset/>
<feGaussianBlur stdDeviation="3"/>
<feComposite in2="hardAlpha" operator="arithmetic" k2="-1" k3="1"/>
<feColorMatrix type="matrix" values="0 0 0 0 0.0156863 0 0 0 0 0.270588 0 0 0 0 0.380392 0 0 0 1 0"/>
<feBlend mode="normal" in2="shape" result="effect1_innerShadow_46_1216"/>
</filter>
<filter id="filter9_i_46_1216" x="163" y="44" width="42" height="29" filterUnits="userSpaceOnUse" color-interpolation-filters="sRGB">
<feFlood flood-opacity="0" result="BackgroundImageFix"/>
<feBlend mode="normal" in="SourceGraphic" in2="BackgroundImageFix" result="shape"/>
<feColorMatrix in="SourceAlpha" type="matrix" values="0 0 0 0 0 0 0 0 0 0 0 0 0 0 0 0 0 0 127 0" result="hardAlpha"/>
<feOffset/>
<feGaussianBlur stdDeviation="3"/>
<feComposite in2="hardAlpha" operator="arithmetic" k2="-1" k3="1"/>
<feColorMatrix type="matrix" values="0 0 0 0 0.0156863 0 0 0 0 0.270588 0 0 0 0 0.380392 0 0 0 1 0"/>
<feBlend mode="normal" in2="shape" result="effect1_innerShadow_46_1216"/>
</filter>
</defs>
</svg>
