<svg width="100" height="100" viewBox="0 0 100 100" fill="none" xmlns="http://www.w3.org/2000/svg">
<g clip-path="url(#clip0_14_2)">
<path fill-rule="evenodd" clip-rule="evenodd" d="M42.6824 76.0243L45.3983 82.5063L66.8814 76.4342L90.8117 66.4076L86.0073 54.9411L62.077 64.9677L42.6824 76.0243Z" fill="url(#paint0_linear_14_2)"/>
<path fill-rule="evenodd" clip-rule="evenodd" d="M82.1311 72.6504L91.7714 68.6112L92.2562 69.7681L82.6159 73.8073L82.1311 72.6504Z" fill="#BCC6DB"/>
<path fill-rule="evenodd" clip-rule="evenodd" d="M82.427 69.8068L89.753 66.7372L90.7224 69.0508L83.3964 72.1203L82.427 69.8068Z" fill="url(#paint1_linear_14_2)"/>
<path fill-rule="evenodd" clip-rule="evenodd" d="M64.7859 50.594L72.1119 47.5244L74.5352 53.3081L67.2092 56.3777L64.7859 50.594Z" fill="#9ABCCB" stroke="#231815" stroke-width="0.0400641" stroke-miterlimit="10"/>
<path fill-rule="evenodd" clip-rule="evenodd" d="M64.7859 50.594L72.1119 47.5244L74.5352 53.3081L67.2092 56.3777L64.7859 50.594Z" fill="#9ABCCB" stroke="#231815" stroke-width="0.0400641" stroke-miterlimit="10"/>
<path fill-rule="evenodd" clip-rule="evenodd" d="M64.7859 50.594L72.1119 47.5244L74.5352 53.3081L67.2092 56.3777L64.7859 50.594Z" fill="#9ABCCB" stroke="#231815" stroke-width="0.0400641" stroke-miterlimit="10"/>
<path fill-rule="evenodd" clip-rule="evenodd" d="M64.7859 50.594L72.1119 47.5244L74.5352 53.3081L67.2092 56.3777L64.7859 50.594Z" fill="#9ABCCB" stroke="#231815" stroke-width="0.0400641" stroke-miterlimit="10"/>
<path fill-rule="evenodd" clip-rule="evenodd" d="M64.7859 50.594L72.1119 47.5244L74.5352 53.3081L67.2092 56.3777L64.7859 50.594Z" fill="#9ABCCB" stroke="#231815" stroke-width="0.0400641" stroke-miterlimit="10"/>
<path fill-rule="evenodd" clip-rule="evenodd" d="M64.7859 50.594L72.1119 47.5244L74.5352 53.3081L67.2092 56.3777L64.7859 50.594Z" fill="url(#paint2_linear_14_2)"/>
<path fill-rule="evenodd" clip-rule="evenodd" d="M65.9626 56.6167L75.6022 52.5778L76.2485 54.1202L66.6089 58.1591L65.9626 56.6167Z" fill="#BCC6DB"/>
<path fill-rule="evenodd" clip-rule="evenodd" d="M67.6938 57.5343L75.0199 54.4648L76.9586 59.0918L69.6326 62.1614L67.6938 57.5343Z" fill="#9ABCCB" stroke="#231815" stroke-width="0.0400641" stroke-miterlimit="10"/>
<path fill-rule="evenodd" clip-rule="evenodd" d="M67.6938 57.5343L75.0199 54.4648L76.9586 59.0918L69.6326 62.1614L67.6938 57.5343Z" fill="url(#paint3_linear_14_2)"/>
<path fill-rule="evenodd" clip-rule="evenodd" d="M41.6863 74.9469C41.7623 74.915 41.8439 74.8984 41.9263 74.8981C42.0087 74.8977 42.0904 74.9135 42.1667 74.9448C42.243 74.976 42.3124 75.0219 42.3709 75.0799C42.4294 75.138 42.476 75.207 42.5078 75.283L45.7388 82.9944C45.7982 83.1469 45.7957 83.3166 45.7318 83.4672C45.6679 83.6179 45.5476 83.7376 45.3967 83.8009C45.2458 83.8641 45.0761 83.8659 44.9239 83.8058C44.7716 83.7457 44.6489 83.6285 44.5819 83.4792L41.3509 75.7678C41.2866 75.6144 41.2858 75.4418 41.3487 75.2879C41.4116 75.134 41.5331 75.0114 41.6863 74.9469Z" fill="#BCC6DB"/>
<path fill-rule="evenodd" clip-rule="evenodd" d="M31.1816 80.7084L41.5924 76.3464L44.5003 83.2866L34.0896 87.6486L31.1816 80.7084Z" fill="url(#paint4_linear_14_2)"/>
<path fill-rule="evenodd" clip-rule="evenodd" d="M61.9387 65.1018L62.7099 64.7787L67.395 75.9606L66.6239 76.2838L61.9387 65.1018Z" fill="#BCC6DB"/>
</g>
<g clip-path="url(#clip1_14_2)">
<path d="M18.9676 40.8196L11.5454 43.5725L13.2841 48.2604L20.7063 45.5075L18.9676 40.8196Z" fill="url(#paint5_linear_14_2)"/>
<g filter="url(#filter0_d_14_2)">
<path d="M18.9676 40.8196L11.5454 43.5725L13.2841 48.2604L20.7063 45.5075L18.9676 40.8196Z" fill="url(#paint6_linear_14_2)"/>
</g>
<g filter="url(#filter1_d_14_2)">
<path d="M19.6021 38.9733L9.83582 42.5958L10.4154 44.1583L20.1816 40.5358L19.6021 38.9733Z" fill="#BCC6DB"/>
</g>
<path d="M10.0063 57.1195L4.05326 60.0362V68.7862L10.0063 65.8695V57.1195Z" fill="url(#paint7_linear_14_2)"/>
<g filter="url(#filter2_d_14_2)">
<path d="M10.0063 57.1195L4.05326 60.0362V68.7862L10.0063 65.8695V57.1195Z" fill="url(#paint8_linear_14_2)"/>
</g>
<g filter="url(#filter3_d_14_2)">
<path d="M2.4998 58.5H4.63721V69.75H2.4998V58.5Z" fill="#BCC6DB"/>
</g>
<path d="M71.974 23.6984L6.80751 50.5859C6.44327 50.7341 6.11179 50.9526 5.83199 51.2289C5.5522 51.5053 5.32958 51.834 5.17683 52.1964C5.02409 52.5588 4.94421 52.9477 4.94176 53.341C4.93932 53.7342 5.01435 54.1241 5.16258 54.4884L11.6573 70.2309C11.9638 70.9632 12.5485 71.5438 13.2829 71.8453C14.0172 72.1467 14.8413 72.1442 15.5738 71.8384L80.7423 44.9509C81.1066 44.8026 81.4381 44.5841 81.7179 44.3078C81.9977 44.0314 82.2203 43.7027 82.373 43.3403C82.5258 42.9779 82.6057 42.589 82.6081 42.1957C82.6105 41.8025 82.5355 41.4126 82.3873 41.0484L75.8921 25.3059C75.7404 24.943 75.5187 24.6136 75.2397 24.3364C74.9607 24.0593 74.6298 23.8398 74.266 23.6905C73.9021 23.5412 73.5125 23.4651 73.1192 23.4664C72.7259 23.4678 72.3368 23.5466 71.974 23.6984Z" fill="url(#paint9_linear_14_2)"/>
<g filter="url(#filter4_d_14_2)">
<path d="M71.974 23.6984L6.80751 50.5859C6.44327 50.7341 6.11179 50.9526 5.83199 51.2289C5.5522 51.5053 5.32958 51.834 5.17683 52.1964C5.02409 52.5588 4.94421 52.9477 4.94176 53.341C4.93932 53.7342 5.01435 54.1241 5.16258 54.4884L11.6573 70.2309C11.9638 70.9632 12.5485 71.5438 13.2829 71.8453C14.0172 72.1467 14.8413 72.1442 15.5738 71.8384L80.7423 44.9509C81.1066 44.8026 81.4381 44.5841 81.7179 44.3078C81.9977 44.0314 82.2203 43.7027 82.373 43.3403C82.5258 42.9779 82.6057 42.589 82.6081 42.1957C82.6105 41.8025 82.5355 41.4126 82.3873 41.0484L75.8921 25.3059C75.7404 24.943 75.5187 24.6136 75.2397 24.3364C74.9607 24.0593 74.6298 23.8398 74.266 23.6905C73.9021 23.5412 73.5125 23.4651 73.1192 23.4664C72.7259 23.4678 72.3368 23.5466 71.974 23.6984Z" fill="url(#paint10_linear_14_2)"/>
</g>
<rect x="61.249" y="27.1357" width="3.76603" height="24.7997" rx="0.400641" transform="rotate(-23.5045 61.249 27.1357)" fill="url(#paint11_linear_14_2)"/>
<rect x="66.4661" y="24.8497" width="2.46809" height="24.7997" rx="0.400641" transform="rotate(-23.5045 66.4661 24.8497)" fill="url(#paint12_linear_14_2)"/>
<rect x="12.4597" y="47.4663" width="3.76603" height="24.7997" rx="0.400641" transform="rotate(-23.5045 12.4597 47.4663)" fill="url(#paint13_linear_14_2)"/>
<rect x="8.41333" y="49.2291" width="2.46809" height="24.7997" rx="0.400641" transform="rotate(-23.5045 8.41333 49.2291)" fill="url(#paint14_linear_14_2)"/>
<path d="M89.2996 22.927H81.3833C81.3833 22.927 82.0083 26.7374 81.2533 28.0833C80.4983 29.4291 77.6334 29.5937 77.6334 29.5937L80.1333 36.677C80.1333 36.677 85.516 35.4387 87.9197 31.8333C90.0867 28.5833 89.2996 22.927 89.2996 22.927Z" fill="url(#paint15_linear_14_2)"/>
<g filter="url(#filter5_d_14_2)">
<path d="M89.2996 22.927H81.3833C81.3833 22.927 82.0083 26.7374 81.2533 28.0833C80.4983 29.4291 77.6334 29.5937 77.6334 29.5937L80.1333 36.677C80.1333 36.677 85.516 35.4387 87.9197 31.8333C90.0867 28.5833 89.2996 22.927 89.2996 22.927Z" fill="url(#paint16_linear_14_2)"/>
</g>
<g filter="url(#filter6_d_14_2)">
<path d="M80.0009 21.4166H90.8337V23.5H80.0009V21.4166Z" fill="#BCC6DB"/>
</g>
<path d="M96.7993 12.927H73.8836L80.1333 21.677H90.9662L96.7993 12.927Z" fill="url(#paint17_linear_14_2)"/>
<g filter="url(#filter7_d_14_2)">
<path d="M96.7993 12.927H73.8836L80.1333 21.677H90.9662L96.7993 12.927Z" fill="url(#paint18_linear_14_2)"/>
</g>
<path d="M74.5843 6H96.6667V11.4167H74.5843V6Z" fill="url(#paint19_linear_14_2)"/>
<g filter="url(#filter8_d_14_2)">
<path d="M74.5843 6H96.6667V11.4167H74.5843V6Z" fill="url(#paint20_linear_14_2)"/>
</g>
<g filter="url(#filter9_d_14_2)">
<path d="M73.751 11H97.5V13.5H73.751V11Z" fill="#BCC6DB"/>
</g>
</g>
<defs>
<filter id="filter0_d_14_2" x="11.4653" y="40.7395" width="9.32115" height="7.60105" filterUnits="userSpaceOnUse" color-interpolation-filters="sRGB">
<feFlood flood-opacity="0" result="BackgroundImageFix"/>
<feColorMatrix in="SourceAlpha" type="matrix" values="0 0 0 0 0 0 0 0 0 0 0 0 0 0 0 0 0 0 127 0" result="hardAlpha"/>
<feOffset/>
<feGaussianBlur stdDeviation="0.0400641"/>
<feColorMatrix type="matrix" values="0 0 0 0 1 0 0 0 0 1 0 0 0 0 1 0 0 0 1 0"/>
<feBlend mode="normal" in2="BackgroundImageFix" result="effect1_dropShadow_14_2"/>
<feBlend mode="normal" in="SourceGraphic" in2="effect1_dropShadow_14_2" result="shape"/>
</filter>
<filter id="filter1_d_14_2" x="9.67568" y="38.8531" width="10.6662" height="5.50557" filterUnits="userSpaceOnUse" color-interpolation-filters="sRGB">
<feFlood flood-opacity="0" result="BackgroundImageFix"/>
<feColorMatrix in="SourceAlpha" type="matrix" values="0 0 0 0 0 0 0 0 0 0 0 0 0 0 0 0 0 0 127 0" result="hardAlpha"/>
<feOffset dy="0.0400641"/>
<feGaussianBlur stdDeviation="0.0801282"/>
<feColorMatrix type="matrix" values="0 0 0 0 0.0156863 0 0 0 0 0.270588 0 0 0 0 0.380392 0 0 0 0.549 0"/>
<feBlend mode="normal" in2="BackgroundImageFix" result="effect1_dropShadow_14_2"/>
<feBlend mode="normal" in="SourceGraphic" in2="effect1_dropShadow_14_2" result="shape"/>
</filter>
<filter id="filter2_d_14_2" x="3.93303" y="56.9993" width="6.19351" height="11.907" filterUnits="userSpaceOnUse" color-interpolation-filters="sRGB">
<feFlood flood-opacity="0" result="BackgroundImageFix"/>
<feColorMatrix in="SourceAlpha" type="matrix" values="0 0 0 0 0 0 0 0 0 0 0 0 0 0 0 0 0 0 127 0" result="hardAlpha"/>
<feOffset/>
<feGaussianBlur stdDeviation="0.0600962"/>
<feColorMatrix type="matrix" values="0 0 0 0 1 0 0 0 0 1 0 0 0 0 1 0 0 0 1 0"/>
<feBlend mode="normal" in2="BackgroundImageFix" result="effect1_dropShadow_14_2"/>
<feBlend mode="normal" in="SourceGraphic" in2="effect1_dropShadow_14_2" result="shape"/>
</filter>
<filter id="filter3_d_14_2" x="2.3395" y="58.3798" width="2.45796" height="11.5705" filterUnits="userSpaceOnUse" color-interpolation-filters="sRGB">
<feFlood flood-opacity="0" result="BackgroundImageFix"/>
<feColorMatrix in="SourceAlpha" type="matrix" values="0 0 0 0 0 0 0 0 0 0 0 0 0 0 0 0 0 0 127 0" result="hardAlpha"/>
<feOffset dy="0.0400641"/>
<feGaussianBlur stdDeviation="0.0801282"/>
<feColorMatrix type="matrix" values="0 0 0 0 0.0156863 0 0 0 0 0.270588 0 0 0 0 0.380392 0 0 0 0.549 0"/>
<feBlend mode="normal" in2="BackgroundImageFix" result="effect1_dropShadow_14_2"/>
<feBlend mode="normal" in="SourceGraphic" in2="effect1_dropShadow_14_2" result="shape"/>
</filter>
<filter id="filter4_d_14_2" x="4.86152" y="23.3863" width="77.8268" height="48.7634" filterUnits="userSpaceOnUse" color-interpolation-filters="sRGB">
<feFlood flood-opacity="0" result="BackgroundImageFix"/>
<feColorMatrix in="SourceAlpha" type="matrix" values="0 0 0 0 0 0 0 0 0 0 0 0 0 0 0 0 0 0 127 0" result="hardAlpha"/>
<feOffset/>
<feGaussianBlur stdDeviation="0.0400641"/>
<feColorMatrix type="matrix" values="0 0 0 0 1 0 0 0 0 1 0 0 0 0 1 0 0 0 1 0"/>
<feBlend mode="normal" in2="BackgroundImageFix" result="effect1_dropShadow_14_2"/>
<feBlend mode="normal" in="SourceGraphic" in2="effect1_dropShadow_14_2" result="shape"/>
</filter>
<filter id="filter5_d_14_2" x="77.5134" y="22.8068" width="12.0458" height="13.9904" filterUnits="userSpaceOnUse" color-interpolation-filters="sRGB">
<feFlood flood-opacity="0" result="BackgroundImageFix"/>
<feColorMatrix in="SourceAlpha" type="matrix" values="0 0 0 0 0 0 0 0 0 0 0 0 0 0 0 0 0 0 127 0" result="hardAlpha"/>
<feOffset/>
<feGaussianBlur stdDeviation="0.0600962"/>
<feColorMatrix type="matrix" values="0 0 0 0 1 0 0 0 0 1 0 0 0 0 1 0 0 0 1 0"/>
<feBlend mode="normal" in2="BackgroundImageFix" result="effect1_dropShadow_14_2"/>
<feBlend mode="normal" in="SourceGraphic" in2="effect1_dropShadow_14_2" result="shape"/>
</filter>
<filter id="filter6_d_14_2" x="79.8407" y="21.2964" width="11.1533" height="2.40389" filterUnits="userSpaceOnUse" color-interpolation-filters="sRGB">
<feFlood flood-opacity="0" result="BackgroundImageFix"/>
<feColorMatrix in="SourceAlpha" type="matrix" values="0 0 0 0 0 0 0 0 0 0 0 0 0 0 0 0 0 0 127 0" result="hardAlpha"/>
<feOffset dy="0.0400641"/>
<feGaussianBlur stdDeviation="0.0801282"/>
<feColorMatrix type="matrix" values="0 0 0 0 0.0156863 0 0 0 0 0.270588 0 0 0 0 0.380392 0 0 0 0.549 0"/>
<feBlend mode="normal" in2="BackgroundImageFix" result="effect1_dropShadow_14_2"/>
<feBlend mode="normal" in="SourceGraphic" in2="effect1_dropShadow_14_2" result="shape"/>
</filter>
<filter id="filter7_d_14_2" x="73.8034" y="12.8469" width="23.076" height="8.91026" filterUnits="userSpaceOnUse" color-interpolation-filters="sRGB">
<feFlood flood-opacity="0" result="BackgroundImageFix"/>
<feColorMatrix in="SourceAlpha" type="matrix" values="0 0 0 0 0 0 0 0 0 0 0 0 0 0 0 0 0 0 127 0" result="hardAlpha"/>
<feOffset/>
<feGaussianBlur stdDeviation="0.0400641"/>
<feColorMatrix type="matrix" values="0 0 0 0 1 0 0 0 0 1 0 0 0 0 1 0 0 0 1 0"/>
<feBlend mode="normal" in2="BackgroundImageFix" result="effect1_dropShadow_14_2"/>
<feBlend mode="normal" in="SourceGraphic" in2="effect1_dropShadow_14_2" result="shape"/>
</filter>
<filter id="filter8_d_14_2" x="74.5041" y="5.91987" width="22.2428" height="5.57688" filterUnits="userSpaceOnUse" color-interpolation-filters="sRGB">
<feFlood flood-opacity="0" result="BackgroundImageFix"/>
<feColorMatrix in="SourceAlpha" type="matrix" values="0 0 0 0 0 0 0 0 0 0 0 0 0 0 0 0 0 0 127 0" result="hardAlpha"/>
<feOffset/>
<feGaussianBlur stdDeviation="0.0400641"/>
<feColorMatrix type="matrix" values="0 0 0 0 1 0 0 0 0 1 0 0 0 0 1 0 0 0 1 0"/>
<feBlend mode="normal" in2="BackgroundImageFix" result="effect1_dropShadow_14_2"/>
<feBlend mode="normal" in="SourceGraphic" in2="effect1_dropShadow_14_2" result="shape"/>
</filter>
<filter id="filter9_d_14_2" x="73.5907" y="10.8798" width="24.0695" height="2.82051" filterUnits="userSpaceOnUse" color-interpolation-filters="sRGB">
<feFlood flood-opacity="0" result="BackgroundImageFix"/>
<feColorMatrix in="SourceAlpha" type="matrix" values="0 0 0 0 0 0 0 0 0 0 0 0 0 0 0 0 0 0 127 0" result="hardAlpha"/>
<feOffset dy="0.0400641"/>
<feGaussianBlur stdDeviation="0.0801282"/>
<feColorMatrix type="matrix" values="0 0 0 0 0.0156863 0 0 0 0 0.270588 0 0 0 0 0.380392 0 0 0 0.549 0"/>
<feBlend mode="normal" in2="BackgroundImageFix" result="effect1_dropShadow_14_2"/>
<feBlend mode="normal" in="SourceGraphic" in2="effect1_dropShadow_14_2" result="shape"/>
</filter>
<linearGradient id="paint0_linear_14_2" x1="64.7256" y1="63.853" x2="69.6244" y2="75.2476" gradientUnits="userSpaceOnUse">
<stop stop-color="#8B9AAF"/>
<stop offset="0.25" stop-color="#D4DAE7"/>
<stop offset="0.35" stop-color="#E0E5F1"/>
<stop offset="0.5" stop-color="#D4DAE7"/>
<stop offset="0.9" stop-color="#6A779E"/>
</linearGradient>
<linearGradient id="paint1_linear_14_2" x1="90.3502" y1="68.2613" x2="82.9403" y2="71.0319" gradientUnits="userSpaceOnUse">
<stop stop-color="#8B9AAF"/>
<stop offset="0.25" stop-color="#D4DAE7"/>
<stop offset="0.35" stop-color="#E0E5F1"/>
<stop offset="0.5" stop-color="#D4DAE7"/>
<stop offset="0.9" stop-color="#6A779E"/>
</linearGradient>
<linearGradient id="paint2_linear_14_2" x1="73.6577" y1="51.3125" x2="66.3098" y2="54.2573" gradientUnits="userSpaceOnUse">
<stop stop-color="#8B9AAF"/>
<stop offset="0.25" stop-color="#D4DAE7"/>
<stop offset="0.35" stop-color="#E0E5F1"/>
<stop offset="0.5" stop-color="#D4DAE7"/>
<stop offset="0.9" stop-color="#6A779E"/>
</linearGradient>
<linearGradient id="paint3_linear_14_2" x1="76.2495" y1="57.4982" x2="68.8907" y2="60.4142" gradientUnits="userSpaceOnUse">
<stop stop-color="#8B9AAF"/>
<stop offset="0.25" stop-color="#D4DAE7"/>
<stop offset="0.35" stop-color="#E0E5F1"/>
<stop offset="0.5" stop-color="#D4DAE7"/>
<stop offset="0.9" stop-color="#6A779E"/>
</linearGradient>
<linearGradient id="paint4_linear_14_2" x1="36.5982" y1="78.4359" x2="39.6631" y2="85.2868" gradientUnits="userSpaceOnUse">
<stop stop-color="#8B9AAF"/>
<stop offset="0.25" stop-color="#D4DAE7"/>
<stop offset="0.35" stop-color="#E0E5F1"/>
<stop offset="0.5" stop-color="#D4DAE7"/>
<stop offset="0.9" stop-color="#6A779E"/>
</linearGradient>
<linearGradient id="paint5_linear_14_2" x1="20.7063" y1="44.54" x2="11.5454" y2="44.54" gradientUnits="userSpaceOnUse">
<stop stop-color="#6A779E"/>
<stop offset="0.122" stop-color="#6A779E"/>
<stop offset="0.677" stop-color="#D4DAE7"/>
<stop offset="1" stop-color="#8B9AAF"/>
</linearGradient>
<linearGradient id="paint6_linear_14_2" x1="12.3999" y1="45.8037" x2="19.7917" y2="42.9591" gradientUnits="userSpaceOnUse">
<stop stop-color="#8B9AAF"/>
<stop offset="0.25" stop-color="#D4DAE7"/>
<stop offset="0.35" stop-color="#E0E5F1"/>
<stop offset="0.5" stop-color="#D4DAE7"/>
<stop offset="0.9" stop-color="#6A779E"/>
</linearGradient>
<linearGradient id="paint7_linear_14_2" x1="10.0063" y1="65.4495" x2="3.28341" y2="63.9813" gradientUnits="userSpaceOnUse">
<stop stop-color="#6A779E"/>
<stop offset="0.122" stop-color="#6A779E"/>
<stop offset="0.677" stop-color="#D4DAE7"/>
<stop offset="1" stop-color="#8B9AAF"/>
</linearGradient>
<linearGradient id="paint8_linear_14_2" x1="4.05326" y1="62.9528" x2="10.0063" y2="62.9528" gradientUnits="userSpaceOnUse">
<stop stop-color="#8B9AAF"/>
<stop offset="0.25" stop-color="#D4DAE7"/>
<stop offset="0.35" stop-color="#E0E5F1"/>
<stop offset="0.5" stop-color="#D4DAE7"/>
<stop offset="0.9" stop-color="#6A779E"/>
</linearGradient>
<linearGradient id="paint9_linear_14_2" x1="54.5706" y1="72.0696" x2="45.7292" y2="21.2483" gradientUnits="userSpaceOnUse">
<stop stop-color="#6A779E"/>
<stop offset="0.122" stop-color="#6A779E"/>
<stop offset="0.677" stop-color="#D4DAE7"/>
<stop offset="1" stop-color="#8B9AAF"/>
</linearGradient>
<linearGradient id="paint10_linear_14_2" x1="38.0608" y1="37.6106" x2="47.4157" y2="58.6843" gradientUnits="userSpaceOnUse">
<stop stop-color="#8B9AAF"/>
<stop offset="0.25" stop-color="#D4DAE7"/>
<stop offset="0.35" stop-color="#E0E5F1"/>
<stop offset="0.5" stop-color="#D4DAE7"/>
<stop offset="0.9" stop-color="#6A779E"/>
</linearGradient>
<linearGradient id="paint11_linear_14_2" x1="63.1559" y1="27.1357" x2="63.1559" y2="51.9354" gradientUnits="userSpaceOnUse">
<stop stop-color="#707EA7"/>
<stop offset="0.336" stop-color="#829AD3"/>
<stop offset="0.762" stop-color="#3A4369"/>
<stop offset="1" stop-color="#747DAD"/>
</linearGradient>
<linearGradient id="paint12_linear_14_2" x1="67.7157" y1="24.8497" x2="67.7157" y2="49.6494" gradientUnits="userSpaceOnUse">
<stop stop-color="#707EA7"/>
<stop offset="0.336" stop-color="#829AD3"/>
<stop offset="0.762" stop-color="#3A4369"/>
<stop offset="1" stop-color="#747DAD"/>
</linearGradient>
<linearGradient id="paint13_linear_14_2" x1="14.3666" y1="47.4663" x2="14.3666" y2="72.266" gradientUnits="userSpaceOnUse">
<stop stop-color="#707EA7"/>
<stop offset="0.336" stop-color="#829AD3"/>
<stop offset="0.762" stop-color="#3A4369"/>
<stop offset="1" stop-color="#747DAD"/>
</linearGradient>
<linearGradient id="paint14_linear_14_2" x1="9.663" y1="49.2291" x2="9.66299" y2="74.0288" gradientUnits="userSpaceOnUse">
<stop stop-color="#707EA7"/>
<stop offset="0.336" stop-color="#829AD3"/>
<stop offset="0.762" stop-color="#3A4369"/>
<stop offset="1" stop-color="#747DAD"/>
</linearGradient>
<linearGradient id="paint15_linear_14_2" x1="89.439" y1="34.752" x2="76.4696" y2="26.7346" gradientUnits="userSpaceOnUse">
<stop stop-color="#6A779E"/>
<stop offset="0.122" stop-color="#6A779E"/>
<stop offset="0.677" stop-color="#D4DAE7"/>
<stop offset="1" stop-color="#8B9AAF"/>
</linearGradient>
<linearGradient id="paint16_linear_14_2" x1="77.6443" y1="27.5143" x2="87.2396" y2="34.5256" gradientUnits="userSpaceOnUse">
<stop stop-color="#8B9AAF"/>
<stop offset="0.25" stop-color="#D4DAE7"/>
<stop offset="0.35" stop-color="#E0E5F1"/>
<stop offset="0.5" stop-color="#D4DAE7"/>
<stop offset="0.9" stop-color="#6A779E"/>
</linearGradient>
<linearGradient id="paint17_linear_14_2" x1="96.7993" y1="17.302" x2="73.8836" y2="17.302" gradientUnits="userSpaceOnUse">
<stop stop-color="#6A779E"/>
<stop offset="0.122" stop-color="#6A779E"/>
<stop offset="0.677" stop-color="#D4DAE7"/>
<stop offset="1" stop-color="#8B9AAF"/>
</linearGradient>
<linearGradient id="paint18_linear_14_2" x1="73.8836" y1="17.302" x2="96.7993" y2="17.302" gradientUnits="userSpaceOnUse">
<stop stop-color="#8B9AAF"/>
<stop offset="0.25" stop-color="#D4DAE7"/>
<stop offset="0.35" stop-color="#E0E5F1"/>
<stop offset="0.5" stop-color="#D4DAE7"/>
<stop offset="0.9" stop-color="#6A779E"/>
</linearGradient>
<linearGradient id="paint19_linear_14_2" x1="96.6667" y1="8.70833" x2="74.5843" y2="8.70833" gradientUnits="userSpaceOnUse">
<stop stop-color="#6A779E"/>
<stop offset="0.122" stop-color="#6A779E"/>
<stop offset="0.677" stop-color="#D4DAE7"/>
<stop offset="1" stop-color="#8B9AAF"/>
</linearGradient>
<linearGradient id="paint20_linear_14_2" x1="74.5843" y1="8.70833" x2="96.6667" y2="8.70833" gradientUnits="userSpaceOnUse">
<stop stop-color="#8B9AAF"/>
<stop offset="0.25" stop-color="#D4DAE7"/>
<stop offset="0.35" stop-color="#E0E5F1"/>
<stop offset="0.5" stop-color="#D4DAE7"/>
<stop offset="0.9" stop-color="#6A779E"/>
</linearGradient>
<clipPath id="clip0_14_2">
<rect width="60.6587" height="28.625" fill="white" transform="translate(25.4407 67.0576) rotate(-22.7333)"/>
</clipPath>
<clipPath id="clip1_14_2">
<rect width="100" height="66.6667" fill="white" transform="matrix(-1 0 0 1 100 6)"/>
</clipPath>
</defs>
</svg>
