<svg width="100" height="100" viewBox="0 0 100 100" fill="none" xmlns="http://www.w3.org/2000/svg">
<g clip-path="url(#clip0_28_259)">
<path fill-rule="evenodd" clip-rule="evenodd" d="M66 15L66 2L71 2L71 15L66 15Z" fill="url(#paint0_linear_28_259)"/>
<path fill-rule="evenodd" clip-rule="evenodd" d="M50.519 79.4963L62.0585 79.4963L66.4941 42.963L66.4941 0.189323L46.0813 0.189323L46.0813 42.963L50.519 79.4963Z" fill="url(#paint1_linear_28_259)"/>
<path fill-rule="evenodd" clip-rule="evenodd" d="M26.0327 29.6871L26.0327 16.5924L36.3289 16.5924L36.3289 29.6871L26.0327 29.6871Z" fill="#9ABCCB" stroke="#231815" stroke-width="0.0400641" stroke-miterlimit="10"/>
<path fill-rule="evenodd" clip-rule="evenodd" d="M26.0327 29.6871L26.0327 16.5924L36.3289 16.5924L36.3289 29.6871L26.0327 29.6871Z" fill="#9ABCCB" stroke="#231815" stroke-width="0.0400641" stroke-miterlimit="10"/>
<path fill-rule="evenodd" clip-rule="evenodd" d="M26.0327 29.6871L26.0327 16.5924L36.3289 16.5924L36.3289 29.6871L26.0327 29.6871Z" fill="#9ABCCB" stroke="#231815" stroke-width="0.0400641" stroke-miterlimit="10"/>
<path fill-rule="evenodd" clip-rule="evenodd" d="M26.0327 29.6871L26.0327 16.5924L36.3289 16.5924L36.3289 29.6871L26.0327 29.6871Z" fill="#9ABCCB" stroke="#231815" stroke-width="0.0400641" stroke-miterlimit="10"/>
<path fill-rule="evenodd" clip-rule="evenodd" d="M26.0327 29.6871L26.0327 16.5924L36.3289 16.5924L36.3289 29.6871L26.0327 29.6871Z" fill="#9ABCCB" stroke="#231815" stroke-width="0.0400641" stroke-miterlimit="10"/>
<path fill-rule="evenodd" clip-rule="evenodd" d="M26.0327 29.6871L26.0327 16.5924L36.3289 16.5924L36.3289 29.6871L26.0327 29.6871Z" fill="url(#paint2_linear_28_259)"/>
<path fill-rule="evenodd" clip-rule="evenodd" d="M35.9001 31.7346L35.9001 14.5046L38.6459 14.5046L38.6459 31.7346L35.9001 31.7346Z" fill="#BCC6DB"/>
<path fill-rule="evenodd" clip-rule="evenodd" d="M38.3879 29.6871L38.3879 16.5924L46.6252 16.5924L46.6252 29.6871L38.3879 29.6871Z" fill="#9ABCCB" stroke="#231815" stroke-width="0.0400641" stroke-miterlimit="10"/>
<path fill-rule="evenodd" clip-rule="evenodd" d="M38.3879 29.6871L38.3879 16.5924L46.6252 16.5924L46.6252 29.6871L38.3879 29.6871Z" fill="url(#paint3_linear_28_259)"/>
<path fill-rule="evenodd" clip-rule="evenodd" d="M48.2554 80.3245C48.2553 80.1887 48.2819 80.0541 48.3336 79.9285C48.3853 79.803 48.4612 79.6889 48.5569 79.5927C48.6525 79.4966 48.7661 79.4204 48.8911 79.3684C49.0162 79.3163 49.1502 79.2896 49.2855 79.2896L63.0136 79.2896C63.2822 79.2964 63.5375 79.4083 63.7251 79.6015C63.9127 79.7946 64.0177 80.0538 64.0177 80.3236C64.0177 80.5933 63.9127 80.8525 63.7251 81.0456C63.5375 81.2388 63.2822 81.3507 63.0136 81.3575L49.2855 81.3575C49.0125 81.3575 48.7507 81.2488 48.5576 81.0551C48.3644 80.8614 48.2557 80.5986 48.2554 80.3245Z" fill="#BCC6DB"/>
<path fill-rule="evenodd" clip-rule="evenodd" d="M50.3149 99.9673L50.3149 81.3588L62.6701 81.3588L62.6701 99.9673L50.3149 99.9673Z" fill="url(#paint4_linear_28_259)"/>
<path fill-rule="evenodd" clip-rule="evenodd" d="M46.1963 43.2588L46.1963 41.8804L66.1026 41.8804L66.1026 43.2588L46.1963 43.2588Z" fill="#BCC6DB"/>
<path fill-rule="evenodd" clip-rule="evenodd" d="M71 17L71 0L73 -8.74228e-08L73 17L71 17Z" fill="#BCC6DB"/>
</g>
<defs>
<linearGradient id="paint0_linear_28_259" x1="69.262" y1="2.06252" x2="68.8476" y2="15.0064" gradientUnits="userSpaceOnUse">
<stop stop-color="#8B9AAF"/>
<stop offset="0.25" stop-color="#D4DAE7"/>
<stop offset="0.35" stop-color="#E0E5F1"/>
<stop offset="0.5" stop-color="#D4DAE7"/>
<stop offset="0.9" stop-color="#6A779E"/>
</linearGradient>
<linearGradient id="paint1_linear_28_259" x1="46.0738" y1="38.2257" x2="66.4377" y2="38.0378" gradientUnits="userSpaceOnUse">
<stop stop-color="#8B9AAF"/>
<stop offset="0.25" stop-color="#D4DAE7"/>
<stop offset="0.35" stop-color="#E0E5F1"/>
<stop offset="0.5" stop-color="#D4DAE7"/>
<stop offset="0.9" stop-color="#6A779E"/>
</linearGradient>
<linearGradient id="paint2_linear_28_259" x1="32.7499" y1="16.6553" x2="32.5456" y2="29.7037" gradientUnits="userSpaceOnUse">
<stop stop-color="#8B9AAF"/>
<stop offset="0.25" stop-color="#D4DAE7"/>
<stop offset="0.35" stop-color="#E0E5F1"/>
<stop offset="0.5" stop-color="#D4DAE7"/>
<stop offset="0.9" stop-color="#6A779E"/>
</linearGradient>
<linearGradient id="paint3_linear_28_259" x1="43.7619" y1="16.6553" x2="43.5065" y2="29.7019" gradientUnits="userSpaceOnUse">
<stop stop-color="#8B9AAF"/>
<stop offset="0.25" stop-color="#D4DAE7"/>
<stop offset="0.35" stop-color="#E0E5F1"/>
<stop offset="0.5" stop-color="#D4DAE7"/>
<stop offset="0.9" stop-color="#6A779E"/>
</linearGradient>
<linearGradient id="paint4_linear_28_259" x1="50.3104" y1="90.2836" x2="62.63" y2="89.9904" gradientUnits="userSpaceOnUse">
<stop stop-color="#8B9AAF"/>
<stop offset="0.25" stop-color="#D4DAE7"/>
<stop offset="0.35" stop-color="#E0E5F1"/>
<stop offset="0.5" stop-color="#D4DAE7"/>
<stop offset="0.9" stop-color="#6A779E"/>
</linearGradient>
<clipPath id="clip0_28_259">
<rect width="100" height="47" fill="white" transform="translate(26 100) rotate(-90)"/>
</clipPath>
</defs>
</svg>
