<svg width="200" height="100" viewBox="0 0 200 100" fill="none" xmlns="http://www.w3.org/2000/svg">
<g filter="url(#filter0_i_35_257)">
<path d="M7 42H172L174 37H193L197 42V54H7V42Z" fill="#A9BAD0"/>
</g>
<path d="M196.5 42.1754V53.5H7.5V42.5H172H172.339L172.464 42.1857L174.339 37.5H192.76L196.5 42.1754Z" stroke="#DFEDFF" stroke-miterlimit="10"/>
<g filter="url(#filter1_i_35_257)">
<path d="M7 42L0 46V58L7 54V42Z" fill="#9DB0C9"/>
</g>
<path d="M0.5 57.1384V46.2902L6.5 42.8616V53.7098L0.5 57.1384Z" stroke="#B3C1D2" stroke-miterlimit="10"/>
<g filter="url(#filter2_i_35_257)">
<path d="M197 42L190 46V58L197 54V42Z" fill="#9DB0C9"/>
</g>
<path d="M190.5 57.1384V46.2902L196.5 42.8616V53.7098L190.5 57.1384Z" stroke="#B3C1D2" stroke-miterlimit="10"/>
<path d="M7 44H173L179 48L1 47.5L7 44Z" fill="#9DAED0"/>
<path d="M13 43L9 46V47L13 44V43Z" fill="#517A95"/>
<path d="M9 46H8L12 43H13L9 46Z" fill="#B1E0FF"/>
<path d="M21.9412 43L17.9412 46V47L21.9412 44V43Z" fill="#517A95"/>
<path d="M17.9412 46H16.9412L20.9412 43H21.9412L17.9412 46Z" fill="#B1E0FF"/>
<path d="M30.8823 43L26.8823 46V47L30.8823 44V43Z" fill="#517A95"/>
<path d="M26.8823 46H25.8823L29.8823 43H30.8823L26.8823 46Z" fill="#B1E0FF"/>
<path d="M39.8235 43L35.8235 46V47L39.8235 44V43Z" fill="#517A95"/>
<path d="M35.8235 46H34.8235L38.8235 43H39.8235L35.8235 46Z" fill="#B1E0FF"/>
<path d="M48.7646 43L44.7646 46V47L48.7646 44V43Z" fill="#517A95"/>
<path d="M44.7646 46H43.7646L47.7646 43H48.7646L44.7646 46Z" fill="#B1E0FF"/>
<path d="M57.7059 43L53.7059 46V47L57.7059 44V43Z" fill="#517A95"/>
<path d="M53.7059 46H52.7059L56.7059 43H57.7059L53.7059 46Z" fill="#B1E0FF"/>
<path d="M66.6471 43L62.6471 46V47L66.6471 44V43Z" fill="#517A95"/>
<path d="M62.6471 46H61.6471L65.6471 43H66.6471L62.6471 46Z" fill="#B1E0FF"/>
<path d="M75.5883 43L71.5883 46V47L75.5883 44V43Z" fill="#517A95"/>
<path d="M71.5883 46H70.5883L74.5883 43H75.5883L71.5883 46Z" fill="#B1E0FF"/>
<path d="M84.5294 43L80.5294 46V47L84.5294 44V43Z" fill="#517A95"/>
<path d="M80.5294 46H79.5294L83.5294 43H84.5294L80.5294 46Z" fill="#B1E0FF"/>
<path d="M93.4706 43L89.4706 46V47L93.4706 44V43Z" fill="#517A95"/>
<path d="M89.4706 46H88.4706L92.4706 43H93.4706L89.4706 46Z" fill="#B1E0FF"/>
<path d="M102.412 43L98.4117 46V47L102.412 44V43Z" fill="#517A95"/>
<path d="M98.4117 46H97.4117L101.412 43H102.412L98.4117 46Z" fill="#B1E0FF"/>
<path d="M111.353 43L107.353 46V47L111.353 44V43Z" fill="#517A95"/>
<path d="M107.353 46H106.353L110.353 43H111.353L107.353 46Z" fill="#B1E0FF"/>
<path d="M120.294 43L116.294 46V47L120.294 44V43Z" fill="#517A95"/>
<path d="M116.294 46H115.294L119.294 43H120.294L116.294 46Z" fill="#B1E0FF"/>
<path d="M129.235 43L125.235 46V47L129.235 44V43Z" fill="#517A95"/>
<path d="M125.235 46H124.235L128.235 43H129.235L125.235 46Z" fill="#B1E0FF"/>
<path d="M138.177 43L134.177 46V47L138.177 44V43Z" fill="#517A95"/>
<path d="M134.177 46H133.177L137.177 43H138.177L134.177 46Z" fill="#B1E0FF"/>
<path d="M147.118 43L143.118 46V47L147.118 44V43Z" fill="#517A95"/>
<path d="M143.118 46H142.118L146.118 43H147.118L143.118 46Z" fill="#B1E0FF"/>
<path d="M156.059 43L152.059 46V47L156.059 44V43Z" fill="#517A95"/>
<path d="M152.059 46H151.059L155.059 43H156.059L152.059 46Z" fill="#B1E0FF"/>
<path d="M165 43L161 46V47L165 44V43Z" fill="#517A95"/>
<path d="M161 46H160L164 43H165L161 46Z" fill="#B1E0FF"/>
<g filter="url(#filter3_i_35_257)">
<path d="M0 46H165L167 41H186L190 46V58H0V46Z" fill="#A9BAD0"/>
</g>
<path d="M189.5 46.1754V57.5H0.5V46.5H165H165.339L165.464 46.1857L167.339 41.5H185.76L189.5 46.1754Z" stroke="#DFEDFF" stroke-miterlimit="10"/>
<g filter="url(#filter4_i_35_257)">
<path d="M165 46H186V58H165V46Z" fill="#A9BAD0"/>
</g>
<path d="M165.5 46.5H185.5V57.5H165.5V46.5Z" stroke="#DFEDFF" stroke-miterlimit="10"/>
<path d="M160.769 47.3846H165.192V50.0385H160.769V47.3846Z" fill="url(#paint0_linear_35_257)"/>
<path d="M159.885 41.7655H158.558C158.387 41.7655 158.221 41.7813 158.058 41.8131C157.521 41.0546 156.645 40.4124 155.904 40.4124H149.269V36.3531C149.269 35.6052 148.676 35 147.942 35H141.308C140.574 35 139.981 35.6052 139.981 36.3531V40.4124C139.268 40.4124 138.431 41.0044 137.892 41.7258C137.76 41.6862 137.62 41.6651 137.475 41.6651C136.661 41.6624 136 42.3363 136 43.1662V52.4132C136 53.243 136.661 53.9169 137.475 53.9169C137.565 53.9169 137.651 53.9116 137.729 53.8984C138.203 54.76 139.027 55.5502 139.792 55.5502H139.856L138.654 58H158.558L157.231 55.2938H157.176C157.29 55.2304 157.399 55.1564 157.505 55.0718C157.829 55.2145 158.184 55.2938 158.558 55.2938H159.885C161.351 55.2938 162.538 54.0834 162.538 52.5876V44.4717C162.538 42.9759 161.351 41.7655 159.885 41.7655ZM146.615 36.3531C147.349 36.3531 147.942 36.9583 147.942 37.7062C147.942 38.4541 147.349 39.0593 146.615 39.0593C145.882 39.0593 145.288 38.4541 145.288 37.7062C145.288 36.9583 145.882 36.3531 146.615 36.3531ZM142.635 36.3531C143.368 36.3531 143.962 36.9583 143.962 37.7062C143.962 38.4541 143.368 39.0593 142.635 39.0593C141.901 39.0593 141.308 38.4541 141.308 37.7062C141.308 36.9583 141.901 36.3531 142.635 36.3531ZM155.904 53.9434H139.981V52.5903H155.904V53.9434ZM155.904 51.2372H139.981V49.8841H155.904V51.2372ZM155.904 48.531H139.981V47.1779H155.904V48.531ZM155.904 45.8248H139.981V44.4717H155.904V45.8248ZM155.904 43.1186H139.981V41.7655H155.904V43.1186Z" fill="url(#paint1_linear_35_257)"/>
<path d="M9 51.2C8.55817 51.2 8.2 51.5582 8.2 52C8.2 52.4418 8.55817 52.8 9 52.8V51.2ZM124 52L116 47.3812V56.6188L124 52ZM9 52.8H116.8V51.2H9V52.8Z" fill="white"/>
<defs>
<filter id="filter0_i_35_257" x="7" y="37" width="190" height="17" filterUnits="userSpaceOnUse" color-interpolation-filters="sRGB">
<feFlood flood-opacity="0" result="BackgroundImageFix"/>
<feBlend mode="normal" in="SourceGraphic" in2="BackgroundImageFix" result="shape"/>
<feColorMatrix in="SourceAlpha" type="matrix" values="0 0 0 0 0 0 0 0 0 0 0 0 0 0 0 0 0 0 127 0" result="hardAlpha"/>
<feOffset/>
<feGaussianBlur stdDeviation="3"/>
<feComposite in2="hardAlpha" operator="arithmetic" k2="-1" k3="1"/>
<feColorMatrix type="matrix" values="0 0 0 0 0.0156863 0 0 0 0 0.270588 0 0 0 0 0.380392 0 0 0 1 0"/>
<feBlend mode="normal" in2="shape" result="effect1_innerShadow_35_257"/>
</filter>
<filter id="filter1_i_35_257" x="0" y="42" width="7" height="16" filterUnits="userSpaceOnUse" color-interpolation-filters="sRGB">
<feFlood flood-opacity="0" result="BackgroundImageFix"/>
<feBlend mode="normal" in="SourceGraphic" in2="BackgroundImageFix" result="shape"/>
<feColorMatrix in="SourceAlpha" type="matrix" values="0 0 0 0 0 0 0 0 0 0 0 0 0 0 0 0 0 0 127 0" result="hardAlpha"/>
<feOffset/>
<feGaussianBlur stdDeviation="3"/>
<feComposite in2="hardAlpha" operator="arithmetic" k2="-1" k3="1"/>
<feColorMatrix type="matrix" values="0 0 0 0 0.0156863 0 0 0 0 0.270588 0 0 0 0 0.380392 0 0 0 1 0"/>
<feBlend mode="normal" in2="shape" result="effect1_innerShadow_35_257"/>
</filter>
<filter id="filter2_i_35_257" x="190" y="42" width="7" height="16" filterUnits="userSpaceOnUse" color-interpolation-filters="sRGB">
<feFlood flood-opacity="0" result="BackgroundImageFix"/>
<feBlend mode="normal" in="SourceGraphic" in2="BackgroundImageFix" result="shape"/>
<feColorMatrix in="SourceAlpha" type="matrix" values="0 0 0 0 0 0 0 0 0 0 0 0 0 0 0 0 0 0 127 0" result="hardAlpha"/>
<feOffset/>
<feGaussianBlur stdDeviation="3"/>
<feComposite in2="hardAlpha" operator="arithmetic" k2="-1" k3="1"/>
<feColorMatrix type="matrix" values="0 0 0 0 0.0156863 0 0 0 0 0.270588 0 0 0 0 0.380392 0 0 0 1 0"/>
<feBlend mode="normal" in2="shape" result="effect1_innerShadow_35_257"/>
</filter>
<filter id="filter3_i_35_257" x="0" y="41" width="190" height="17" filterUnits="userSpaceOnUse" color-interpolation-filters="sRGB">
<feFlood flood-opacity="0" result="BackgroundImageFix"/>
<feBlend mode="normal" in="SourceGraphic" in2="BackgroundImageFix" result="shape"/>
<feColorMatrix in="SourceAlpha" type="matrix" values="0 0 0 0 0 0 0 0 0 0 0 0 0 0 0 0 0 0 127 0" result="hardAlpha"/>
<feOffset/>
<feGaussianBlur stdDeviation="3"/>
<feComposite in2="hardAlpha" operator="arithmetic" k2="-1" k3="1"/>
<feColorMatrix type="matrix" values="0 0 0 0 0.0156863 0 0 0 0 0.270588 0 0 0 0 0.380392 0 0 0 1 0"/>
<feBlend mode="normal" in2="shape" result="effect1_innerShadow_35_257"/>
</filter>
<filter id="filter4_i_35_257" x="165" y="46" width="21" height="12" filterUnits="userSpaceOnUse" color-interpolation-filters="sRGB">
<feFlood flood-opacity="0" result="BackgroundImageFix"/>
<feBlend mode="normal" in="SourceGraphic" in2="BackgroundImageFix" result="shape"/>
<feColorMatrix in="SourceAlpha" type="matrix" values="0 0 0 0 0 0 0 0 0 0 0 0 0 0 0 0 0 0 127 0" result="hardAlpha"/>
<feOffset/>
<feGaussianBlur stdDeviation="3"/>
<feComposite in2="hardAlpha" operator="arithmetic" k2="-1" k3="1"/>
<feColorMatrix type="matrix" values="0 0 0 0 0.0156863 0 0 0 0 0.270588 0 0 0 0 0.380392 0 0 0 1 0"/>
<feBlend mode="normal" in2="shape" result="effect1_innerShadow_35_257"/>
</filter>
<linearGradient id="paint0_linear_35_257" x1="162.981" y1="50.0385" x2="162.981" y2="47.3846" gradientUnits="userSpaceOnUse">
<stop stop-color="#6A779E"/>
<stop offset="0.122" stop-color="#6A779E"/>
<stop offset="0.677" stop-color="#D4DAE7"/>
<stop offset="1" stop-color="#8B9AAF"/>
</linearGradient>
<linearGradient id="paint1_linear_35_257" x1="149.269" y1="58" x2="149.269" y2="35" gradientUnits="userSpaceOnUse">
<stop stop-color="#6A779E"/>
<stop offset="0.122" stop-color="#6A779E"/>
<stop offset="0.677" stop-color="#D4DAE7"/>
<stop offset="1" stop-color="#8B9AAF"/>
</linearGradient>
</defs>
</svg>
