<svg width="147" height="100" viewBox="0 0 147 100" fill="none" xmlns="http://www.w3.org/2000/svg">
<path d="M8.96915 37.9377L36.2983 37.9377L36.2983 32.3477L8.96915 32.3477L8.96915 37.9377Z" fill="url(#paint0_linear_49_1327)"/>
<path d="M7.72672 42.9066L28.8447 42.9066L28.8447 27.9998L7.72671 27.9998L7.72672 42.9066Z" fill="url(#paint1_linear_49_1327)"/>
<path d="M28.224 41.6644L31.9507 41.6644L31.9507 29.2421L28.224 29.2421L28.224 41.6644Z" fill="url(#paint2_linear_49_1327)"/>
<path d="M10.2114 42.9066L7.72695 42.9066C6.73857 42.9066 5.79067 42.514 5.09177 41.8151C4.39288 41.1162 4.00025 40.1683 4.00025 39.1799L4.00024 31.7265C4.00024 30.7381 4.39288 29.7902 5.09177 29.0913C5.79067 28.3924 6.73857 27.9998 7.72695 27.9998L10.2114 27.9998L10.2114 42.9066Z" fill="url(#paint3_linear_49_1327)"/>
<g filter="url(#filter0_d_49_1327)">
<g opacity="0.502">
<path d="M27.292 40.1116L9.90069 40.1116L27.292 40.1116Z" stroke="#C8CCDA" stroke-width="0.621118" stroke-linejoin="round"/>
</g>
</g>
<g filter="url(#filter1_d_49_1327)">
<g opacity="0.502">
<path d="M27.292 33.9004L9.90069 33.9004L27.292 33.9004Z" stroke="#C8CCDA" stroke-width="0.621118" stroke-linejoin="round"/>
</g>
</g>
<g filter="url(#filter2_d_49_1327)">
<g opacity="0.502">
<path d="M27.292 37.0059L9.90069 37.0059L27.292 37.0059Z" stroke="#C8CCDA" stroke-width="0.621118" stroke-linejoin="round"/>
</g>
</g>
<g filter="url(#filter3_d_49_1327)">
<g opacity="0.502">
<path d="M27.292 30.7947L9.90069 30.7947L27.292 30.7947Z" stroke="#C8CCDA" stroke-width="0.621118" stroke-linejoin="round"/>
</g>
</g>
<path d="M35 42L35 24L98 24L98 42L35 42Z" fill="url(#paint4_linear_49_1327)"/>
<path d="M98 42L98 30L107 30L107 42L98 42Z" fill="url(#paint5_linear_49_1327)"/>
<path d="M90 42H97V73H90V42Z" fill="url(#paint6_linear_49_1327)"/>
<g filter="url(#filter4_d_49_1327)">
<path d="M88 73H99V75H88V73Z" fill="#BCC6DB"/>
</g>
<path d="M20 42H27V73H20V42Z" fill="url(#paint7_linear_49_1327)"/>
<g filter="url(#filter5_d_49_1327)">
<path d="M18 73H29V75H18V73Z" fill="#BCC6DB"/>
</g>
<g filter="url(#filter6_i_49_1327)">
<path d="M10 38H108V61H10V38Z" fill="#A9BAD0"/>
</g>
<path d="M10.5 38.5H107.5V60.5H10.5V38.5Z" stroke="#DFEDFF" stroke-miterlimit="10"/>
<g filter="url(#filter7_d_49_1327)">
<path d="M10 60H143V62H10V60Z" fill="#BCC6DB"/>
</g>
<path d="M111 41.6479H112.5C112.693 41.6479 112.881 41.6659 113.065 41.7017C113.672 40.8443 114.662 40.1184 115.5 40.1184H123V35.5296C123 34.6841 123.671 34 124.5 34H132C132.829 34 133.5 34.6841 133.5 35.5296V40.1184C134.306 40.1184 135.252 40.7875 135.861 41.6031C136.011 41.5583 136.169 41.5344 136.333 41.5344C137.253 41.5314 138 42.2932 138 43.2313V53.6845C138 54.6225 137.253 55.3843 136.333 55.3843C136.23 55.3843 136.134 55.3784 136.046 55.3634C135.51 56.3374 134.578 57.2306 133.714 57.2306H133.641L135 60H112.5L114 56.9408H114.062C113.933 56.8691 113.81 56.7855 113.689 56.6899C113.323 56.8512 112.922 56.9408 112.5 56.9408H111C109.342 56.9408 108 55.5726 108 53.8817V44.7071C108 43.0162 109.342 41.6479 111 41.6479ZM126 35.5296C125.171 35.5296 124.5 36.2137 124.5 37.0592C124.5 37.9046 125.171 38.5888 126 38.5888C126.829 38.5888 127.5 37.9046 127.5 37.0592C127.5 36.2137 126.829 35.5296 126 35.5296ZM130.5 35.5296C129.671 35.5296 129 36.2137 129 37.0592C129 37.9046 129.671 38.5888 130.5 38.5888C131.329 38.5888 132 37.9046 132 37.0592C132 36.2137 131.329 35.5296 130.5 35.5296ZM115.5 55.4142H133.5V53.8846H115.5V55.4142ZM115.5 52.3551H133.5V50.8255H115.5V52.3551ZM115.5 49.2959H133.5V47.7663H115.5V49.2959ZM115.5 46.2367H133.5V44.7071H115.5V46.2367ZM115.5 43.1775H133.5V41.6479H115.5V43.1775Z" fill="url(#paint8_linear_49_1327)"/>
<defs>
<filter id="filter0_d_49_1327" x="9.59033" y="39.801" width="18.6333" height="0.621094" filterUnits="userSpaceOnUse" color-interpolation-filters="sRGB">
<feFlood flood-opacity="0" result="BackgroundImageFix"/>
<feColorMatrix in="SourceAlpha" type="matrix" values="0 0 0 0 0 0 0 0 0 0 0 0 0 0 0 0 0 0 127 0" result="hardAlpha"/>
<feOffset dx="0.621118"/>
<feColorMatrix type="matrix" values="0 0 0 0 0.0156863 0 0 0 0 0.270588 0 0 0 0 0.380392 0 0 0 0.549 0"/>
<feBlend mode="normal" in2="BackgroundImageFix" result="effect1_dropShadow_49_1327"/>
<feBlend mode="normal" in="SourceGraphic" in2="effect1_dropShadow_49_1327" result="shape"/>
</filter>
<filter id="filter1_d_49_1327" x="9.59033" y="33.5898" width="18.6333" height="0.621094" filterUnits="userSpaceOnUse" color-interpolation-filters="sRGB">
<feFlood flood-opacity="0" result="BackgroundImageFix"/>
<feColorMatrix in="SourceAlpha" type="matrix" values="0 0 0 0 0 0 0 0 0 0 0 0 0 0 0 0 0 0 127 0" result="hardAlpha"/>
<feOffset dx="0.621118"/>
<feColorMatrix type="matrix" values="0 0 0 0 0.0156863 0 0 0 0 0.270588 0 0 0 0 0.380392 0 0 0 0.549 0"/>
<feBlend mode="normal" in2="BackgroundImageFix" result="effect1_dropShadow_49_1327"/>
<feBlend mode="normal" in="SourceGraphic" in2="effect1_dropShadow_49_1327" result="shape"/>
</filter>
<filter id="filter2_d_49_1327" x="9.59033" y="36.6953" width="18.6333" height="0.621094" filterUnits="userSpaceOnUse" color-interpolation-filters="sRGB">
<feFlood flood-opacity="0" result="BackgroundImageFix"/>
<feColorMatrix in="SourceAlpha" type="matrix" values="0 0 0 0 0 0 0 0 0 0 0 0 0 0 0 0 0 0 127 0" result="hardAlpha"/>
<feOffset dx="0.621118"/>
<feColorMatrix type="matrix" values="0 0 0 0 0.0156863 0 0 0 0 0.270588 0 0 0 0 0.380392 0 0 0 0.549 0"/>
<feBlend mode="normal" in2="BackgroundImageFix" result="effect1_dropShadow_49_1327"/>
<feBlend mode="normal" in="SourceGraphic" in2="effect1_dropShadow_49_1327" result="shape"/>
</filter>
<filter id="filter3_d_49_1327" x="9.59033" y="30.4841" width="18.6333" height="0.621094" filterUnits="userSpaceOnUse" color-interpolation-filters="sRGB">
<feFlood flood-opacity="0" result="BackgroundImageFix"/>
<feColorMatrix in="SourceAlpha" type="matrix" values="0 0 0 0 0 0 0 0 0 0 0 0 0 0 0 0 0 0 127 0" result="hardAlpha"/>
<feOffset dx="0.621118"/>
<feColorMatrix type="matrix" values="0 0 0 0 0.0156863 0 0 0 0 0.270588 0 0 0 0 0.380392 0 0 0 0.549 0"/>
<feBlend mode="normal" in2="BackgroundImageFix" result="effect1_dropShadow_49_1327"/>
<feBlend mode="normal" in="SourceGraphic" in2="effect1_dropShadow_49_1327" result="shape"/>
</filter>
<filter id="filter4_d_49_1327" x="86" y="70" width="15" height="6" filterUnits="userSpaceOnUse" color-interpolation-filters="sRGB">
<feFlood flood-opacity="0" result="BackgroundImageFix"/>
<feColorMatrix in="SourceAlpha" type="matrix" values="0 0 0 0 0 0 0 0 0 0 0 0 0 0 0 0 0 0 127 0" result="hardAlpha"/>
<feOffset dy="-1"/>
<feGaussianBlur stdDeviation="1"/>
<feComposite in2="hardAlpha" operator="out"/>
<feColorMatrix type="matrix" values="0 0 0 0 0.0156863 0 0 0 0 0.270588 0 0 0 0 0.380392 0 0 0 0.55 0"/>
<feBlend mode="normal" in2="BackgroundImageFix" result="effect1_dropShadow_49_1327"/>
<feBlend mode="normal" in="SourceGraphic" in2="effect1_dropShadow_49_1327" result="shape"/>
</filter>
<filter id="filter5_d_49_1327" x="16" y="70" width="15" height="6" filterUnits="userSpaceOnUse" color-interpolation-filters="sRGB">
<feFlood flood-opacity="0" result="BackgroundImageFix"/>
<feColorMatrix in="SourceAlpha" type="matrix" values="0 0 0 0 0 0 0 0 0 0 0 0 0 0 0 0 0 0 127 0" result="hardAlpha"/>
<feOffset dy="-1"/>
<feGaussianBlur stdDeviation="1"/>
<feComposite in2="hardAlpha" operator="out"/>
<feColorMatrix type="matrix" values="0 0 0 0 0.0156863 0 0 0 0 0.270588 0 0 0 0 0.380392 0 0 0 0.55 0"/>
<feBlend mode="normal" in2="BackgroundImageFix" result="effect1_dropShadow_49_1327"/>
<feBlend mode="normal" in="SourceGraphic" in2="effect1_dropShadow_49_1327" result="shape"/>
</filter>
<filter id="filter6_i_49_1327" x="10" y="38" width="98" height="23" filterUnits="userSpaceOnUse" color-interpolation-filters="sRGB">
<feFlood flood-opacity="0" result="BackgroundImageFix"/>
<feBlend mode="normal" in="SourceGraphic" in2="BackgroundImageFix" result="shape"/>
<feColorMatrix in="SourceAlpha" type="matrix" values="0 0 0 0 0 0 0 0 0 0 0 0 0 0 0 0 0 0 127 0" result="hardAlpha"/>
<feOffset/>
<feGaussianBlur stdDeviation="3"/>
<feComposite in2="hardAlpha" operator="arithmetic" k2="-1" k3="1"/>
<feColorMatrix type="matrix" values="0 0 0 0 0.0156863 0 0 0 0 0.270588 0 0 0 0 0.380392 0 0 0 1 0"/>
<feBlend mode="normal" in2="shape" result="effect1_innerShadow_49_1327"/>
</filter>
<filter id="filter7_d_49_1327" x="8" y="59" width="137" height="6" filterUnits="userSpaceOnUse" color-interpolation-filters="sRGB">
<feFlood flood-opacity="0" result="BackgroundImageFix"/>
<feColorMatrix in="SourceAlpha" type="matrix" values="0 0 0 0 0 0 0 0 0 0 0 0 0 0 0 0 0 0 127 0" result="hardAlpha"/>
<feOffset dy="1"/>
<feGaussianBlur stdDeviation="1"/>
<feComposite in2="hardAlpha" operator="out"/>
<feColorMatrix type="matrix" values="0 0 0 0 0.0156863 0 0 0 0 0.270588 0 0 0 0 0.380392 0 0 0 0.55 0"/>
<feBlend mode="normal" in2="BackgroundImageFix" result="effect1_dropShadow_49_1327"/>
<feBlend mode="normal" in="SourceGraphic" in2="effect1_dropShadow_49_1327" result="shape"/>
</filter>
<linearGradient id="paint0_linear_49_1327" x1="22.6337" y1="32.3477" x2="22.6337" y2="37.9377" gradientUnits="userSpaceOnUse">
<stop stop-color="#6A779E"/>
<stop offset="0.122" stop-color="#6A779E"/>
<stop offset="0.677" stop-color="#D4DAE7"/>
<stop offset="1" stop-color="#8B9AAF"/>
</linearGradient>
<linearGradient id="paint1_linear_49_1327" x1="18.2857" y1="27.9998" x2="18.2857" y2="42.9066" gradientUnits="userSpaceOnUse">
<stop stop-color="#6A779E"/>
<stop offset="0.122" stop-color="#6A779E"/>
<stop offset="0.677" stop-color="#D4DAE7"/>
<stop offset="1" stop-color="#8B9AAF"/>
</linearGradient>
<linearGradient id="paint2_linear_49_1327" x1="30.0873" y1="29.2421" x2="30.0873" y2="41.6644" gradientUnits="userSpaceOnUse">
<stop stop-color="#6A779E"/>
<stop offset="0.122" stop-color="#6A779E"/>
<stop offset="0.677" stop-color="#D4DAE7"/>
<stop offset="1" stop-color="#8B9AAF"/>
</linearGradient>
<linearGradient id="paint3_linear_49_1327" x1="7.10583" y1="27.9998" x2="7.10584" y2="42.9066" gradientUnits="userSpaceOnUse">
<stop stop-color="#6A779E"/>
<stop offset="0.122" stop-color="#6A779E"/>
<stop offset="0.677" stop-color="#D4DAE7"/>
<stop offset="1" stop-color="#8B9AAF"/>
</linearGradient>
<linearGradient id="paint4_linear_49_1327" x1="69.5949" y1="42.705" x2="69.5949" y2="23.13" gradientUnits="userSpaceOnUse">
<stop offset="0.12" stop-color="#6A779E"/>
<stop offset="0.68" stop-color="#D4DAE7"/>
<stop offset="1" stop-color="#8B9AAF"/>
</linearGradient>
<linearGradient id="paint5_linear_49_1327" x1="102.942" y1="42.47" x2="102.942" y2="29.42" gradientUnits="userSpaceOnUse">
<stop offset="0.12" stop-color="#6A779E"/>
<stop offset="0.68" stop-color="#D4DAE7"/>
<stop offset="1" stop-color="#8B9AAF"/>
</linearGradient>
<linearGradient id="paint6_linear_49_1327" x1="89.7258" y1="59.0229" x2="97.3383" y2="59.0229" gradientUnits="userSpaceOnUse">
<stop offset="0.12" stop-color="#6A779E"/>
<stop offset="0.68" stop-color="#D4DAE7"/>
<stop offset="1" stop-color="#8B9AAF"/>
</linearGradient>
<linearGradient id="paint7_linear_49_1327" x1="19.7258" y1="59.0229" x2="27.3383" y2="59.0229" gradientUnits="userSpaceOnUse">
<stop offset="0.12" stop-color="#6A779E"/>
<stop offset="0.68" stop-color="#D4DAE7"/>
<stop offset="1" stop-color="#8B9AAF"/>
</linearGradient>
<linearGradient id="paint8_linear_49_1327" x1="123" y1="60" x2="123" y2="34" gradientUnits="userSpaceOnUse">
<stop stop-color="#6A779E"/>
<stop offset="0.122" stop-color="#6A779E"/>
<stop offset="0.677" stop-color="#D4DAE7"/>
<stop offset="1" stop-color="#8B9AAF"/>
</linearGradient>
</defs>
</svg>
