<svg width="100" height="100" viewBox="0 0 100 100" fill="none" xmlns="http://www.w3.org/2000/svg">
<g clip-path="url(#clip0_85_4547)">
<g filter="url(#filter0_i_85_4547)">
<path d="M96 51H6V77.5L51 91H96V51Z" fill="#A9BAD0"/>
</g>
<path d="M95.5 51.5H6.5V77.128L51.0734 90.5H95.5V51.5Z" stroke="#DFEDFF" stroke-miterlimit="10"/>
<path d="M6 92H96V98H6V92Z" fill="url(#paint0_linear_85_4547)"/>
<g filter="url(#filter1_d_85_4547)">
<path d="M2 98H97V100H2V98Z" fill="#BCC6DB"/>
</g>
<g filter="url(#filter2_d_85_4547)">
<path d="M0 90H100V92H0V90Z" fill="#BCC6DB"/>
</g>
<path d="M63.7691 27.4939C63.3444 27.4939 63 27.185 63 26.8039L63 17.9286L73 17.9286L73 26.8033C73 26.894 72.9801 26.9839 72.9414 27.0677C72.9028 27.1516 72.8461 27.2277 72.7747 27.2919C72.7033 27.356 72.6185 27.4069 72.5252 27.4415C72.4319 27.4762 72.3319 27.494 72.2309 27.4939L72.0276 27.4939L72.0276 28.4637C72.0276 29.0362 71.511 29.5 70.8747 29.5L68.6712 29.5L68.6712 29.4988L67.3281 29.4988L67.3281 29.4994L65.1253 29.4994C64.489 29.4994 63.9724 29.0356 63.9724 28.4631L63.9724 27.4933L63.7691 27.4933L63.7691 27.4939ZM64.0706 26.7461L64.0706 18.6789L64.6702 18.6789L64.6702 26.7455L64.0706 26.7455L64.0706 26.7461ZM69.8864 26.7461L69.8864 18.6783L70.4853 18.6783L70.4853 26.7461L69.8864 26.7461ZM66.9768 18.6783L66.9768 26.7461L67.5785 26.7461L67.5785 18.6783L66.9768 18.6783ZM71.3387 26.7461L71.3388 18.6783L71.9411 18.6783L71.9411 26.7461L71.3394 26.7461L71.3387 26.7461ZM68.4333 18.6783L68.4333 26.7461L69.0322 26.7461L69.0322 18.6783L68.4333 18.6783ZM65.5237 26.7461L65.5237 18.6783L66.1233 18.6783L66.1233 26.7461L65.5237 26.7461Z" fill="url(#paint1_linear_85_4547)"/>
<path d="M67.3281 29.4071L68.6712 29.4071L68.6712 30.4433C68.6712 30.4882 68.6613 30.5328 68.6419 30.5743C68.6226 30.6159 68.5943 30.6536 68.5586 30.6854C68.5229 30.7173 68.4805 30.7425 68.4338 30.7597C68.3872 30.7769 68.3372 30.7858 68.2867 30.7858L67.7126 30.7858C67.4996 30.7858 67.3281 30.6318 67.3281 30.4433L67.3281 29.4065L67.3281 29.4071ZM73 17.9374L73 17.3689C72.9998 17.0058 72.8378 16.6576 72.5494 16.4009C72.2611 16.1442 71.8702 16.0001 71.4626 16.0001L64.5375 16.0001C64.1298 16.0001 63.7389 16.1442 63.4506 16.4009C63.1622 16.6576 63.0002 17.0058 63 17.3689L63 17.9374L73 17.9374Z" fill="url(#paint2_linear_85_4547)"/>
<g filter="url(#filter3_i_85_4547)">
<path d="M74 29H53V34H74V29Z" fill="#A9BAD0"/>
</g>
<path d="M73.5 29.5H53.5V33.5H73.5V29.5Z" stroke="#DFEDFF" stroke-miterlimit="10"/>
<path d="M37.6481 45.7058H33.8246V64.3529C33.8246 64.3529 33.6716 68.0999 36.8834 68.9411C39.1393 69.5307 46.3971 69.7058 46.8246 69.7058C47.8677 69.7058 48.354 65.8823 48.354 65.8823C48.354 65.8823 37.7246 67.5042 37.6481 63.5882C37.4952 55.6138 37.6481 45.7058 37.6481 45.7058Z" fill="url(#paint3_linear_85_4547)"/>
<g filter="url(#filter4_d_85_4547)">
<path d="M39 44.9412H33V46.9412H39V44.9412Z" fill="#BCC6DB"/>
</g>
<path d="M50 33H58V67H50V33Z" fill="url(#paint4_linear_85_4547)"/>
<g filter="url(#filter5_d_85_4547)">
<path d="M61.2941 66.6472H46.7646V68.1766H61.2941V66.6472Z" fill="#BCC6DB"/>
</g>
<g filter="url(#filter6_d_85_4547)">
<path d="M60 44H48V45H60V44Z" fill="#BCC6DB"/>
</g>
<g filter="url(#filter7_d_85_4547)">
<path d="M60 46H48V47H60V46Z" fill="#BCC6DB"/>
</g>
<path d="M51 33H49V44H51V33Z" fill="url(#paint5_linear_85_4547)"/>
<path d="M59 33H57V44H59V33Z" fill="url(#paint6_linear_85_4547)"/>
<g filter="url(#filter8_d_85_4547)">
<path d="M58.9998 71.2351H49.0586V72.7645H58.9998V71.2351Z" fill="#BCC6DB"/>
</g>
<g filter="url(#filter9_d_85_4547)">
<path d="M57.4707 70.4707H50.5884V72.0001H57.4707V70.4707Z" fill="#BCC6DB"/>
</g>
<g filter="url(#filter10_d_85_4547)">
<path d="M61.2941 69.7058H46.7646V70.4705H61.2941V69.7058Z" fill="#BCC6DB"/>
</g>
<g filter="url(#filter11_d_85_4547)">
<path d="M62.0588 68.1765H46V69.7059H62.0588V68.1765Z" fill="#BCC6DB"/>
</g>
<g filter="url(#filter12_d_85_4547)">
<path d="M50.584 72.7646L52.043 77.3529H56.018L57.4709 72.7646H50.584ZM52.716 76.761L51.8205 73.355H52.5692L53.4639 76.761H52.716ZM53.7468 76.761L53.5625 73.355H54.3112L54.4955 76.761H53.7468ZM55.5469 76.761H54.7945L55.6899 73.355H56.4386L55.5469 76.761Z" fill="#BCC6DB"/>
</g>
<g filter="url(#filter13_d_85_4547)">
<path d="M61 45H47V46H61V45Z" fill="#BCC6DB"/>
</g>
<g filter="url(#filter14_i_85_4547)">
<path d="M50.9231 16H62V34H50.9231H46V27L50.9231 16Z" fill="#A9BAD0"/>
</g>
<path d="M46.5 27.1068L51.2471 16.5H61.5V33.5H50.9231H46.5V27.1068Z" stroke="#DFEDFF" stroke-miterlimit="10"/>
</g>
<defs>
<filter id="filter0_i_85_4547" x="6" y="51" width="90" height="40" filterUnits="userSpaceOnUse" color-interpolation-filters="sRGB">
<feFlood flood-opacity="0" result="BackgroundImageFix"/>
<feBlend mode="normal" in="SourceGraphic" in2="BackgroundImageFix" result="shape"/>
<feColorMatrix in="SourceAlpha" type="matrix" values="0 0 0 0 0 0 0 0 0 0 0 0 0 0 0 0 0 0 127 0" result="hardAlpha"/>
<feOffset/>
<feGaussianBlur stdDeviation="3"/>
<feComposite in2="hardAlpha" operator="arithmetic" k2="-1" k3="1"/>
<feColorMatrix type="matrix" values="0 0 0 0 0.0156863 0 0 0 0 0.270588 0 0 0 0 0.380392 0 0 0 1 0"/>
<feBlend mode="normal" in2="shape" result="effect1_innerShadow_85_4547"/>
</filter>
<filter id="filter1_d_85_4547" x="0" y="95" width="99" height="6" filterUnits="userSpaceOnUse" color-interpolation-filters="sRGB">
<feFlood flood-opacity="0" result="BackgroundImageFix"/>
<feColorMatrix in="SourceAlpha" type="matrix" values="0 0 0 0 0 0 0 0 0 0 0 0 0 0 0 0 0 0 127 0" result="hardAlpha"/>
<feOffset dy="-1"/>
<feGaussianBlur stdDeviation="1"/>
<feComposite in2="hardAlpha" operator="out"/>
<feColorMatrix type="matrix" values="0 0 0 0 0.0156863 0 0 0 0 0.270588 0 0 0 0 0.380392 0 0 0 0.55 0"/>
<feBlend mode="normal" in2="BackgroundImageFix" result="effect1_dropShadow_85_4547"/>
<feBlend mode="normal" in="SourceGraphic" in2="effect1_dropShadow_85_4547" result="shape"/>
</filter>
<filter id="filter2_d_85_4547" x="-2" y="89" width="104" height="6" filterUnits="userSpaceOnUse" color-interpolation-filters="sRGB">
<feFlood flood-opacity="0" result="BackgroundImageFix"/>
<feColorMatrix in="SourceAlpha" type="matrix" values="0 0 0 0 0 0 0 0 0 0 0 0 0 0 0 0 0 0 127 0" result="hardAlpha"/>
<feOffset dy="1"/>
<feGaussianBlur stdDeviation="1"/>
<feComposite in2="hardAlpha" operator="out"/>
<feColorMatrix type="matrix" values="0 0 0 0 0.0156863 0 0 0 0 0.270588 0 0 0 0 0.380392 0 0 0 0.55 0"/>
<feBlend mode="normal" in2="BackgroundImageFix" result="effect1_dropShadow_85_4547"/>
<feBlend mode="normal" in="SourceGraphic" in2="effect1_dropShadow_85_4547" result="shape"/>
</filter>
<filter id="filter3_i_85_4547" x="53" y="29" width="21" height="5" filterUnits="userSpaceOnUse" color-interpolation-filters="sRGB">
<feFlood flood-opacity="0" result="BackgroundImageFix"/>
<feBlend mode="normal" in="SourceGraphic" in2="BackgroundImageFix" result="shape"/>
<feColorMatrix in="SourceAlpha" type="matrix" values="0 0 0 0 0 0 0 0 0 0 0 0 0 0 0 0 0 0 127 0" result="hardAlpha"/>
<feOffset/>
<feGaussianBlur stdDeviation="3"/>
<feComposite in2="hardAlpha" operator="arithmetic" k2="-1" k3="1"/>
<feColorMatrix type="matrix" values="0 0 0 0 0.0156863 0 0 0 0 0.270588 0 0 0 0 0.380392 0 0 0 1 0"/>
<feBlend mode="normal" in2="shape" result="effect1_innerShadow_85_4547"/>
</filter>
<filter id="filter4_d_85_4547" x="29.0784" y="42" width="13.8431" height="9.84314" filterUnits="userSpaceOnUse" color-interpolation-filters="sRGB">
<feFlood flood-opacity="0" result="BackgroundImageFix"/>
<feColorMatrix in="SourceAlpha" type="matrix" values="0 0 0 0 0 0 0 0 0 0 0 0 0 0 0 0 0 0 127 0" result="hardAlpha"/>
<feOffset dy="0.980392"/>
<feGaussianBlur stdDeviation="1.96078"/>
<feColorMatrix type="matrix" values="0 0 0 0 0.0156863 0 0 0 0 0.270588 0 0 0 0 0.380392 0 0 0 0.549 0"/>
<feBlend mode="normal" in2="BackgroundImageFix" result="effect1_dropShadow_85_4547"/>
<feBlend mode="normal" in="SourceGraphic" in2="effect1_dropShadow_85_4547" result="shape"/>
</filter>
<filter id="filter5_d_85_4547" x="42.8431" y="63.706" width="22.3724" height="9.37255" filterUnits="userSpaceOnUse" color-interpolation-filters="sRGB">
<feFlood flood-opacity="0" result="BackgroundImageFix"/>
<feColorMatrix in="SourceAlpha" type="matrix" values="0 0 0 0 0 0 0 0 0 0 0 0 0 0 0 0 0 0 127 0" result="hardAlpha"/>
<feOffset dy="0.980392"/>
<feGaussianBlur stdDeviation="1.96078"/>
<feColorMatrix type="matrix" values="0 0 0 0 0.0156863 0 0 0 0 0.270588 0 0 0 0 0.380392 0 0 0 0.549 0"/>
<feBlend mode="normal" in2="BackgroundImageFix" result="effect1_dropShadow_85_4547"/>
<feBlend mode="normal" in="SourceGraphic" in2="effect1_dropShadow_85_4547" result="shape"/>
</filter>
<filter id="filter6_d_85_4547" x="44.0784" y="41.0588" width="19.8431" height="8.84314" filterUnits="userSpaceOnUse" color-interpolation-filters="sRGB">
<feFlood flood-opacity="0" result="BackgroundImageFix"/>
<feColorMatrix in="SourceAlpha" type="matrix" values="0 0 0 0 0 0 0 0 0 0 0 0 0 0 0 0 0 0 127 0" result="hardAlpha"/>
<feOffset dy="0.980392"/>
<feGaussianBlur stdDeviation="1.96078"/>
<feColorMatrix type="matrix" values="0 0 0 0 0.0156863 0 0 0 0 0.270588 0 0 0 0 0.380392 0 0 0 0.549 0"/>
<feBlend mode="normal" in2="BackgroundImageFix" result="effect1_dropShadow_85_4547"/>
<feBlend mode="normal" in="SourceGraphic" in2="effect1_dropShadow_85_4547" result="shape"/>
</filter>
<filter id="filter7_d_85_4547" x="44.0784" y="43.0588" width="19.8431" height="8.84314" filterUnits="userSpaceOnUse" color-interpolation-filters="sRGB">
<feFlood flood-opacity="0" result="BackgroundImageFix"/>
<feColorMatrix in="SourceAlpha" type="matrix" values="0 0 0 0 0 0 0 0 0 0 0 0 0 0 0 0 0 0 127 0" result="hardAlpha"/>
<feOffset dy="0.980392"/>
<feGaussianBlur stdDeviation="1.96078"/>
<feColorMatrix type="matrix" values="0 0 0 0 0.0156863 0 0 0 0 0.270588 0 0 0 0 0.380392 0 0 0 0.549 0"/>
<feBlend mode="normal" in2="BackgroundImageFix" result="effect1_dropShadow_85_4547"/>
<feBlend mode="normal" in="SourceGraphic" in2="effect1_dropShadow_85_4547" result="shape"/>
</filter>
<filter id="filter8_d_85_4547" x="45.137" y="68.2939" width="17.7845" height="9.37255" filterUnits="userSpaceOnUse" color-interpolation-filters="sRGB">
<feFlood flood-opacity="0" result="BackgroundImageFix"/>
<feColorMatrix in="SourceAlpha" type="matrix" values="0 0 0 0 0 0 0 0 0 0 0 0 0 0 0 0 0 0 127 0" result="hardAlpha"/>
<feOffset dy="0.980392"/>
<feGaussianBlur stdDeviation="1.96078"/>
<feColorMatrix type="matrix" values="0 0 0 0 0.0156863 0 0 0 0 0.270588 0 0 0 0 0.380392 0 0 0 0.549 0"/>
<feBlend mode="normal" in2="BackgroundImageFix" result="effect1_dropShadow_85_4547"/>
<feBlend mode="normal" in="SourceGraphic" in2="effect1_dropShadow_85_4547" result="shape"/>
</filter>
<filter id="filter9_d_85_4547" x="46.6668" y="67.5295" width="14.7255" height="9.37255" filterUnits="userSpaceOnUse" color-interpolation-filters="sRGB">
<feFlood flood-opacity="0" result="BackgroundImageFix"/>
<feColorMatrix in="SourceAlpha" type="matrix" values="0 0 0 0 0 0 0 0 0 0 0 0 0 0 0 0 0 0 127 0" result="hardAlpha"/>
<feOffset dy="0.980392"/>
<feGaussianBlur stdDeviation="1.96078"/>
<feColorMatrix type="matrix" values="0 0 0 0 0.0156863 0 0 0 0 0.270588 0 0 0 0 0.380392 0 0 0 0.549 0"/>
<feBlend mode="normal" in2="BackgroundImageFix" result="effect1_dropShadow_85_4547"/>
<feBlend mode="normal" in="SourceGraphic" in2="effect1_dropShadow_85_4547" result="shape"/>
</filter>
<filter id="filter10_d_85_4547" x="42.8431" y="66.7646" width="22.3724" height="8.60778" filterUnits="userSpaceOnUse" color-interpolation-filters="sRGB">
<feFlood flood-opacity="0" result="BackgroundImageFix"/>
<feColorMatrix in="SourceAlpha" type="matrix" values="0 0 0 0 0 0 0 0 0 0 0 0 0 0 0 0 0 0 127 0" result="hardAlpha"/>
<feOffset dy="0.980392"/>
<feGaussianBlur stdDeviation="1.96078"/>
<feColorMatrix type="matrix" values="0 0 0 0 0.0156863 0 0 0 0 0.270588 0 0 0 0 0.380392 0 0 0 0.549 0"/>
<feBlend mode="normal" in2="BackgroundImageFix" result="effect1_dropShadow_85_4547"/>
<feBlend mode="normal" in="SourceGraphic" in2="effect1_dropShadow_85_4547" result="shape"/>
</filter>
<filter id="filter11_d_85_4547" x="42.0784" y="65.2353" width="23.9017" height="9.37255" filterUnits="userSpaceOnUse" color-interpolation-filters="sRGB">
<feFlood flood-opacity="0" result="BackgroundImageFix"/>
<feColorMatrix in="SourceAlpha" type="matrix" values="0 0 0 0 0 0 0 0 0 0 0 0 0 0 0 0 0 0 127 0" result="hardAlpha"/>
<feOffset dy="0.980392"/>
<feGaussianBlur stdDeviation="1.96078"/>
<feColorMatrix type="matrix" values="0 0 0 0 0.0156863 0 0 0 0 0.270588 0 0 0 0 0.380392 0 0 0 0.549 0"/>
<feBlend mode="normal" in2="BackgroundImageFix" result="effect1_dropShadow_85_4547"/>
<feBlend mode="normal" in="SourceGraphic" in2="effect1_dropShadow_85_4547" result="shape"/>
</filter>
<filter id="filter12_d_85_4547" x="46.6624" y="69.8235" width="14.7299" height="12.4314" filterUnits="userSpaceOnUse" color-interpolation-filters="sRGB">
<feFlood flood-opacity="0" result="BackgroundImageFix"/>
<feColorMatrix in="SourceAlpha" type="matrix" values="0 0 0 0 0 0 0 0 0 0 0 0 0 0 0 0 0 0 127 0" result="hardAlpha"/>
<feOffset dy="0.980392"/>
<feGaussianBlur stdDeviation="1.96078"/>
<feColorMatrix type="matrix" values="0 0 0 0 0.0156863 0 0 0 0 0.270588 0 0 0 0 0.380392 0 0 0 0.549 0"/>
<feBlend mode="normal" in2="BackgroundImageFix" result="effect1_dropShadow_85_4547"/>
<feBlend mode="normal" in="SourceGraphic" in2="effect1_dropShadow_85_4547" result="shape"/>
</filter>
<filter id="filter13_d_85_4547" x="43.0784" y="42.0588" width="21.8431" height="8.84314" filterUnits="userSpaceOnUse" color-interpolation-filters="sRGB">
<feFlood flood-opacity="0" result="BackgroundImageFix"/>
<feColorMatrix in="SourceAlpha" type="matrix" values="0 0 0 0 0 0 0 0 0 0 0 0 0 0 0 0 0 0 127 0" result="hardAlpha"/>
<feOffset dy="0.980392"/>
<feGaussianBlur stdDeviation="1.96078"/>
<feColorMatrix type="matrix" values="0 0 0 0 0.0156863 0 0 0 0 0.270588 0 0 0 0 0.380392 0 0 0 0.549 0"/>
<feBlend mode="normal" in2="BackgroundImageFix" result="effect1_dropShadow_85_4547"/>
<feBlend mode="normal" in="SourceGraphic" in2="effect1_dropShadow_85_4547" result="shape"/>
</filter>
<filter id="filter14_i_85_4547" x="46" y="16" width="16" height="18" filterUnits="userSpaceOnUse" color-interpolation-filters="sRGB">
<feFlood flood-opacity="0" result="BackgroundImageFix"/>
<feBlend mode="normal" in="SourceGraphic" in2="BackgroundImageFix" result="shape"/>
<feColorMatrix in="SourceAlpha" type="matrix" values="0 0 0 0 0 0 0 0 0 0 0 0 0 0 0 0 0 0 127 0" result="hardAlpha"/>
<feOffset/>
<feGaussianBlur stdDeviation="3"/>
<feComposite in2="hardAlpha" operator="arithmetic" k2="-1" k3="1"/>
<feColorMatrix type="matrix" values="0 0 0 0 0.0156863 0 0 0 0 0.270588 0 0 0 0 0.380392 0 0 0 1 0"/>
<feBlend mode="normal" in2="shape" result="effect1_innerShadow_85_4547"/>
</filter>
<linearGradient id="paint0_linear_85_4547" x1="2.47495" y1="95.2948" x2="100.35" y2="95.2947" gradientUnits="userSpaceOnUse">
<stop offset="0.12" stop-color="#6A779E"/>
<stop offset="0.68" stop-color="#D4DAE7"/>
<stop offset="1" stop-color="#8B9AAF"/>
</linearGradient>
<linearGradient id="paint1_linear_85_4547" x1="73" y1="23.7143" x2="63" y2="23.7143" gradientUnits="userSpaceOnUse">
<stop stop-color="#6A779E"/>
<stop offset="0.122" stop-color="#6A779E"/>
<stop offset="0.677" stop-color="#D4DAE7"/>
<stop offset="1" stop-color="#8B9AAF"/>
</linearGradient>
<linearGradient id="paint2_linear_85_4547" x1="73" y1="23.3929" x2="63" y2="23.3929" gradientUnits="userSpaceOnUse">
<stop stop-color="#6A779E"/>
<stop offset="0.122" stop-color="#6A779E"/>
<stop offset="0.677" stop-color="#D4DAE7"/>
<stop offset="1" stop-color="#8B9AAF"/>
</linearGradient>
<linearGradient id="paint3_linear_85_4547" x1="48.354" y1="50.2058" x2="33.8234" y2="50.2058" gradientUnits="userSpaceOnUse">
<stop stop-color="#6A779E"/>
<stop offset="0.384" stop-color="#7582AB"/>
<stop offset="0.659" stop-color="#6A779E"/>
<stop offset="0.878" stop-color="#D4DAE7"/>
<stop offset="1" stop-color="#8B9AAF"/>
</linearGradient>
<linearGradient id="paint4_linear_85_4547" x1="49.6867" y1="51.6703" x2="58.3867" y2="51.6703" gradientUnits="userSpaceOnUse">
<stop offset="0.12" stop-color="#6A779E"/>
<stop offset="0.68" stop-color="#D4DAE7"/>
<stop offset="1" stop-color="#8B9AAF"/>
</linearGradient>
<linearGradient id="paint5_linear_85_4547" x1="49" y1="38.5" x2="51" y2="38.5" gradientUnits="userSpaceOnUse">
<stop stop-color="#6A779E"/>
<stop offset="0.122" stop-color="#6A779E"/>
<stop offset="0.677" stop-color="#D4DAE7"/>
<stop offset="1" stop-color="#8B9AAF"/>
</linearGradient>
<linearGradient id="paint6_linear_85_4547" x1="57" y1="38.5" x2="59" y2="38.5" gradientUnits="userSpaceOnUse">
<stop stop-color="#6A779E"/>
<stop offset="0.122" stop-color="#6A779E"/>
<stop offset="0.677" stop-color="#D4DAE7"/>
<stop offset="1" stop-color="#8B9AAF"/>
</linearGradient>
<clipPath id="clip0_85_4547">
<rect width="100" height="100" fill="white"/>
</clipPath>
</defs>
</svg>
