<svg width="100" height="100" viewBox="0 0 100 100" fill="none" xmlns="http://www.w3.org/2000/svg">
<g clip-path="url(#clip0_7_2)">
<path d="M6 86H96V98H6V86Z" fill="url(#paint0_linear_7_2)"/>
<g filter="url(#filter0_d_7_2)">
<path d="M2 98H97V100H2V98Z" fill="#BCC6DB"/>
</g>
<g filter="url(#filter1_d_7_2)">
<path d="M0 84H100V86H0V84Z" fill="#BCC6DB"/>
</g>
<path d="M29 72H37V83H29V72Z" fill="url(#paint1_linear_7_2)"/>
<path d="M27 82H40V84H27V82Z" fill="#BCC6DB"/>
<path d="M67 66H75V84H67V66Z" fill="url(#paint2_linear_7_2)"/>
<path d="M65 82H77V84H65V82Z" fill="#BCC6DB"/>
<path d="M9 65H53V77H9V65Z" fill="url(#paint3_linear_7_2)"/>
<g filter="url(#filter2_d_7_2)">
<rect x="6" y="79" width="16" height="4" rx="2" transform="rotate(-90 6 79)" fill="#BCC6DB"/>
</g>
<path d="M69 4H81V49H69V4Z" fill="url(#paint4_linear_7_2)"/>
<g filter="url(#filter3_d_7_2)">
<rect x="67" width="16" height="4" rx="2" fill="#BCC6DB"/>
</g>
<g filter="url(#filter4_i_7_2)">
<path d="M53 21C58.5379 21 63.9513 22.6421 68.5559 25.7188C73.1605 28.7955 76.7494 33.1685 78.8687 38.2848C80.9879 43.4012 81.5423 49.031 80.462 54.4625C79.3816 59.894 76.7149 64.8831 72.799 68.799C68.8832 72.7148 63.894 75.3816 58.4626 76.462C53.0311 77.5424 47.4012 76.9879 42.2849 74.8686C37.1686 72.7494 32.7955 69.1605 29.7188 64.5559C26.6421 59.9514 25 54.5379 25 49C25 41.5739 27.9499 34.452 33.201 29.201C38.452 23.9499 45.5739 21 53 21Z" fill="#C8D0DD"/>
</g>
<g filter="url(#filter5_i_7_2)">
<path d="M53 29C56.9556 29 60.8225 30.173 64.1115 32.3706C67.4004 34.5682 69.9639 37.6918 71.4776 41.3463C72.9914 45.0008 73.3874 49.0221 72.6157 52.9017C71.844 56.7813 69.9391 60.345 67.1421 63.1421C64.345 65.9391 60.7813 67.844 56.9017 68.6157C53.0221 69.3874 49.0008 68.9913 45.3463 67.4776C41.6918 65.9638 38.5682 63.4004 36.3706 60.1114C34.173 56.8224 33 52.9556 33 49C33 43.6957 35.1072 38.6086 38.8579 34.8578C42.6087 31.1071 47.6957 29 53 29Z" fill="#6A779E"/>
</g>
<path d="M53 52.6326C52.7863 52.6326 52.5726 52.6132 52.359 52.5743C52.2424 53.3708 51.9122 54.2838 51.2323 55.2357C48.435 59.5287 45.1326 65.1622 50.0473 65.8421H50.1056C55.8556 66.7745 62.9654 63.5887 59.0997 55.9738C57.9924 53.6622 56.8851 52.1664 55.9916 51.0591C55.3505 52.011 54.2432 52.6326 53 52.6326ZM49.3674 49C49.3674 48.7863 49.3868 48.5726 49.4257 48.359C48.6098 48.2424 47.7162 47.9122 46.7643 47.2323C42.4713 44.435 36.8378 41.1326 36.1579 46.0473V46.1056C35.2255 51.8556 38.4113 58.9654 46.0262 55.0997C48.3378 53.9924 49.8336 52.8851 50.9409 51.9916C49.989 51.3505 49.3674 50.2432 49.3674 49ZM53 45.3674C53.2137 45.3674 53.4274 45.3868 53.6411 45.4257C53.7576 44.6098 54.0878 43.7162 54.7677 42.7643C57.565 38.4713 60.8674 32.8378 55.9527 32.1579H55.8944C50.1444 31.2255 43.0346 34.4113 46.9003 42.0262C48.0076 44.3378 49.1149 45.8336 50.0084 46.9409C50.6495 45.989 51.7568 45.3674 53 45.3674ZM59.9738 42.9003C57.6622 44.0076 56.1664 45.1149 55.0591 46.0084C56.011 46.6689 56.6326 47.7568 56.6326 49C56.6326 49.2137 56.6132 49.4274 56.5743 49.6411C57.3902 49.7576 58.2838 50.0878 59.2357 50.7677C63.5287 53.565 69.1622 56.8674 69.8421 51.9527V51.8944C70.7745 46.1444 67.5887 39.0346 59.9738 42.9003ZM54.8454 49C54.8454 50.0101 54.0101 50.8454 53 50.8454C51.9704 50.8454 51.1546 50.0101 51.1546 49C51.1546 47.9704 51.9899 47.1546 53 47.1546C54.0296 47.1546 54.8454 47.9899 54.8454 49Z" fill="#ECECEC"/>
</g>
<defs>
<filter id="filter0_d_7_2" x="0" y="95" width="99" height="6" filterUnits="userSpaceOnUse" color-interpolation-filters="sRGB">
<feFlood flood-opacity="0" result="BackgroundImageFix"/>
<feColorMatrix in="SourceAlpha" type="matrix" values="0 0 0 0 0 0 0 0 0 0 0 0 0 0 0 0 0 0 127 0" result="hardAlpha"/>
<feOffset dy="-1"/>
<feGaussianBlur stdDeviation="1"/>
<feComposite in2="hardAlpha" operator="out"/>
<feColorMatrix type="matrix" values="0 0 0 0 0.0156863 0 0 0 0 0.270588 0 0 0 0 0.380392 0 0 0 0.55 0"/>
<feBlend mode="normal" in2="BackgroundImageFix" result="effect1_dropShadow_7_2"/>
<feBlend mode="normal" in="SourceGraphic" in2="effect1_dropShadow_7_2" result="shape"/>
</filter>
<filter id="filter1_d_7_2" x="-2" y="83" width="104" height="6" filterUnits="userSpaceOnUse" color-interpolation-filters="sRGB">
<feFlood flood-opacity="0" result="BackgroundImageFix"/>
<feColorMatrix in="SourceAlpha" type="matrix" values="0 0 0 0 0 0 0 0 0 0 0 0 0 0 0 0 0 0 127 0" result="hardAlpha"/>
<feOffset dy="1"/>
<feGaussianBlur stdDeviation="1"/>
<feComposite in2="hardAlpha" operator="out"/>
<feColorMatrix type="matrix" values="0 0 0 0 0.0156863 0 0 0 0 0.270588 0 0 0 0 0.380392 0 0 0 0.55 0"/>
<feBlend mode="normal" in2="BackgroundImageFix" result="effect1_dropShadow_7_2"/>
<feBlend mode="normal" in="SourceGraphic" in2="effect1_dropShadow_7_2" result="shape"/>
</filter>
<filter id="filter2_d_7_2" x="4" y="62" width="8" height="20" filterUnits="userSpaceOnUse" color-interpolation-filters="sRGB">
<feFlood flood-opacity="0" result="BackgroundImageFix"/>
<feColorMatrix in="SourceAlpha" type="matrix" values="0 0 0 0 0 0 0 0 0 0 0 0 0 0 0 0 0 0 127 0" result="hardAlpha"/>
<feOffset dy="1"/>
<feGaussianBlur stdDeviation="1"/>
<feComposite in2="hardAlpha" operator="out"/>
<feColorMatrix type="matrix" values="0 0 0 0 0.0156863 0 0 0 0 0.270588 0 0 0 0 0.380392 0 0 0 0.55 0"/>
<feBlend mode="normal" in2="BackgroundImageFix" result="effect1_dropShadow_7_2"/>
<feBlend mode="normal" in="SourceGraphic" in2="effect1_dropShadow_7_2" result="shape"/>
</filter>
<filter id="filter3_d_7_2" x="65" y="-1" width="20" height="8" filterUnits="userSpaceOnUse" color-interpolation-filters="sRGB">
<feFlood flood-opacity="0" result="BackgroundImageFix"/>
<feColorMatrix in="SourceAlpha" type="matrix" values="0 0 0 0 0 0 0 0 0 0 0 0 0 0 0 0 0 0 127 0" result="hardAlpha"/>
<feOffset dy="1"/>
<feGaussianBlur stdDeviation="1"/>
<feComposite in2="hardAlpha" operator="out"/>
<feColorMatrix type="matrix" values="0 0 0 0 0.0156863 0 0 0 0 0.270588 0 0 0 0 0.380392 0 0 0 0.55 0"/>
<feBlend mode="normal" in2="BackgroundImageFix" result="effect1_dropShadow_7_2"/>
<feBlend mode="normal" in="SourceGraphic" in2="effect1_dropShadow_7_2" result="shape"/>
</filter>
<filter id="filter4_i_7_2" x="25" y="21" width="56" height="56" filterUnits="userSpaceOnUse" color-interpolation-filters="sRGB">
<feFlood flood-opacity="0" result="BackgroundImageFix"/>
<feBlend mode="normal" in="SourceGraphic" in2="BackgroundImageFix" result="shape"/>
<feColorMatrix in="SourceAlpha" type="matrix" values="0 0 0 0 0 0 0 0 0 0 0 0 0 0 0 0 0 0 127 0" result="hardAlpha"/>
<feOffset/>
<feGaussianBlur stdDeviation="5"/>
<feComposite in2="hardAlpha" operator="arithmetic" k2="-1" k3="1"/>
<feColorMatrix type="matrix" values="0 0 0 0 0.576471 0 0 0 0 0.619608 0 0 0 0 0.741176 0 0 0 1 0"/>
<feBlend mode="normal" in2="shape" result="effect1_innerShadow_7_2"/>
</filter>
<filter id="filter5_i_7_2" x="33" y="29" width="40" height="40" filterUnits="userSpaceOnUse" color-interpolation-filters="sRGB">
<feFlood flood-opacity="0" result="BackgroundImageFix"/>
<feBlend mode="normal" in="SourceGraphic" in2="BackgroundImageFix" result="shape"/>
<feColorMatrix in="SourceAlpha" type="matrix" values="0 0 0 0 0 0 0 0 0 0 0 0 0 0 0 0 0 0 127 0" result="hardAlpha"/>
<feOffset/>
<feGaussianBlur stdDeviation="3"/>
<feComposite in2="hardAlpha" operator="arithmetic" k2="-1" k3="1"/>
<feColorMatrix type="matrix" values="0 0 0 0 0.0156863 0 0 0 0 0.270588 0 0 0 0 0.380392 0 0 0 0.55 0"/>
<feBlend mode="normal" in2="shape" result="effect1_innerShadow_7_2"/>
</filter>
<linearGradient id="paint0_linear_7_2" x1="2.47495" y1="92.5895" x2="100.35" y2="92.5895" gradientUnits="userSpaceOnUse">
<stop offset="0.12" stop-color="#6A779E"/>
<stop offset="0.68" stop-color="#D4DAE7"/>
<stop offset="1" stop-color="#8B9AAF"/>
</linearGradient>
<linearGradient id="paint1_linear_7_2" x1="28.6867" y1="78.0404" x2="37.3867" y2="78.0404" gradientUnits="userSpaceOnUse">
<stop offset="0.12" stop-color="#6A779E"/>
<stop offset="0.68" stop-color="#D4DAE7"/>
<stop offset="1" stop-color="#8B9AAF"/>
</linearGradient>
<linearGradient id="paint2_linear_7_2" x1="66.6867" y1="75.8843" x2="75.3867" y2="75.8843" gradientUnits="userSpaceOnUse">
<stop offset="0.12" stop-color="#6A779E"/>
<stop offset="0.68" stop-color="#D4DAE7"/>
<stop offset="1" stop-color="#8B9AAF"/>
</linearGradient>
<linearGradient id="paint3_linear_7_2" x1="29" y1="65" x2="29" y2="77" gradientUnits="userSpaceOnUse">
<stop offset="0.12" stop-color="#6A779E"/>
<stop offset="0.68" stop-color="#D4DAE7"/>
<stop offset="1" stop-color="#8B9AAF"/>
</linearGradient>
<linearGradient id="paint4_linear_7_2" x1="68.53" y1="28.7107" x2="81.58" y2="28.7107" gradientUnits="userSpaceOnUse">
<stop offset="0.12" stop-color="#6A779E"/>
<stop offset="0.68" stop-color="#D4DAE7"/>
<stop offset="1" stop-color="#8B9AAF"/>
</linearGradient>
<clipPath id="clip0_7_2">
<rect width="100" height="100" fill="white"/>
</clipPath>
</defs>
</svg>
