<svg width="307" height="100" viewBox="0 0 307 100" fill="none" xmlns="http://www.w3.org/2000/svg">
<g clip-path="url(#clip0_64_16)">
<path d="M49.6897 86.5V97.5H9.5V75.5H66.7638L49.9237 86.0766L49.6897 86.2236V86.5Z" fill="#A9BAD0" stroke="#DFEDFF" stroke-miterlimit="10"/>
<path d="M296 96H68V98H296V96Z" fill="#BCC6DB"/>
<path d="M70 84H68V96H70V84Z" fill="#6A779E"/>
<path d="M88.75 84H86.75V96H88.75V84Z" fill="#6A779E"/>
<path d="M107.5 84H105.5V96H107.5V84Z" fill="#6A779E"/>
<path d="M126.25 84H124.25V96H126.25V84Z" fill="#6A779E"/>
<path d="M145 84H143V96H145V84Z" fill="#6A779E"/>
<path d="M164.75 84H161.75V96H164.75V84Z" fill="#6A779E"/>
<path d="M183.5 84H181.5V96H183.5V84Z" fill="#6A779E"/>
<path d="M202.25 84H200.25V96H202.25V84Z" fill="#6A779E"/>
<path d="M221 84H219V96H221V84Z" fill="#6A779E"/>
<path d="M239.75 84H237.75V96H239.75V84Z" fill="#6A779E"/>
<path d="M258.5 84H256.5V96H258.5V84Z" fill="#6A779E"/>
<path d="M277.25 84H275.25V96H277.25V84Z" fill="#6A779E"/>
<path d="M296 84H294V96H296V84Z" fill="#6A779E"/>
<g filter="url(#filter0_i_64_16)">
<path d="M296 3L246.5 3L190.5 22L135 25.5L77.5 27.5H26L9 49.5V81L62 81.5L68 91H177H296V3Z" fill="#A9BAD0"/>
</g>
<path d="M190.661 22.4735L190.598 22.4948L190.531 22.499L135.031 25.999L135.031 25.9992L135.017 25.9997L77.5174 27.9997L77.5087 28H77.5H26.2455L9.5 49.6707V80.5047L62.0047 81L62.2772 81.0026L62.4227 81.233L68.2756 90.5H177H295.5V3.5H246.583L190.661 22.4735Z" stroke="#DFEDFF" stroke-miterlimit="10"/>
<path d="M279.5 50.5H276.5V64.5H279.5V50.5Z" fill="#A9BAD0" stroke="#DFEDFF" stroke-miterlimit="10"/>
<path d="M287.5 50.5H284.5V64.5H287.5V50.5Z" fill="#A9BAD0" stroke="#DFEDFF" stroke-miterlimit="10"/>
<g filter="url(#filter1_d_64_16)">
<path d="M274 50H290V52H274V50Z" fill="#D1DBEE"/>
</g>
<path d="M184.5 67.5H181.5V81.5H184.5V67.5Z" fill="#A9BAD0" stroke="#DFEDFF" stroke-miterlimit="10"/>
<path d="M192.5 67.5H189.5V81.5H192.5V67.5Z" fill="#A9BAD0" stroke="#DFEDFF" stroke-miterlimit="10"/>
<path d="M184.5 67.5H181.5V81.5H184.5V67.5Z" fill="#A9BAD0" stroke="#DFEDFF" stroke-miterlimit="10"/>
<path d="M192.5 67.5H189.5V81.5H192.5V67.5Z" fill="#A9BAD0" stroke="#DFEDFF" stroke-miterlimit="10"/>
<g filter="url(#filter2_d_64_16)">
<path d="M179 67H195V69H179V67Z" fill="#D1DBEE"/>
</g>
<path d="M108.5 75.5H105.5V89.5H108.5V75.5Z" fill="#A9BAD0" stroke="#DFEDFF" stroke-miterlimit="10"/>
<path d="M116.5 75.5H113.5V89.5H116.5V75.5Z" fill="#A9BAD0" stroke="#DFEDFF" stroke-miterlimit="10"/>
<path d="M108.5 75.5H105.5V89.5H108.5V75.5Z" fill="#A9BAD0" stroke="#DFEDFF" stroke-miterlimit="10"/>
<path d="M116.5 75.5H113.5V89.5H116.5V75.5Z" fill="#A9BAD0" stroke="#DFEDFF" stroke-miterlimit="10"/>
<g filter="url(#filter3_d_64_16)">
<path d="M103 75H119V77H103V75Z" fill="#D1DBEE"/>
</g>
<path d="M89.5 77.5H86.5V90.5H89.5V77.5Z" fill="#A9BAD0" stroke="#DFEDFF" stroke-miterlimit="10"/>
<path d="M97.5 77.5H94.5V90.5H97.5V77.5Z" fill="#A9BAD0" stroke="#DFEDFF" stroke-miterlimit="10"/>
<path d="M89.5 77.5H86.5V88.5H89.5V77.5Z" fill="#A9BAD0" stroke="#DFEDFF" stroke-miterlimit="10"/>
<path d="M97.5 77.5H94.5V88.5H97.5V77.5Z" fill="#A9BAD0" stroke="#DFEDFF" stroke-miterlimit="10"/>
<g filter="url(#filter4_d_64_16)">
<path d="M84 77H100V79H84V77Z" fill="#D1DBEE"/>
</g>
<path d="M70.5 77.5H67.5V90.5H70.5V77.5Z" fill="#A9BAD0" stroke="#DFEDFF" stroke-miterlimit="10"/>
<path d="M78.5 77.5H75.5V90.5H78.5V77.5Z" fill="#A9BAD0" stroke="#DFEDFF" stroke-miterlimit="10"/>
<path d="M70.5 77.5H67.5V88.5H70.5V77.5Z" fill="#A9BAD0" stroke="#DFEDFF" stroke-miterlimit="10"/>
<path d="M78.5 77.5H75.5V88.5H78.5V77.5Z" fill="#A9BAD0" stroke="#DFEDFF" stroke-miterlimit="10"/>
<g filter="url(#filter5_d_64_16)">
<path d="M65 77H81V79H65V77Z" fill="#D1DBEE"/>
</g>
<path d="M165.5 69.5H162.5V83.5H165.5V69.5Z" fill="#A9BAD0" stroke="#DFEDFF" stroke-miterlimit="10"/>
<path d="M173.5 69.5H170.5V83.5H173.5V69.5Z" fill="#A9BAD0" stroke="#DFEDFF" stroke-miterlimit="10"/>
<path d="M165.5 69.5H162.5V83.5H165.5V69.5Z" fill="#A9BAD0" stroke="#DFEDFF" stroke-miterlimit="10"/>
<path d="M173.5 69.5H170.5V83.5H173.5V69.5Z" fill="#A9BAD0" stroke="#DFEDFF" stroke-miterlimit="10"/>
<g filter="url(#filter6_d_64_16)">
<path d="M160 69H176V71H160V69Z" fill="#D1DBEE"/>
</g>
<path d="M146.5 71.5H143.5V85.5H146.5V71.5Z" fill="#A9BAD0" stroke="#DFEDFF" stroke-miterlimit="10"/>
<path d="M154.5 71.5H151.5V85.5H154.5V71.5Z" fill="#A9BAD0" stroke="#DFEDFF" stroke-miterlimit="10"/>
<path d="M146.5 71.5H143.5V85.5H146.5V71.5Z" fill="#A9BAD0" stroke="#DFEDFF" stroke-miterlimit="10"/>
<path d="M154.5 71.5H151.5V85.5H154.5V71.5Z" fill="#A9BAD0" stroke="#DFEDFF" stroke-miterlimit="10"/>
<g filter="url(#filter7_d_64_16)">
<path d="M141 71H157V73H141V71Z" fill="#D1DBEE"/>
</g>
<path d="M127.5 73.5H124.5V87.5H127.5V73.5Z" fill="#A9BAD0" stroke="#DFEDFF" stroke-miterlimit="10"/>
<path d="M135.5 73.5H132.5V87.5H135.5V73.5Z" fill="#A9BAD0" stroke="#DFEDFF" stroke-miterlimit="10"/>
<path d="M127.5 73.5H124.5V87.5H127.5V73.5Z" fill="#A9BAD0" stroke="#DFEDFF" stroke-miterlimit="10"/>
<path d="M135.5 73.5H132.5V87.5H135.5V73.5Z" fill="#A9BAD0" stroke="#DFEDFF" stroke-miterlimit="10"/>
<g filter="url(#filter8_d_64_16)">
<path d="M122 73H138V75H122V73Z" fill="#D1DBEE"/>
</g>
<g filter="url(#filter9_i_64_16)">
<path d="M194 75H121V91H194V75Z" fill="#ECECEC"/>
</g>
<path d="M193.5 75.5H121.5V90.5H193.5V75.5Z" stroke="#DFEDFF" stroke-miterlimit="10"/>
<g filter="url(#filter10_i_64_16)">
<path d="M123 84H67V91H123V84Z" fill="#ECECEC"/>
</g>
<path d="M122.5 84.5H67.5V90.5H122.5V84.5Z" stroke="#DFEDFF" stroke-miterlimit="10"/>
<path d="M260.5 54.5H257.5V68.5H260.5V54.5Z" fill="#A9BAD0" stroke="#DFEDFF" stroke-miterlimit="10"/>
<path d="M268.5 54.5H265.5V68.5H268.5V54.5Z" fill="#A9BAD0" stroke="#DFEDFF" stroke-miterlimit="10"/>
<g filter="url(#filter11_d_64_16)">
<path d="M255 54H271V56H255V54Z" fill="#D1DBEE"/>
</g>
<path d="M241.5 57.5H238.5V71.5H241.5V57.5Z" fill="#A9BAD0" stroke="#DFEDFF" stroke-miterlimit="10"/>
<path d="M249.5 57.5H246.5V71.5H249.5V57.5Z" fill="#A9BAD0" stroke="#DFEDFF" stroke-miterlimit="10"/>
<g filter="url(#filter12_d_64_16)">
<path d="M236 57H252V59H236V57Z" fill="#D1DBEE"/>
</g>
<path d="M222.5 61.5H219.5V75.5H222.5V61.5Z" fill="#A9BAD0" stroke="#DFEDFF" stroke-miterlimit="10"/>
<path d="M230.5 61.5H227.5V75.5H230.5V61.5Z" fill="#A9BAD0" stroke="#DFEDFF" stroke-miterlimit="10"/>
<g filter="url(#filter13_d_64_16)">
<path d="M217 61H233V63H217V61Z" fill="#D1DBEE"/>
</g>
<g filter="url(#filter14_i_64_16)">
<path d="M227 64H192V91H227V64Z" fill="#ECECEC"/>
</g>
<path d="M226.5 64.5H192.5V90.5H226.5V64.5Z" stroke="#DFEDFF" stroke-miterlimit="10"/>
<g filter="url(#filter15_i_64_16)">
<path d="M262 64H226V91H262V64Z" fill="#ECECEC"/>
</g>
<path d="M261.5 64.5H226.5V90.5H261.5V64.5Z" stroke="#DFEDFF" stroke-miterlimit="10"/>
<g filter="url(#filter16_i_64_16)">
<path d="M296 64H261V91H296V64Z" fill="#ECECEC"/>
</g>
<path d="M295.5 64.5H261.5V90.5H295.5V64.5Z" stroke="#DFEDFF" stroke-miterlimit="10"/>
<path d="M296 89H68V91H296V89Z" fill="#BCC6DB"/>
<g filter="url(#filter17_d_64_16)">
<path d="M7 96H52V98H7V96Z" fill="#BCC6DB"/>
</g>
<g filter="url(#filter18_d_64_16)">
<path d="M10.5 87H48.5V89H10.5V87Z" fill="#D1DBEE"/>
</g>
<path d="M61 29L61 81L63 81L63 29L61 29Z" fill="#DFEDFF"/>
<path d="M121 26L121 89L123 89L123 26L121 26Z" fill="#DFEDFF"/>
<path d="M192 22L192 89L194 89L194 22L192 22Z" fill="#DFEDFF"/>
<g filter="url(#filter19_d_64_16)">
<path d="M218.073 53.6804C218.267 53.6804 218.461 53.5361 218.543 53.2784C218.676 52.7423 218.89 52.2268 219.227 51.5979C219.37 51.3814 219.319 51.0722 219.166 50.8969C218.87 50.3196 218.931 49.6804 219.34 49.268C219.779 48.8247 220.504 48.7629 220.995 49.134C221.056 49.1959 221.107 49.2268 221.23 49.2268H221.598L221.649 49.1959C222.119 48.8969 222.619 48.6907 223.273 48.5155C223.317 48.5065 223.359 48.489 223.396 48.4639H223.478L223.549 48.3918C223.611 48.3608 223.662 48.3101 223.692 48.2474C223.743 48.1856 223.764 48.134 223.764 48.0309C223.886 47.4227 224.397 47 225.041 47C225.685 47 226.195 47.4227 226.328 48.0825V48.1856L226.379 48.2268V48.2784L226.502 48.4021C226.553 48.5052 226.655 48.567 226.757 48.567H226.778C227.278 48.701 227.789 48.9072 228.402 49.2474L228.453 49.2784H228.903L228.954 49.2268H228.985L229.046 49.1856C229.536 48.8144 230.262 48.8763 230.701 49.3196C231.12 49.7835 231.171 50.4227 230.834 50.9897C230.701 51.1443 230.67 51.3608 230.752 51.6082C231.11 52.2783 231.324 52.7938 231.447 53.3093C231.529 53.5773 231.713 53.7216 231.937 53.732C232.571 53.8763 233 54.4021 233 55.0206C233 55.6701 232.581 56.1856 231.927 56.3196C231.713 56.3196 231.519 56.4948 231.498 56.7113C231.365 57.2268 231.161 57.732 230.824 58.3608C230.722 58.6598 230.762 58.8866 230.916 59.0412C231.263 59.5155 231.202 60.2474 230.762 60.6907C230.344 61.1134 229.669 61.1649 229.107 60.8247C228.954 60.6907 228.739 60.6598 228.494 60.7423C227.83 61.1031 227.319 61.3196 226.808 61.4433C226.543 61.5258 226.4 61.7113 226.39 61.9381C226.246 62.567 225.725 63 225.112 63C224.469 63 223.958 62.5773 223.835 61.9175C223.835 61.7217 223.692 61.5258 223.437 61.4433C222.905 61.3093 222.395 61.0928 221.771 60.7526C221.475 60.6495 221.25 60.6907 221.097 60.8454C220.596 61.1959 219.902 61.1443 219.462 60.6907L219.432 60.6701C218.982 60.2577 218.921 59.5258 219.125 59.0412C219.248 58.8866 219.278 58.6804 219.197 58.433C218.88 57.8351 218.645 57.2474 218.502 56.701V56.6804C218.502 56.6082 218.481 56.5567 218.451 56.5155V56.4845L218.379 56.4124C218.359 56.3711 218.328 56.3402 218.298 56.3093C218.257 56.2474 218.175 56.1959 218.022 56.1959C217.347 56.0928 217 55.6804 217 54.9588C217 54.3196 217.419 53.8041 218.073 53.6804ZM219.534 55.4227H222.139C222.241 55.9794 222.436 56.433 222.742 56.8454L220.883 58.7217C220.729 58.8763 220.729 59.0722 220.883 59.2268C220.934 59.2784 221.036 59.3299 221.138 59.3299C221.24 59.3299 221.342 59.2784 221.393 59.2268L223.253 57.3505C223.651 57.701 224.152 57.9072 224.663 57.9588V60.5876C224.663 60.7938 224.816 60.9381 225.01 60.9381C225.215 60.9381 225.358 60.7835 225.358 60.5876V57.9588C225.909 57.8557 226.359 57.6598 226.768 57.3505L228.627 59.2268C228.678 59.2784 228.78 59.3299 228.883 59.3299C228.985 59.3299 229.087 59.2784 229.138 59.2268C229.291 59.0722 229.291 58.8763 229.138 58.7217L227.278 56.8454C227.62 56.4453 227.831 55.9483 227.881 55.4227H230.487C230.691 55.4227 230.834 55.268 230.834 55.0722C230.834 54.866 230.681 54.7216 230.487 54.7216H227.973C227.871 54.1649 227.677 53.7113 227.37 53.299L229.23 51.4227C229.383 51.268 229.383 51.0722 229.23 50.9175C229.077 50.7629 228.883 50.7629 228.729 50.9175L226.87 52.7938C226.471 52.4433 225.971 52.2371 225.46 52.1856V49.5567C225.46 49.3505 225.307 49.2062 225.112 49.2062C224.908 49.2062 224.765 49.3608 224.765 49.5567V52.1443C224.213 52.2474 223.764 52.4433 223.355 52.7526L221.496 50.8763C221.342 50.7216 221.148 50.7216 220.995 50.8763C220.842 51.0309 220.842 51.2268 220.995 51.3814L222.854 53.2577C222.507 53.6598 222.303 54.1649 222.252 54.6804H219.646C219.442 54.6804 219.197 54.8866 219.197 55.0825C219.176 55.2783 219.33 55.4227 219.534 55.4227Z" fill="#ECECEC"/>
</g>
<g filter="url(#filter20_d_64_16)">
<path d="M199.073 56.6804C199.267 56.6804 199.461 56.5361 199.543 56.2784C199.676 55.7423 199.89 55.2268 200.227 54.5979C200.37 54.3814 200.319 54.0722 200.166 53.8969C199.87 53.3196 199.931 52.6804 200.34 52.268C200.779 51.8247 201.504 51.7629 201.995 52.134C202.056 52.1959 202.107 52.2268 202.23 52.2268H202.598L202.649 52.1959C203.119 51.8969 203.619 51.6907 204.273 51.5155C204.317 51.5065 204.359 51.489 204.396 51.4639H204.478L204.549 51.3918C204.611 51.3608 204.662 51.3101 204.692 51.2474C204.743 51.1856 204.764 51.134 204.764 51.0309C204.886 50.4227 205.397 50 206.041 50C206.685 50 207.195 50.4227 207.328 51.0825V51.1856L207.379 51.2268V51.2784L207.502 51.4021C207.553 51.5052 207.655 51.567 207.757 51.567H207.778C208.278 51.701 208.789 51.9072 209.402 52.2474L209.453 52.2784H209.903L209.954 52.2268H209.985L210.046 52.1856C210.536 51.8144 211.262 51.8763 211.701 52.3196C212.12 52.7835 212.171 53.4227 211.834 53.9897C211.701 54.1443 211.67 54.3608 211.752 54.6082C212.11 55.2783 212.324 55.7938 212.447 56.3093C212.529 56.5773 212.713 56.7216 212.937 56.732C213.571 56.8763 214 57.4021 214 58.0206C214 58.6701 213.581 59.1856 212.927 59.3196C212.713 59.3196 212.519 59.4948 212.498 59.7113C212.365 60.2268 212.161 60.732 211.824 61.3608C211.722 61.6598 211.762 61.8866 211.916 62.0412C212.263 62.5155 212.202 63.2474 211.762 63.6907C211.344 64.1134 210.669 64.1649 210.107 63.8247C209.954 63.6907 209.739 63.6598 209.494 63.7423C208.83 64.1031 208.319 64.3196 207.808 64.4433C207.543 64.5258 207.4 64.7113 207.39 64.9381C207.246 65.567 206.725 66 206.112 66C205.469 66 204.958 65.5773 204.835 64.9175C204.835 64.7217 204.692 64.5258 204.437 64.4433C203.905 64.3093 203.395 64.0928 202.771 63.7526C202.475 63.6495 202.25 63.6907 202.097 63.8454C201.596 64.1959 200.902 64.1443 200.462 63.6907L200.432 63.6701C199.982 63.2577 199.921 62.5258 200.125 62.0412C200.248 61.8866 200.278 61.6804 200.197 61.433C199.88 60.8351 199.645 60.2474 199.502 59.701V59.6804C199.502 59.6082 199.481 59.5567 199.451 59.5155V59.4845L199.379 59.4124C199.359 59.3711 199.328 59.3402 199.298 59.3093C199.257 59.2474 199.175 59.1959 199.022 59.1959C198.347 59.0928 198 58.6804 198 57.9588C198 57.3196 198.419 56.8041 199.073 56.6804ZM200.534 58.4227H203.139C203.241 58.9794 203.436 59.433 203.742 59.8454L201.883 61.7217C201.729 61.8763 201.729 62.0722 201.883 62.2268C201.934 62.2784 202.036 62.3299 202.138 62.3299C202.24 62.3299 202.342 62.2784 202.393 62.2268L204.253 60.3505C204.651 60.701 205.152 60.9072 205.663 60.9588V63.5876C205.663 63.7938 205.816 63.9381 206.01 63.9381C206.215 63.9381 206.358 63.7835 206.358 63.5876V60.9588C206.909 60.8557 207.359 60.6598 207.768 60.3505L209.627 62.2268C209.678 62.2784 209.78 62.3299 209.883 62.3299C209.985 62.3299 210.087 62.2784 210.138 62.2268C210.291 62.0722 210.291 61.8763 210.138 61.7217L208.278 59.8454C208.62 59.4453 208.831 58.9483 208.881 58.4227H211.487C211.691 58.4227 211.834 58.268 211.834 58.0722C211.834 57.866 211.681 57.7216 211.487 57.7216H208.973C208.871 57.1649 208.677 56.7113 208.37 56.299L210.23 54.4227C210.383 54.268 210.383 54.0722 210.23 53.9175C210.077 53.7629 209.883 53.7629 209.729 53.9175L207.87 55.7938C207.471 55.4433 206.971 55.2371 206.46 55.1856V52.5567C206.46 52.3505 206.307 52.2062 206.112 52.2062C205.908 52.2062 205.765 52.3608 205.765 52.5567V55.1443C205.213 55.2474 204.764 55.4433 204.355 55.7526L202.496 53.8763C202.342 53.7216 202.148 53.7216 201.995 53.8763C201.842 54.0309 201.842 54.2268 201.995 54.3814L203.854 56.2577C203.507 56.6598 203.303 57.1649 203.252 57.6804H200.646C200.442 57.6804 200.197 57.8866 200.197 58.0825C200.176 58.2783 200.33 58.4227 200.534 58.4227Z" fill="#ECECEC"/>
</g>
<g filter="url(#filter21_d_64_16)">
<path d="M180.073 59.6804C180.267 59.6804 180.461 59.5361 180.543 59.2784C180.676 58.7423 180.89 58.2268 181.227 57.5979C181.37 57.3814 181.319 57.0722 181.166 56.8969C180.87 56.3196 180.931 55.6804 181.34 55.268C181.779 54.8247 182.504 54.7629 182.995 55.134C183.056 55.1959 183.107 55.2268 183.23 55.2268H183.598L183.649 55.1959C184.119 54.8969 184.619 54.6907 185.273 54.5155C185.317 54.5065 185.359 54.489 185.396 54.4639H185.478L185.549 54.3918C185.611 54.3608 185.662 54.3101 185.692 54.2474C185.743 54.1856 185.764 54.134 185.764 54.0309C185.886 53.4227 186.397 53 187.041 53C187.685 53 188.195 53.4227 188.328 54.0825V54.1856L188.379 54.2268V54.2784L188.502 54.4021C188.553 54.5052 188.655 54.567 188.757 54.567H188.778C189.278 54.701 189.789 54.9072 190.402 55.2474L190.453 55.2784H190.903L190.954 55.2268H190.985L191.046 55.1856C191.536 54.8144 192.262 54.8763 192.701 55.3196C193.12 55.7835 193.171 56.4227 192.834 56.9897C192.701 57.1443 192.67 57.3608 192.752 57.6082C193.11 58.2783 193.324 58.7938 193.447 59.3093C193.529 59.5773 193.713 59.7216 193.937 59.732C194.571 59.8763 195 60.4021 195 61.0206C195 61.6701 194.581 62.1856 193.927 62.3196C193.713 62.3196 193.519 62.4948 193.498 62.7113C193.365 63.2268 193.161 63.732 192.824 64.3608C192.722 64.6598 192.762 64.8866 192.916 65.0412C193.263 65.5155 193.202 66.2474 192.762 66.6907C192.344 67.1134 191.669 67.1649 191.107 66.8247C190.954 66.6907 190.739 66.6598 190.494 66.7423C189.83 67.1031 189.319 67.3196 188.808 67.4433C188.543 67.5258 188.4 67.7113 188.39 67.9381C188.246 68.567 187.725 69 187.112 69C186.469 69 185.958 68.5773 185.835 67.9175C185.835 67.7217 185.692 67.5258 185.437 67.4433C184.905 67.3093 184.395 67.0928 183.771 66.7526C183.475 66.6495 183.25 66.6907 183.097 66.8454C182.596 67.1959 181.902 67.1443 181.462 66.6907L181.432 66.6701C180.982 66.2577 180.921 65.5258 181.125 65.0412C181.248 64.8866 181.278 64.6804 181.197 64.433C180.88 63.8351 180.645 63.2474 180.502 62.701V62.6804C180.502 62.6082 180.481 62.5567 180.451 62.5155V62.4845L180.379 62.4124C180.359 62.3711 180.328 62.3402 180.298 62.3093C180.257 62.2474 180.175 62.1959 180.022 62.1959C179.347 62.0928 179 61.6804 179 60.9588C179 60.3196 179.419 59.8041 180.073 59.6804ZM181.534 61.4227H184.139C184.241 61.9794 184.436 62.433 184.742 62.8454L182.883 64.7217C182.729 64.8763 182.729 65.0722 182.883 65.2268C182.934 65.2784 183.036 65.3299 183.138 65.3299C183.24 65.3299 183.342 65.2784 183.393 65.2268L185.253 63.3505C185.651 63.701 186.152 63.9072 186.663 63.9588V66.5876C186.663 66.7938 186.816 66.9381 187.01 66.9381C187.215 66.9381 187.358 66.7835 187.358 66.5876V63.9588C187.909 63.8557 188.359 63.6598 188.768 63.3505L190.627 65.2268C190.678 65.2784 190.78 65.3299 190.883 65.3299C190.985 65.3299 191.087 65.2784 191.138 65.2268C191.291 65.0722 191.291 64.8763 191.138 64.7217L189.278 62.8454C189.62 62.4453 189.831 61.9483 189.881 61.4227H192.487C192.691 61.4227 192.834 61.268 192.834 61.0722C192.834 60.866 192.681 60.7216 192.487 60.7216H189.973C189.871 60.1649 189.677 59.7113 189.37 59.299L191.23 57.4227C191.383 57.268 191.383 57.0722 191.23 56.9175C191.077 56.7629 190.883 56.7629 190.729 56.9175L188.87 58.7938C188.471 58.4433 187.971 58.2371 187.46 58.1856V55.5567C187.46 55.3505 187.307 55.2062 187.112 55.2062C186.908 55.2062 186.765 55.3608 186.765 55.5567V58.1443C186.213 58.2474 185.764 58.4433 185.355 58.7526L183.496 56.8763C183.342 56.7216 183.148 56.7216 182.995 56.8763C182.842 57.0309 182.842 57.2268 182.995 57.3814L184.854 59.2577C184.507 59.6598 184.303 60.1649 184.252 60.6804H181.646C181.442 60.6804 181.197 60.8866 181.197 61.0825C181.176 61.2783 181.33 61.4227 181.534 61.4227Z" fill="#ECECEC"/>
</g>
<g filter="url(#filter22_d_64_16)">
<path d="M161.073 61.6804C161.267 61.6804 161.461 61.5361 161.543 61.2784C161.676 60.7423 161.89 60.2268 162.227 59.5979C162.37 59.3814 162.319 59.0722 162.166 58.8969C161.87 58.3196 161.931 57.6804 162.34 57.268C162.779 56.8247 163.504 56.7629 163.995 57.134C164.056 57.1959 164.107 57.2268 164.23 57.2268H164.598L164.649 57.1959C165.119 56.8969 165.619 56.6907 166.273 56.5155C166.317 56.5065 166.359 56.489 166.396 56.4639H166.478L166.549 56.3918C166.611 56.3608 166.662 56.3101 166.692 56.2474C166.743 56.1856 166.764 56.134 166.764 56.0309C166.886 55.4227 167.397 55 168.041 55C168.685 55 169.195 55.4227 169.328 56.0825V56.1856L169.379 56.2268V56.2784L169.502 56.4021C169.553 56.5052 169.655 56.567 169.757 56.567H169.778C170.278 56.701 170.789 56.9072 171.402 57.2474L171.453 57.2784H171.903L171.954 57.2268H171.985L172.046 57.1856C172.536 56.8144 173.262 56.8763 173.701 57.3196C174.12 57.7835 174.171 58.4227 173.834 58.9897C173.701 59.1443 173.67 59.3608 173.752 59.6082C174.11 60.2783 174.324 60.7938 174.447 61.3093C174.529 61.5773 174.713 61.7216 174.937 61.732C175.571 61.8763 176 62.4021 176 63.0206C176 63.6701 175.581 64.1856 174.927 64.3196C174.713 64.3196 174.519 64.4948 174.498 64.7113C174.365 65.2268 174.161 65.732 173.824 66.3608C173.722 66.6598 173.762 66.8866 173.916 67.0412C174.263 67.5155 174.202 68.2474 173.762 68.6907C173.344 69.1134 172.669 69.1649 172.107 68.8247C171.954 68.6907 171.739 68.6598 171.494 68.7423C170.83 69.1031 170.319 69.3196 169.808 69.4433C169.543 69.5258 169.4 69.7113 169.39 69.9381C169.246 70.567 168.725 71 168.112 71C167.469 71 166.958 70.5773 166.835 69.9175C166.835 69.7217 166.692 69.5258 166.437 69.4433C165.905 69.3093 165.395 69.0928 164.771 68.7526C164.475 68.6495 164.25 68.6907 164.097 68.8454C163.596 69.1959 162.902 69.1443 162.462 68.6907L162.432 68.6701C161.982 68.2577 161.921 67.5258 162.125 67.0412C162.248 66.8866 162.278 66.6804 162.197 66.433C161.88 65.8351 161.645 65.2474 161.502 64.701V64.6804C161.502 64.6082 161.481 64.5567 161.451 64.5155V64.4845L161.379 64.4124C161.359 64.3711 161.328 64.3402 161.298 64.3093C161.257 64.2474 161.175 64.1959 161.022 64.1959C160.347 64.0928 160 63.6804 160 62.9588C160 62.3196 160.419 61.8041 161.073 61.6804ZM162.534 63.4227H165.139C165.241 63.9794 165.436 64.433 165.742 64.8454L163.883 66.7217C163.729 66.8763 163.729 67.0722 163.883 67.2268C163.934 67.2784 164.036 67.3299 164.138 67.3299C164.24 67.3299 164.342 67.2784 164.393 67.2268L166.253 65.3505C166.651 65.701 167.152 65.9072 167.663 65.9588V68.5876C167.663 68.7938 167.816 68.9381 168.01 68.9381C168.215 68.9381 168.358 68.7835 168.358 68.5876V65.9588C168.909 65.8557 169.359 65.6598 169.768 65.3505L171.627 67.2268C171.678 67.2784 171.78 67.3299 171.883 67.3299C171.985 67.3299 172.087 67.2784 172.138 67.2268C172.291 67.0722 172.291 66.8763 172.138 66.7217L170.278 64.8454C170.62 64.4453 170.831 63.9483 170.881 63.4227H173.487C173.691 63.4227 173.834 63.268 173.834 63.0722C173.834 62.866 173.681 62.7216 173.487 62.7216H170.973C170.871 62.1649 170.677 61.7113 170.37 61.299L172.23 59.4227C172.383 59.268 172.383 59.0722 172.23 58.9175C172.077 58.7629 171.883 58.7629 171.729 58.9175L169.87 60.7938C169.471 60.4433 168.971 60.2371 168.46 60.1856V57.5567C168.46 57.3505 168.307 57.2062 168.112 57.2062C167.908 57.2062 167.765 57.3608 167.765 57.5567V60.1443C167.213 60.2474 166.764 60.4433 166.355 60.7526L164.496 58.8763C164.342 58.7216 164.148 58.7216 163.995 58.8763C163.842 59.0309 163.842 59.2268 163.995 59.3814L165.854 61.2577C165.507 61.6598 165.303 62.1649 165.252 62.6804H162.646C162.442 62.6804 162.197 62.8866 162.197 63.0825C162.176 63.2783 162.33 63.4227 162.534 63.4227Z" fill="#ECECEC"/>
</g>
<g filter="url(#filter23_d_64_16)">
<path d="M142.073 63.6804C142.267 63.6804 142.461 63.5361 142.543 63.2784C142.676 62.7423 142.89 62.2268 143.227 61.5979C143.37 61.3814 143.319 61.0722 143.166 60.8969C142.87 60.3196 142.931 59.6804 143.34 59.268C143.779 58.8247 144.504 58.7629 144.995 59.134C145.056 59.1959 145.107 59.2268 145.23 59.2268H145.598L145.649 59.1959C146.119 58.8969 146.619 58.6907 147.273 58.5155C147.317 58.5065 147.359 58.489 147.396 58.4639H147.478L147.549 58.3918C147.611 58.3608 147.662 58.3101 147.692 58.2474C147.743 58.1856 147.764 58.134 147.764 58.0309C147.886 57.4227 148.397 57 149.041 57C149.685 57 150.195 57.4227 150.328 58.0825V58.1856L150.379 58.2268V58.2784L150.502 58.4021C150.553 58.5052 150.655 58.567 150.757 58.567H150.778C151.278 58.701 151.789 58.9072 152.402 59.2474L152.453 59.2784H152.903L152.954 59.2268H152.985L153.046 59.1856C153.536 58.8144 154.262 58.8763 154.701 59.3196C155.12 59.7835 155.171 60.4227 154.834 60.9897C154.701 61.1443 154.67 61.3608 154.752 61.6082C155.11 62.2783 155.324 62.7938 155.447 63.3093C155.529 63.5773 155.713 63.7216 155.937 63.732C156.571 63.8763 157 64.4021 157 65.0206C157 65.6701 156.581 66.1856 155.927 66.3196C155.713 66.3196 155.519 66.4948 155.498 66.7113C155.365 67.2268 155.161 67.732 154.824 68.3608C154.722 68.6598 154.762 68.8866 154.916 69.0412C155.263 69.5155 155.202 70.2474 154.762 70.6907C154.344 71.1134 153.669 71.1649 153.107 70.8247C152.954 70.6907 152.739 70.6598 152.494 70.7423C151.83 71.1031 151.319 71.3196 150.808 71.4433C150.543 71.5258 150.4 71.7113 150.39 71.9381C150.246 72.567 149.725 73 149.112 73C148.469 73 147.958 72.5773 147.835 71.9175C147.835 71.7217 147.692 71.5258 147.437 71.4433C146.905 71.3093 146.395 71.0928 145.771 70.7526C145.475 70.6495 145.25 70.6907 145.097 70.8454C144.596 71.1959 143.902 71.1443 143.462 70.6907L143.432 70.6701C142.982 70.2577 142.921 69.5258 143.125 69.0412C143.248 68.8866 143.278 68.6804 143.197 68.433C142.88 67.8351 142.645 67.2474 142.502 66.701V66.6804C142.502 66.6082 142.481 66.5567 142.451 66.5155V66.4845L142.379 66.4124C142.359 66.3711 142.328 66.3402 142.298 66.3093C142.257 66.2474 142.175 66.1959 142.022 66.1959C141.347 66.0928 141 65.6804 141 64.9588C141 64.3196 141.419 63.8041 142.073 63.6804ZM143.534 65.4227H146.139C146.241 65.9794 146.436 66.433 146.742 66.8454L144.883 68.7217C144.729 68.8763 144.729 69.0722 144.883 69.2268C144.934 69.2784 145.036 69.3299 145.138 69.3299C145.24 69.3299 145.342 69.2784 145.393 69.2268L147.253 67.3505C147.651 67.701 148.152 67.9072 148.663 67.9588V70.5876C148.663 70.7938 148.816 70.9381 149.01 70.9381C149.215 70.9381 149.358 70.7835 149.358 70.5876V67.9588C149.909 67.8557 150.359 67.6598 150.768 67.3505L152.627 69.2268C152.678 69.2784 152.78 69.3299 152.883 69.3299C152.985 69.3299 153.087 69.2784 153.138 69.2268C153.291 69.0722 153.291 68.8763 153.138 68.7217L151.278 66.8454C151.62 66.4453 151.831 65.9483 151.881 65.4227H154.487C154.691 65.4227 154.834 65.268 154.834 65.0722C154.834 64.866 154.681 64.7216 154.487 64.7216H151.973C151.871 64.1649 151.677 63.7113 151.37 63.299L153.23 61.4227C153.383 61.268 153.383 61.0722 153.23 60.9175C153.077 60.7629 152.883 60.7629 152.729 60.9175L150.87 62.7938C150.471 62.4433 149.971 62.2371 149.46 62.1856V59.5567C149.46 59.3505 149.307 59.2062 149.112 59.2062C148.908 59.2062 148.765 59.3608 148.765 59.5567V62.1443C148.213 62.2474 147.764 62.4433 147.355 62.7526L145.496 60.8763C145.342 60.7216 145.148 60.7216 144.995 60.8763C144.842 61.0309 144.842 61.2268 144.995 61.3814L146.854 63.2577C146.507 63.6598 146.303 64.1649 146.252 64.6804H143.646C143.442 64.6804 143.197 64.8866 143.197 65.0825C143.176 65.2783 143.33 65.4227 143.534 65.4227Z" fill="#ECECEC"/>
</g>
<g filter="url(#filter24_d_64_16)">
<path d="M123.073 65.6804C123.267 65.6804 123.461 65.5361 123.543 65.2784C123.676 64.7423 123.89 64.2268 124.227 63.5979C124.37 63.3814 124.319 63.0722 124.166 62.8969C123.87 62.3196 123.931 61.6804 124.34 61.268C124.779 60.8247 125.504 60.7629 125.995 61.134C126.056 61.1959 126.107 61.2268 126.23 61.2268H126.598L126.649 61.1959C127.119 60.8969 127.619 60.6907 128.273 60.5155C128.317 60.5065 128.359 60.489 128.396 60.4639H128.478L128.549 60.3918C128.611 60.3608 128.662 60.3101 128.692 60.2474C128.743 60.1856 128.764 60.134 128.764 60.0309C128.886 59.4227 129.397 59 130.041 59C130.685 59 131.195 59.4227 131.328 60.0825V60.1856L131.379 60.2268V60.2784L131.502 60.4021C131.553 60.5052 131.655 60.567 131.757 60.567H131.778C132.278 60.701 132.789 60.9072 133.402 61.2474L133.453 61.2784H133.903L133.954 61.2268H133.985L134.046 61.1856C134.536 60.8144 135.262 60.8763 135.701 61.3196C136.12 61.7835 136.171 62.4227 135.834 62.9897C135.701 63.1443 135.67 63.3608 135.752 63.6082C136.11 64.2783 136.324 64.7938 136.447 65.3093C136.529 65.5773 136.713 65.7216 136.937 65.732C137.571 65.8763 138 66.4021 138 67.0206C138 67.6701 137.581 68.1856 136.927 68.3196C136.713 68.3196 136.519 68.4948 136.498 68.7113C136.365 69.2268 136.161 69.732 135.824 70.3608C135.722 70.6598 135.762 70.8866 135.916 71.0412C136.263 71.5155 136.202 72.2474 135.762 72.6907C135.344 73.1134 134.669 73.1649 134.107 72.8247C133.954 72.6907 133.739 72.6598 133.494 72.7423C132.83 73.1031 132.319 73.3196 131.808 73.4433C131.543 73.5258 131.4 73.7113 131.39 73.9381C131.246 74.567 130.725 75 130.112 75C129.469 75 128.958 74.5773 128.835 73.9175C128.835 73.7217 128.692 73.5258 128.437 73.4433C127.905 73.3093 127.395 73.0928 126.771 72.7526C126.475 72.6495 126.25 72.6907 126.097 72.8454C125.596 73.1959 124.902 73.1443 124.462 72.6907L124.432 72.6701C123.982 72.2577 123.921 71.5258 124.125 71.0412C124.248 70.8866 124.278 70.6804 124.197 70.433C123.88 69.8351 123.645 69.2474 123.502 68.701V68.6804C123.502 68.6082 123.481 68.5567 123.451 68.5155V68.4845L123.379 68.4124C123.359 68.3711 123.328 68.3402 123.298 68.3093C123.257 68.2474 123.175 68.1959 123.022 68.1959C122.347 68.0928 122 67.6804 122 66.9588C122 66.3196 122.419 65.8041 123.073 65.6804ZM124.534 67.4227H127.139C127.241 67.9794 127.436 68.433 127.742 68.8454L125.883 70.7217C125.729 70.8763 125.729 71.0722 125.883 71.2268C125.934 71.2784 126.036 71.3299 126.138 71.3299C126.24 71.3299 126.342 71.2784 126.393 71.2268L128.253 69.3505C128.651 69.701 129.152 69.9072 129.663 69.9588V72.5876C129.663 72.7938 129.816 72.9381 130.01 72.9381C130.215 72.9381 130.358 72.7835 130.358 72.5876V69.9588C130.909 69.8557 131.359 69.6598 131.768 69.3505L133.627 71.2268C133.678 71.2784 133.78 71.3299 133.883 71.3299C133.985 71.3299 134.087 71.2784 134.138 71.2268C134.291 71.0722 134.291 70.8763 134.138 70.7217L132.278 68.8454C132.62 68.4453 132.831 67.9483 132.881 67.4227H135.487C135.691 67.4227 135.834 67.268 135.834 67.0722C135.834 66.866 135.681 66.7216 135.487 66.7216H132.973C132.871 66.1649 132.677 65.7113 132.37 65.299L134.23 63.4227C134.383 63.268 134.383 63.0722 134.23 62.9175C134.077 62.7629 133.883 62.7629 133.729 62.9175L131.87 64.7938C131.471 64.4433 130.971 64.2371 130.46 64.1856V61.5567C130.46 61.3505 130.307 61.2062 130.112 61.2062C129.908 61.2062 129.765 61.3608 129.765 61.5567V64.1443C129.213 64.2474 128.764 64.4433 128.355 64.7526L126.496 62.8763C126.342 62.7216 126.148 62.7216 125.995 62.8763C125.842 63.0309 125.842 63.2268 125.995 63.3814L127.854 65.2577C127.507 65.6598 127.303 66.1649 127.252 66.6804H124.646C124.442 66.6804 124.197 66.8866 124.197 67.0825C124.176 67.2783 124.33 67.4227 124.534 67.4227Z" fill="#ECECEC"/>
</g>
<g filter="url(#filter25_d_64_16)">
<path d="M104.073 67.6804C104.267 67.6804 104.461 67.5361 104.543 67.2784C104.676 66.7423 104.89 66.2268 105.227 65.5979C105.37 65.3814 105.319 65.0722 105.166 64.8969C104.87 64.3196 104.931 63.6804 105.34 63.268C105.779 62.8247 106.504 62.7629 106.995 63.134C107.056 63.1959 107.107 63.2268 107.23 63.2268H107.598L107.649 63.1959C108.119 62.8969 108.619 62.6907 109.273 62.5155C109.317 62.5065 109.359 62.489 109.396 62.4639H109.478L109.549 62.3918C109.611 62.3608 109.662 62.3101 109.692 62.2474C109.743 62.1856 109.764 62.134 109.764 62.0309C109.886 61.4227 110.397 61 111.041 61C111.685 61 112.195 61.4227 112.328 62.0825V62.1856L112.379 62.2268V62.2784L112.502 62.4021C112.553 62.5052 112.655 62.567 112.757 62.567H112.778C113.278 62.701 113.789 62.9072 114.402 63.2474L114.453 63.2784H114.903L114.954 63.2268H114.985L115.046 63.1856C115.536 62.8144 116.262 62.8763 116.701 63.3196C117.12 63.7835 117.171 64.4227 116.834 64.9897C116.701 65.1443 116.67 65.3608 116.752 65.6082C117.11 66.2783 117.324 66.7938 117.447 67.3093C117.529 67.5773 117.713 67.7216 117.937 67.732C118.571 67.8763 119 68.4021 119 69.0206C119 69.6701 118.581 70.1856 117.927 70.3196C117.713 70.3196 117.519 70.4948 117.498 70.7113C117.365 71.2268 117.161 71.732 116.824 72.3608C116.722 72.6598 116.762 72.8866 116.916 73.0412C117.263 73.5155 117.202 74.2474 116.762 74.6907C116.344 75.1134 115.669 75.1649 115.107 74.8247C114.954 74.6907 114.739 74.6598 114.494 74.7423C113.83 75.1031 113.319 75.3196 112.808 75.4433C112.543 75.5258 112.4 75.7113 112.39 75.9381C112.246 76.567 111.725 77 111.112 77C110.469 77 109.958 76.5773 109.835 75.9175C109.835 75.7217 109.692 75.5258 109.437 75.4433C108.905 75.3093 108.395 75.0928 107.771 74.7526C107.475 74.6495 107.25 74.6907 107.097 74.8454C106.596 75.1959 105.902 75.1443 105.462 74.6907L105.432 74.6701C104.982 74.2577 104.921 73.5258 105.125 73.0412C105.248 72.8866 105.278 72.6804 105.197 72.433C104.88 71.8351 104.645 71.2474 104.502 70.701V70.6804C104.502 70.6082 104.481 70.5567 104.451 70.5155V70.4845L104.379 70.4124C104.359 70.3711 104.328 70.3402 104.298 70.3093C104.257 70.2474 104.175 70.1959 104.022 70.1959C103.347 70.0928 103 69.6804 103 68.9588C103 68.3196 103.419 67.8041 104.073 67.6804ZM105.534 69.4227H108.139C108.241 69.9794 108.436 70.433 108.742 70.8454L106.883 72.7217C106.729 72.8763 106.729 73.0722 106.883 73.2268C106.934 73.2784 107.036 73.3299 107.138 73.3299C107.24 73.3299 107.342 73.2784 107.393 73.2268L109.253 71.3505C109.651 71.701 110.152 71.9072 110.663 71.9588V74.5876C110.663 74.7938 110.816 74.9381 111.01 74.9381C111.215 74.9381 111.358 74.7835 111.358 74.5876V71.9588C111.909 71.8557 112.359 71.6598 112.768 71.3505L114.627 73.2268C114.678 73.2784 114.78 73.3299 114.883 73.3299C114.985 73.3299 115.087 73.2784 115.138 73.2268C115.291 73.0722 115.291 72.8763 115.138 72.7217L113.278 70.8454C113.62 70.4453 113.831 69.9483 113.881 69.4227H116.487C116.691 69.4227 116.834 69.268 116.834 69.0722C116.834 68.866 116.681 68.7216 116.487 68.7216H113.973C113.871 68.1649 113.677 67.7113 113.37 67.299L115.23 65.4227C115.383 65.268 115.383 65.0722 115.23 64.9175C115.077 64.7629 114.883 64.7629 114.729 64.9175L112.87 66.7938C112.471 66.4433 111.971 66.2371 111.46 66.1856V63.5567C111.46 63.3505 111.307 63.2062 111.112 63.2062C110.908 63.2062 110.765 63.3608 110.765 63.5567V66.1443C110.213 66.2474 109.764 66.4433 109.355 66.7526L107.496 64.8763C107.342 64.7216 107.148 64.7216 106.995 64.8763C106.842 65.0309 106.842 65.2268 106.995 65.3814L108.854 67.2577C108.507 67.6598 108.303 68.1649 108.252 68.6804H105.646C105.442 68.6804 105.197 68.8866 105.197 69.0825C105.176 69.2783 105.33 69.4227 105.534 69.4227Z" fill="#ECECEC"/>
</g>
<g filter="url(#filter26_d_64_16)">
<path d="M85.0728 69.6804C85.2669 69.6804 85.461 69.5361 85.5428 69.2784C85.6756 68.7423 85.8902 68.2268 86.2273 67.5979C86.3704 67.3814 86.3193 67.0722 86.166 66.8969C85.8697 66.3196 85.931 65.6804 86.3397 65.268C86.7791 64.8247 87.5045 64.7629 87.9949 65.134C88.0562 65.1959 88.1073 65.2268 88.2299 65.2268H88.5977L88.6488 65.1959C89.1188 64.8969 89.6194 64.6907 90.2733 64.5155C90.3171 64.5065 90.3588 64.489 90.3959 64.4639H90.4776L90.5492 64.3918C90.6113 64.3608 90.6616 64.3101 90.6922 64.2474C90.7433 64.1856 90.7637 64.134 90.7637 64.0309C90.8863 63.4227 91.3972 63 92.0409 63C92.6845 63 93.1954 63.4227 93.3282 64.0825V64.1856L93.3793 64.2268V64.2784L93.5019 64.4021C93.553 64.5052 93.6552 64.567 93.7573 64.567H93.7778C94.2784 64.701 94.7893 64.9072 95.4023 65.2474L95.4534 65.2784H95.9029L95.954 65.2268H95.9847L96.046 65.1856C96.5364 64.8144 97.2618 64.8763 97.7011 65.3196C98.1201 65.7835 98.1711 66.4227 97.834 66.9897C97.7011 67.1443 97.6705 67.3608 97.7522 67.6082C98.1098 68.2783 98.3244 68.7938 98.447 69.3093C98.5287 69.5773 98.7126 69.7216 98.9374 69.732C99.5709 69.8763 100 70.4021 100 71.0206C100 71.6701 99.5811 72.1856 98.9272 72.3196C98.7126 72.3196 98.5185 72.4948 98.4981 72.7113C98.3653 73.2268 98.1609 73.732 97.8238 74.3608C97.7216 74.6598 97.7625 74.8866 97.9157 75.0412C98.2631 75.5155 98.2018 76.2474 97.7625 76.6907C97.3436 77.1134 96.6692 77.1649 96.1073 76.8247C95.954 76.6907 95.7395 76.6598 95.4943 76.7423C94.8301 77.1031 94.3193 77.3196 93.8084 77.4433C93.5428 77.5258 93.3997 77.7113 93.3895 77.9381C93.2465 78.567 92.7254 79 92.1124 79C91.4687 79 90.9579 78.5773 90.8352 77.9175C90.8352 77.7217 90.6922 77.5258 90.4368 77.4433C89.9055 77.3093 89.3946 77.0928 88.7714 76.7526C88.4751 76.6495 88.2503 76.6907 88.0971 76.8454C87.5964 77.1959 86.9017 77.1443 86.4623 76.6907L86.4317 76.6701C85.9821 76.2577 85.9208 75.5258 86.1252 75.0412C86.2478 74.8866 86.2784 74.6804 86.1967 74.433C85.8799 73.8351 85.645 73.2474 85.5019 72.701V72.6804C85.5019 72.6082 85.4815 72.5567 85.4508 72.5155V72.4845L85.3793 72.4124C85.3589 72.3711 85.3282 72.3402 85.2976 72.3093C85.2567 72.2474 85.175 72.1959 85.0217 72.1959C84.3474 72.0928 84 71.6804 84 70.9588C84 70.3196 84.4189 69.8041 85.0728 69.6804ZM86.5338 71.4227H89.1392C89.2414 71.9794 89.4355 72.433 89.742 72.8454L87.8825 74.7217C87.7292 74.8763 87.7292 75.0722 87.8825 75.2268C87.9336 75.2784 88.0358 75.3299 88.1379 75.3299C88.2401 75.3299 88.3423 75.2784 88.3934 75.2268L90.2529 73.3505C90.6513 73.701 91.152 73.9072 91.6628 73.9588V76.5876C91.6628 76.7938 91.8161 76.9381 92.0102 76.9381C92.2146 76.9381 92.3576 76.7835 92.3576 76.5876V73.9588C92.9093 73.8557 93.3589 73.6598 93.7676 73.3505L95.6271 75.2268C95.6782 75.2784 95.7803 75.3299 95.8825 75.3299C95.9847 75.3299 96.0868 75.2784 96.1379 75.2268C96.2912 75.0722 96.2912 74.8763 96.1379 74.7217L94.2784 72.8454C94.6202 72.4453 94.8307 71.9483 94.8812 71.4227H97.4866C97.6909 71.4227 97.834 71.268 97.834 71.0722C97.834 70.866 97.6807 70.7216 97.4866 70.7216H94.9732C94.871 70.1649 94.6769 69.7113 94.3704 69.299L96.2299 67.4227C96.3831 67.268 96.3831 67.0722 96.2299 66.9175C96.0766 66.7629 95.8825 66.7629 95.7292 66.9175L93.8697 68.7938C93.4713 68.4433 92.9706 68.2371 92.4598 68.1856V65.5567C92.4598 65.3505 92.3065 65.2062 92.1124 65.2062C91.908 65.2062 91.765 65.3608 91.765 65.5567V68.1443C91.2133 68.2474 90.7637 68.4433 90.355 68.7526L88.4955 66.8763C88.3423 66.7216 88.1481 66.7216 87.9949 66.8763C87.8416 67.0309 87.8416 67.2268 87.9949 67.3814L89.8544 69.2577C89.507 69.6598 89.3027 70.1649 89.2516 70.6804H86.6462C86.4419 70.6804 86.1967 70.8866 86.1967 71.0825C86.1762 71.2783 86.3295 71.4227 86.5338 71.4227Z" fill="#ECECEC"/>
</g>
<g filter="url(#filter27_d_64_16)">
<path d="M66.0728 69.6804C66.2669 69.6804 66.461 69.5361 66.5428 69.2784C66.6756 68.7423 66.8902 68.2268 67.2273 67.5979C67.3704 67.3814 67.3193 67.0722 67.166 66.8969C66.8697 66.3196 66.931 65.6804 67.3397 65.268C67.7791 64.8247 68.5045 64.7629 68.9949 65.134C69.0562 65.1959 69.1073 65.2268 69.2299 65.2268H69.5977L69.6488 65.1959C70.1188 64.8969 70.6194 64.6907 71.2733 64.5155C71.3171 64.5065 71.3588 64.489 71.3959 64.4639H71.4776L71.5492 64.3918C71.6113 64.3608 71.6616 64.3101 71.6922 64.2474C71.7433 64.1856 71.7637 64.134 71.7637 64.0309C71.8863 63.4227 72.3972 63 73.0409 63C73.6845 63 74.1954 63.4227 74.3282 64.0825V64.1856L74.3793 64.2268V64.2784L74.5019 64.4021C74.553 64.5052 74.6552 64.567 74.7573 64.567H74.7778C75.2784 64.701 75.7893 64.9072 76.4023 65.2474L76.4534 65.2784H76.9029L76.954 65.2268H76.9847L77.046 65.1856C77.5364 64.8144 78.2618 64.8763 78.7011 65.3196C79.1201 65.7835 79.1711 66.4227 78.834 66.9897C78.7011 67.1443 78.6705 67.3608 78.7522 67.6082C79.1098 68.2783 79.3244 68.7938 79.447 69.3093C79.5287 69.5773 79.7126 69.7216 79.9374 69.732C80.5709 69.8763 81 70.4021 81 71.0206C81 71.6701 80.5811 72.1856 79.9272 72.3196C79.7126 72.3196 79.5185 72.4948 79.4981 72.7113C79.3653 73.2268 79.1609 73.732 78.8238 74.3608C78.7216 74.6598 78.7625 74.8866 78.9157 75.0412C79.2631 75.5155 79.2018 76.2474 78.7625 76.6907C78.3436 77.1134 77.6692 77.1649 77.1073 76.8247C76.954 76.6907 76.7395 76.6598 76.4943 76.7423C75.8301 77.1031 75.3193 77.3196 74.8084 77.4433C74.5428 77.5258 74.3997 77.7113 74.3895 77.9381C74.2465 78.567 73.7254 79 73.1124 79C72.4687 79 71.9579 78.5773 71.8352 77.9175C71.8352 77.7217 71.6922 77.5258 71.4368 77.4433C70.9055 77.3093 70.3946 77.0928 69.7714 76.7526C69.4751 76.6495 69.2503 76.6907 69.0971 76.8454C68.5964 77.1959 67.9017 77.1443 67.4623 76.6907L67.4317 76.6701C66.9821 76.2577 66.9208 75.5258 67.1252 75.0412C67.2478 74.8866 67.2784 74.6804 67.1967 74.433C66.8799 73.8351 66.645 73.2474 66.5019 72.701V72.6804C66.5019 72.6082 66.4815 72.5567 66.4508 72.5155V72.4845L66.3793 72.4124C66.3589 72.3711 66.3282 72.3402 66.2976 72.3093C66.2567 72.2474 66.175 72.1959 66.0217 72.1959C65.3474 72.0928 65 71.6804 65 70.9588C65 70.3196 65.4189 69.8041 66.0728 69.6804ZM67.5338 71.4227H70.1392C70.2414 71.9794 70.4355 72.433 70.742 72.8454L68.8825 74.7217C68.7292 74.8763 68.7292 75.0722 68.8825 75.2268C68.9336 75.2784 69.0358 75.3299 69.1379 75.3299C69.2401 75.3299 69.3423 75.2784 69.3934 75.2268L71.2529 73.3505C71.6513 73.701 72.152 73.9072 72.6628 73.9588V76.5876C72.6628 76.7938 72.8161 76.9381 73.0102 76.9381C73.2146 76.9381 73.3576 76.7835 73.3576 76.5876V73.9588C73.9093 73.8557 74.3589 73.6598 74.7676 73.3505L76.6271 75.2268C76.6782 75.2784 76.7803 75.3299 76.8825 75.3299C76.9847 75.3299 77.0868 75.2784 77.1379 75.2268C77.2912 75.0722 77.2912 74.8763 77.1379 74.7217L75.2784 72.8454C75.6202 72.4453 75.8307 71.9483 75.8812 71.4227H78.4866C78.6909 71.4227 78.834 71.268 78.834 71.0722C78.834 70.866 78.6807 70.7216 78.4866 70.7216H75.9732C75.871 70.1649 75.6769 69.7113 75.3704 69.299L77.2299 67.4227C77.3831 67.268 77.3831 67.0722 77.2299 66.9175C77.0766 66.7629 76.8825 66.7629 76.7292 66.9175L74.8697 68.7938C74.4713 68.4433 73.9706 68.2371 73.4598 68.1856V65.5567C73.4598 65.3505 73.3065 65.2062 73.1124 65.2062C72.908 65.2062 72.765 65.3608 72.765 65.5567V68.1443C72.2133 68.2474 71.7637 68.4433 71.355 68.7526L69.4955 66.8763C69.3423 66.7216 69.1481 66.7216 68.9949 66.8763C68.8416 67.0309 68.8416 67.2268 68.9949 67.3814L70.8544 69.2577C70.507 69.6598 70.3027 70.1649 70.2516 70.6804H67.6462C67.4419 70.6804 67.1967 70.8866 67.1967 71.0825C67.1762 71.2783 67.3295 71.4227 67.5338 71.4227Z" fill="#ECECEC"/>
</g>
<g filter="url(#filter28_d_64_16)">
<path d="M275.073 42.6804C275.267 42.6804 275.461 42.5361 275.543 42.2784C275.676 41.7423 275.89 41.2268 276.227 40.5979C276.37 40.3814 276.319 40.0722 276.166 39.8969C275.87 39.3196 275.931 38.6804 276.34 38.268C276.779 37.8247 277.504 37.7629 277.995 38.134C278.056 38.1959 278.107 38.2268 278.23 38.2268H278.598L278.649 38.1959C279.119 37.8969 279.619 37.6907 280.273 37.5155C280.317 37.5065 280.359 37.489 280.396 37.4639H280.478L280.549 37.3918C280.611 37.3608 280.662 37.3101 280.692 37.2474C280.743 37.1856 280.764 37.134 280.764 37.0309C280.886 36.4227 281.397 36 282.041 36C282.685 36 283.195 36.4227 283.328 37.0825V37.1856L283.379 37.2268V37.2784L283.502 37.4021C283.553 37.5052 283.655 37.567 283.757 37.567H283.778C284.278 37.701 284.789 37.9072 285.402 38.2474L285.453 38.2784H285.903L285.954 38.2268H285.985L286.046 38.1856C286.536 37.8144 287.262 37.8763 287.701 38.3196C288.12 38.7835 288.171 39.4227 287.834 39.9897C287.701 40.1443 287.67 40.3608 287.752 40.6082C288.11 41.2783 288.324 41.7938 288.447 42.3093C288.529 42.5773 288.713 42.7216 288.937 42.732C289.571 42.8763 290 43.4021 290 44.0206C290 44.6701 289.581 45.1856 288.927 45.3196C288.713 45.3196 288.519 45.4948 288.498 45.7113C288.365 46.2268 288.161 46.732 287.824 47.3608C287.722 47.6598 287.762 47.8866 287.916 48.0412C288.263 48.5155 288.202 49.2474 287.762 49.6907C287.344 50.1134 286.669 50.1649 286.107 49.8247C285.954 49.6907 285.739 49.6598 285.494 49.7423C284.83 50.1031 284.319 50.3196 283.808 50.4433C283.543 50.5258 283.4 50.7113 283.39 50.9381C283.246 51.567 282.725 52 282.112 52C281.469 52 280.958 51.5773 280.835 50.9175C280.835 50.7217 280.692 50.5258 280.437 50.4433C279.905 50.3093 279.395 50.0928 278.771 49.7526C278.475 49.6495 278.25 49.6907 278.097 49.8454C277.596 50.1959 276.902 50.1443 276.462 49.6907L276.432 49.6701C275.982 49.2577 275.921 48.5258 276.125 48.0412C276.248 47.8866 276.278 47.6804 276.197 47.433C275.88 46.8351 275.645 46.2474 275.502 45.701V45.6804C275.502 45.6082 275.481 45.5567 275.451 45.5155V45.4845L275.379 45.4124C275.359 45.3711 275.328 45.3402 275.298 45.3093C275.257 45.2474 275.175 45.1959 275.022 45.1959C274.347 45.0928 274 44.6804 274 43.9588C274 43.3196 274.419 42.8041 275.073 42.6804ZM276.534 44.4227H279.139C279.241 44.9794 279.436 45.433 279.742 45.8454L277.883 47.7217C277.729 47.8763 277.729 48.0722 277.883 48.2268C277.934 48.2784 278.036 48.3299 278.138 48.3299C278.24 48.3299 278.342 48.2784 278.393 48.2268L280.253 46.3505C280.651 46.701 281.152 46.9072 281.663 46.9588V49.5876C281.663 49.7938 281.816 49.9381 282.01 49.9381C282.215 49.9381 282.358 49.7835 282.358 49.5876V46.9588C282.909 46.8557 283.359 46.6598 283.768 46.3505L285.627 48.2268C285.678 48.2784 285.78 48.3299 285.883 48.3299C285.985 48.3299 286.087 48.2784 286.138 48.2268C286.291 48.0722 286.291 47.8763 286.138 47.7217L284.278 45.8454C284.62 45.4453 284.831 44.9483 284.881 44.4227H287.487C287.691 44.4227 287.834 44.268 287.834 44.0722C287.834 43.866 287.681 43.7216 287.487 43.7216H284.973C284.871 43.1649 284.677 42.7113 284.37 42.299L286.23 40.4227C286.383 40.268 286.383 40.0722 286.23 39.9175C286.077 39.7629 285.883 39.7629 285.729 39.9175L283.87 41.7938C283.471 41.4433 282.971 41.2371 282.46 41.1856V38.5567C282.46 38.3505 282.307 38.2062 282.112 38.2062C281.908 38.2062 281.765 38.3608 281.765 38.5567V41.1443C281.213 41.2474 280.764 41.4433 280.355 41.7526L278.496 39.8763C278.342 39.7216 278.148 39.7216 277.995 39.8763C277.842 40.0309 277.842 40.2268 277.995 40.3814L279.854 42.2577C279.507 42.6598 279.303 43.1649 279.252 43.6804H276.646C276.442 43.6804 276.197 43.8866 276.197 44.0825C276.176 44.2783 276.33 44.4227 276.534 44.4227Z" fill="#ECECEC"/>
</g>
<g filter="url(#filter29_d_64_16)">
<path d="M256.073 46.6804C256.267 46.6804 256.461 46.5361 256.543 46.2784C256.676 45.7423 256.89 45.2268 257.227 44.5979C257.37 44.3814 257.319 44.0722 257.166 43.8969C256.87 43.3196 256.931 42.6804 257.34 42.268C257.779 41.8247 258.504 41.7629 258.995 42.134C259.056 42.1959 259.107 42.2268 259.23 42.2268H259.598L259.649 42.1959C260.119 41.8969 260.619 41.6907 261.273 41.5155C261.317 41.5065 261.359 41.489 261.396 41.4639H261.478L261.549 41.3918C261.611 41.3608 261.662 41.3101 261.692 41.2474C261.743 41.1856 261.764 41.134 261.764 41.0309C261.886 40.4227 262.397 40 263.041 40C263.685 40 264.195 40.4227 264.328 41.0825V41.1856L264.379 41.2268V41.2784L264.502 41.4021C264.553 41.5052 264.655 41.567 264.757 41.567H264.778C265.278 41.701 265.789 41.9072 266.402 42.2474L266.453 42.2784H266.903L266.954 42.2268H266.985L267.046 42.1856C267.536 41.8144 268.262 41.8763 268.701 42.3196C269.12 42.7835 269.171 43.4227 268.834 43.9897C268.701 44.1443 268.67 44.3608 268.752 44.6082C269.11 45.2783 269.324 45.7938 269.447 46.3093C269.529 46.5773 269.713 46.7216 269.937 46.732C270.571 46.8763 271 47.4021 271 48.0206C271 48.6701 270.581 49.1856 269.927 49.3196C269.713 49.3196 269.519 49.4948 269.498 49.7113C269.365 50.2268 269.161 50.732 268.824 51.3608C268.722 51.6598 268.762 51.8866 268.916 52.0412C269.263 52.5155 269.202 53.2474 268.762 53.6907C268.344 54.1134 267.669 54.1649 267.107 53.8247C266.954 53.6907 266.739 53.6598 266.494 53.7423C265.83 54.1031 265.319 54.3196 264.808 54.4433C264.543 54.5258 264.4 54.7113 264.39 54.9381C264.246 55.567 263.725 56 263.112 56C262.469 56 261.958 55.5773 261.835 54.9175C261.835 54.7217 261.692 54.5258 261.437 54.4433C260.905 54.3093 260.395 54.0928 259.771 53.7526C259.475 53.6495 259.25 53.6907 259.097 53.8454C258.596 54.1959 257.902 54.1443 257.462 53.6907L257.432 53.6701C256.982 53.2577 256.921 52.5258 257.125 52.0412C257.248 51.8866 257.278 51.6804 257.197 51.433C256.88 50.8351 256.645 50.2474 256.502 49.701V49.6804C256.502 49.6082 256.481 49.5567 256.451 49.5155V49.4845L256.379 49.4124C256.359 49.3711 256.328 49.3402 256.298 49.3093C256.257 49.2474 256.175 49.1959 256.022 49.1959C255.347 49.0928 255 48.6804 255 47.9588C255 47.3196 255.419 46.8041 256.073 46.6804ZM257.534 48.4227H260.139C260.241 48.9794 260.436 49.433 260.742 49.8454L258.883 51.7217C258.729 51.8763 258.729 52.0722 258.883 52.2268C258.934 52.2784 259.036 52.3299 259.138 52.3299C259.24 52.3299 259.342 52.2784 259.393 52.2268L261.253 50.3505C261.651 50.701 262.152 50.9072 262.663 50.9588V53.5876C262.663 53.7938 262.816 53.9381 263.01 53.9381C263.215 53.9381 263.358 53.7835 263.358 53.5876V50.9588C263.909 50.8557 264.359 50.6598 264.768 50.3505L266.627 52.2268C266.678 52.2784 266.78 52.3299 266.883 52.3299C266.985 52.3299 267.087 52.2784 267.138 52.2268C267.291 52.0722 267.291 51.8763 267.138 51.7217L265.278 49.8454C265.62 49.4453 265.831 48.9483 265.881 48.4227H268.487C268.691 48.4227 268.834 48.268 268.834 48.0722C268.834 47.866 268.681 47.7216 268.487 47.7216H265.973C265.871 47.1649 265.677 46.7113 265.37 46.299L267.23 44.4227C267.383 44.268 267.383 44.0722 267.23 43.9175C267.077 43.7629 266.883 43.7629 266.729 43.9175L264.87 45.7938C264.471 45.4433 263.971 45.2371 263.46 45.1856V42.5567C263.46 42.3505 263.307 42.2062 263.112 42.2062C262.908 42.2062 262.765 42.3608 262.765 42.5567V45.1443C262.213 45.2474 261.764 45.4433 261.355 45.7526L259.496 43.8763C259.342 43.7216 259.148 43.7216 258.995 43.8763C258.842 44.0309 258.842 44.2268 258.995 44.3814L260.854 46.2577C260.507 46.6598 260.303 47.1649 260.252 47.6804H257.646C257.442 47.6804 257.197 47.8866 257.197 48.0825C257.176 48.2783 257.33 48.4227 257.534 48.4227Z" fill="#ECECEC"/>
</g>
<g filter="url(#filter30_d_64_16)">
<path d="M237.073 49.6804C237.267 49.6804 237.461 49.5361 237.543 49.2784C237.676 48.7423 237.89 48.2268 238.227 47.5979C238.37 47.3814 238.319 47.0722 238.166 46.8969C237.87 46.3196 237.931 45.6804 238.34 45.268C238.779 44.8247 239.504 44.7629 239.995 45.134C240.056 45.1959 240.107 45.2268 240.23 45.2268H240.598L240.649 45.1959C241.119 44.8969 241.619 44.6907 242.273 44.5155C242.317 44.5065 242.359 44.489 242.396 44.4639H242.478L242.549 44.3918C242.611 44.3608 242.662 44.3101 242.692 44.2474C242.743 44.1856 242.764 44.134 242.764 44.0309C242.886 43.4227 243.397 43 244.041 43C244.685 43 245.195 43.4227 245.328 44.0825V44.1856L245.379 44.2268V44.2784L245.502 44.4021C245.553 44.5052 245.655 44.567 245.757 44.567H245.778C246.278 44.701 246.789 44.9072 247.402 45.2474L247.453 45.2784H247.903L247.954 45.2268H247.985L248.046 45.1856C248.536 44.8144 249.262 44.8763 249.701 45.3196C250.12 45.7835 250.171 46.4227 249.834 46.9897C249.701 47.1443 249.67 47.3608 249.752 47.6082C250.11 48.2783 250.324 48.7938 250.447 49.3093C250.529 49.5773 250.713 49.7216 250.937 49.732C251.571 49.8763 252 50.4021 252 51.0206C252 51.6701 251.581 52.1856 250.927 52.3196C250.713 52.3196 250.519 52.4948 250.498 52.7113C250.365 53.2268 250.161 53.732 249.824 54.3608C249.722 54.6598 249.762 54.8866 249.916 55.0412C250.263 55.5155 250.202 56.2474 249.762 56.6907C249.344 57.1134 248.669 57.1649 248.107 56.8247C247.954 56.6907 247.739 56.6598 247.494 56.7423C246.83 57.1031 246.319 57.3196 245.808 57.4433C245.543 57.5258 245.4 57.7113 245.39 57.9381C245.246 58.567 244.725 59 244.112 59C243.469 59 242.958 58.5773 242.835 57.9175C242.835 57.7217 242.692 57.5258 242.437 57.4433C241.905 57.3093 241.395 57.0928 240.771 56.7526C240.475 56.6495 240.25 56.6907 240.097 56.8454C239.596 57.1959 238.902 57.1443 238.462 56.6907L238.432 56.6701C237.982 56.2577 237.921 55.5258 238.125 55.0412C238.248 54.8866 238.278 54.6804 238.197 54.433C237.88 53.8351 237.645 53.2474 237.502 52.701V52.6804C237.502 52.6082 237.481 52.5567 237.451 52.5155V52.4845L237.379 52.4124C237.359 52.3711 237.328 52.3402 237.298 52.3093C237.257 52.2474 237.175 52.1959 237.022 52.1959C236.347 52.0928 236 51.6804 236 50.9588C236 50.3196 236.419 49.8041 237.073 49.6804ZM238.534 51.4227H241.139C241.241 51.9794 241.436 52.433 241.742 52.8454L239.883 54.7217C239.729 54.8763 239.729 55.0722 239.883 55.2268C239.934 55.2784 240.036 55.3299 240.138 55.3299C240.24 55.3299 240.342 55.2784 240.393 55.2268L242.253 53.3505C242.651 53.701 243.152 53.9072 243.663 53.9588V56.5876C243.663 56.7938 243.816 56.9381 244.01 56.9381C244.215 56.9381 244.358 56.7835 244.358 56.5876V53.9588C244.909 53.8557 245.359 53.6598 245.768 53.3505L247.627 55.2268C247.678 55.2784 247.78 55.3299 247.883 55.3299C247.985 55.3299 248.087 55.2784 248.138 55.2268C248.291 55.0722 248.291 54.8763 248.138 54.7217L246.278 52.8454C246.62 52.4453 246.831 51.9483 246.881 51.4227H249.487C249.691 51.4227 249.834 51.268 249.834 51.0722C249.834 50.866 249.681 50.7216 249.487 50.7216H246.973C246.871 50.1649 246.677 49.7113 246.37 49.299L248.23 47.4227C248.383 47.268 248.383 47.0722 248.23 46.9175C248.077 46.7629 247.883 46.7629 247.729 46.9175L245.87 48.7938C245.471 48.4433 244.971 48.2371 244.46 48.1856V45.5567C244.46 45.3505 244.307 45.2062 244.112 45.2062C243.908 45.2062 243.765 45.3608 243.765 45.5567V48.1443C243.213 48.2474 242.764 48.4433 242.355 48.7526L240.496 46.8763C240.342 46.7216 240.148 46.7216 239.995 46.8763C239.842 47.0309 239.842 47.2268 239.995 47.3814L241.854 49.2577C241.507 49.6598 241.303 50.1649 241.252 50.6804H238.646C238.442 50.6804 238.197 50.8866 238.197 51.0825C238.176 51.2783 238.33 51.4227 238.534 51.4227Z" fill="#ECECEC"/>
</g>
</g>
<defs>
<filter id="filter0_i_64_16" x="9" y="3" width="287" height="88" filterUnits="userSpaceOnUse" color-interpolation-filters="sRGB">
<feFlood flood-opacity="0" result="BackgroundImageFix"/>
<feBlend mode="normal" in="SourceGraphic" in2="BackgroundImageFix" result="shape"/>
<feColorMatrix in="SourceAlpha" type="matrix" values="0 0 0 0 0 0 0 0 0 0 0 0 0 0 0 0 0 0 127 0" result="hardAlpha"/>
<feOffset/>
<feGaussianBlur stdDeviation="3"/>
<feComposite in2="hardAlpha" operator="arithmetic" k2="-1" k3="1"/>
<feColorMatrix type="matrix" values="0 0 0 0 0.0156863 0 0 0 0 0.270588 0 0 0 0 0.380392 0 0 0 1 0"/>
<feBlend mode="normal" in2="shape" result="effect1_innerShadow_64_16"/>
</filter>
<filter id="filter1_d_64_16" x="272" y="49" width="20" height="6" filterUnits="userSpaceOnUse" color-interpolation-filters="sRGB">
<feFlood flood-opacity="0" result="BackgroundImageFix"/>
<feColorMatrix in="SourceAlpha" type="matrix" values="0 0 0 0 0 0 0 0 0 0 0 0 0 0 0 0 0 0 127 0" result="hardAlpha"/>
<feOffset dy="1"/>
<feGaussianBlur stdDeviation="1"/>
<feComposite in2="hardAlpha" operator="out"/>
<feColorMatrix type="matrix" values="0 0 0 0 0.0156863 0 0 0 0 0.270588 0 0 0 0 0.380392 0 0 0 0.55 0"/>
<feBlend mode="normal" in2="BackgroundImageFix" result="effect1_dropShadow_64_16"/>
<feBlend mode="normal" in="SourceGraphic" in2="effect1_dropShadow_64_16" result="shape"/>
</filter>
<filter id="filter2_d_64_16" x="177" y="66" width="20" height="6" filterUnits="userSpaceOnUse" color-interpolation-filters="sRGB">
<feFlood flood-opacity="0" result="BackgroundImageFix"/>
<feColorMatrix in="SourceAlpha" type="matrix" values="0 0 0 0 0 0 0 0 0 0 0 0 0 0 0 0 0 0 127 0" result="hardAlpha"/>
<feOffset dy="1"/>
<feGaussianBlur stdDeviation="1"/>
<feComposite in2="hardAlpha" operator="out"/>
<feColorMatrix type="matrix" values="0 0 0 0 0.0156863 0 0 0 0 0.270588 0 0 0 0 0.380392 0 0 0 0.55 0"/>
<feBlend mode="normal" in2="BackgroundImageFix" result="effect1_dropShadow_64_16"/>
<feBlend mode="normal" in="SourceGraphic" in2="effect1_dropShadow_64_16" result="shape"/>
</filter>
<filter id="filter3_d_64_16" x="101" y="74" width="20" height="6" filterUnits="userSpaceOnUse" color-interpolation-filters="sRGB">
<feFlood flood-opacity="0" result="BackgroundImageFix"/>
<feColorMatrix in="SourceAlpha" type="matrix" values="0 0 0 0 0 0 0 0 0 0 0 0 0 0 0 0 0 0 127 0" result="hardAlpha"/>
<feOffset dy="1"/>
<feGaussianBlur stdDeviation="1"/>
<feComposite in2="hardAlpha" operator="out"/>
<feColorMatrix type="matrix" values="0 0 0 0 0.0156863 0 0 0 0 0.270588 0 0 0 0 0.380392 0 0 0 0.55 0"/>
<feBlend mode="normal" in2="BackgroundImageFix" result="effect1_dropShadow_64_16"/>
<feBlend mode="normal" in="SourceGraphic" in2="effect1_dropShadow_64_16" result="shape"/>
</filter>
<filter id="filter4_d_64_16" x="82" y="76" width="20" height="6" filterUnits="userSpaceOnUse" color-interpolation-filters="sRGB">
<feFlood flood-opacity="0" result="BackgroundImageFix"/>
<feColorMatrix in="SourceAlpha" type="matrix" values="0 0 0 0 0 0 0 0 0 0 0 0 0 0 0 0 0 0 127 0" result="hardAlpha"/>
<feOffset dy="1"/>
<feGaussianBlur stdDeviation="1"/>
<feComposite in2="hardAlpha" operator="out"/>
<feColorMatrix type="matrix" values="0 0 0 0 0.0156863 0 0 0 0 0.270588 0 0 0 0 0.380392 0 0 0 0.55 0"/>
<feBlend mode="normal" in2="BackgroundImageFix" result="effect1_dropShadow_64_16"/>
<feBlend mode="normal" in="SourceGraphic" in2="effect1_dropShadow_64_16" result="shape"/>
</filter>
<filter id="filter5_d_64_16" x="63" y="76" width="20" height="6" filterUnits="userSpaceOnUse" color-interpolation-filters="sRGB">
<feFlood flood-opacity="0" result="BackgroundImageFix"/>
<feColorMatrix in="SourceAlpha" type="matrix" values="0 0 0 0 0 0 0 0 0 0 0 0 0 0 0 0 0 0 127 0" result="hardAlpha"/>
<feOffset dy="1"/>
<feGaussianBlur stdDeviation="1"/>
<feComposite in2="hardAlpha" operator="out"/>
<feColorMatrix type="matrix" values="0 0 0 0 0.0156863 0 0 0 0 0.270588 0 0 0 0 0.380392 0 0 0 0.55 0"/>
<feBlend mode="normal" in2="BackgroundImageFix" result="effect1_dropShadow_64_16"/>
<feBlend mode="normal" in="SourceGraphic" in2="effect1_dropShadow_64_16" result="shape"/>
</filter>
<filter id="filter6_d_64_16" x="158" y="68" width="20" height="6" filterUnits="userSpaceOnUse" color-interpolation-filters="sRGB">
<feFlood flood-opacity="0" result="BackgroundImageFix"/>
<feColorMatrix in="SourceAlpha" type="matrix" values="0 0 0 0 0 0 0 0 0 0 0 0 0 0 0 0 0 0 127 0" result="hardAlpha"/>
<feOffset dy="1"/>
<feGaussianBlur stdDeviation="1"/>
<feComposite in2="hardAlpha" operator="out"/>
<feColorMatrix type="matrix" values="0 0 0 0 0.0156863 0 0 0 0 0.270588 0 0 0 0 0.380392 0 0 0 0.55 0"/>
<feBlend mode="normal" in2="BackgroundImageFix" result="effect1_dropShadow_64_16"/>
<feBlend mode="normal" in="SourceGraphic" in2="effect1_dropShadow_64_16" result="shape"/>
</filter>
<filter id="filter7_d_64_16" x="139" y="70" width="20" height="6" filterUnits="userSpaceOnUse" color-interpolation-filters="sRGB">
<feFlood flood-opacity="0" result="BackgroundImageFix"/>
<feColorMatrix in="SourceAlpha" type="matrix" values="0 0 0 0 0 0 0 0 0 0 0 0 0 0 0 0 0 0 127 0" result="hardAlpha"/>
<feOffset dy="1"/>
<feGaussianBlur stdDeviation="1"/>
<feComposite in2="hardAlpha" operator="out"/>
<feColorMatrix type="matrix" values="0 0 0 0 0.0156863 0 0 0 0 0.270588 0 0 0 0 0.380392 0 0 0 0.55 0"/>
<feBlend mode="normal" in2="BackgroundImageFix" result="effect1_dropShadow_64_16"/>
<feBlend mode="normal" in="SourceGraphic" in2="effect1_dropShadow_64_16" result="shape"/>
</filter>
<filter id="filter8_d_64_16" x="120" y="72" width="20" height="6" filterUnits="userSpaceOnUse" color-interpolation-filters="sRGB">
<feFlood flood-opacity="0" result="BackgroundImageFix"/>
<feColorMatrix in="SourceAlpha" type="matrix" values="0 0 0 0 0 0 0 0 0 0 0 0 0 0 0 0 0 0 127 0" result="hardAlpha"/>
<feOffset dy="1"/>
<feGaussianBlur stdDeviation="1"/>
<feComposite in2="hardAlpha" operator="out"/>
<feColorMatrix type="matrix" values="0 0 0 0 0.0156863 0 0 0 0 0.270588 0 0 0 0 0.380392 0 0 0 0.55 0"/>
<feBlend mode="normal" in2="BackgroundImageFix" result="effect1_dropShadow_64_16"/>
<feBlend mode="normal" in="SourceGraphic" in2="effect1_dropShadow_64_16" result="shape"/>
</filter>
<filter id="filter9_i_64_16" x="121" y="75" width="73" height="16" filterUnits="userSpaceOnUse" color-interpolation-filters="sRGB">
<feFlood flood-opacity="0" result="BackgroundImageFix"/>
<feBlend mode="normal" in="SourceGraphic" in2="BackgroundImageFix" result="shape"/>
<feColorMatrix in="SourceAlpha" type="matrix" values="0 0 0 0 0 0 0 0 0 0 0 0 0 0 0 0 0 0 127 0" result="hardAlpha"/>
<feOffset/>
<feGaussianBlur stdDeviation="3"/>
<feComposite in2="hardAlpha" operator="arithmetic" k2="-1" k3="1"/>
<feColorMatrix type="matrix" values="0 0 0 0 0.0156863 0 0 0 0 0.270588 0 0 0 0 0.380392 0 0 0 1 0"/>
<feBlend mode="normal" in2="shape" result="effect1_innerShadow_64_16"/>
</filter>
<filter id="filter10_i_64_16" x="67" y="84" width="56" height="7" filterUnits="userSpaceOnUse" color-interpolation-filters="sRGB">
<feFlood flood-opacity="0" result="BackgroundImageFix"/>
<feBlend mode="normal" in="SourceGraphic" in2="BackgroundImageFix" result="shape"/>
<feColorMatrix in="SourceAlpha" type="matrix" values="0 0 0 0 0 0 0 0 0 0 0 0 0 0 0 0 0 0 127 0" result="hardAlpha"/>
<feOffset/>
<feGaussianBlur stdDeviation="3"/>
<feComposite in2="hardAlpha" operator="arithmetic" k2="-1" k3="1"/>
<feColorMatrix type="matrix" values="0 0 0 0 0.0156863 0 0 0 0 0.270588 0 0 0 0 0.380392 0 0 0 1 0"/>
<feBlend mode="normal" in2="shape" result="effect1_innerShadow_64_16"/>
</filter>
<filter id="filter11_d_64_16" x="253" y="53" width="20" height="6" filterUnits="userSpaceOnUse" color-interpolation-filters="sRGB">
<feFlood flood-opacity="0" result="BackgroundImageFix"/>
<feColorMatrix in="SourceAlpha" type="matrix" values="0 0 0 0 0 0 0 0 0 0 0 0 0 0 0 0 0 0 127 0" result="hardAlpha"/>
<feOffset dy="1"/>
<feGaussianBlur stdDeviation="1"/>
<feComposite in2="hardAlpha" operator="out"/>
<feColorMatrix type="matrix" values="0 0 0 0 0.0156863 0 0 0 0 0.270588 0 0 0 0 0.380392 0 0 0 0.55 0"/>
<feBlend mode="normal" in2="BackgroundImageFix" result="effect1_dropShadow_64_16"/>
<feBlend mode="normal" in="SourceGraphic" in2="effect1_dropShadow_64_16" result="shape"/>
</filter>
<filter id="filter12_d_64_16" x="234" y="56" width="20" height="6" filterUnits="userSpaceOnUse" color-interpolation-filters="sRGB">
<feFlood flood-opacity="0" result="BackgroundImageFix"/>
<feColorMatrix in="SourceAlpha" type="matrix" values="0 0 0 0 0 0 0 0 0 0 0 0 0 0 0 0 0 0 127 0" result="hardAlpha"/>
<feOffset dy="1"/>
<feGaussianBlur stdDeviation="1"/>
<feComposite in2="hardAlpha" operator="out"/>
<feColorMatrix type="matrix" values="0 0 0 0 0.0156863 0 0 0 0 0.270588 0 0 0 0 0.380392 0 0 0 0.55 0"/>
<feBlend mode="normal" in2="BackgroundImageFix" result="effect1_dropShadow_64_16"/>
<feBlend mode="normal" in="SourceGraphic" in2="effect1_dropShadow_64_16" result="shape"/>
</filter>
<filter id="filter13_d_64_16" x="215" y="60" width="20" height="6" filterUnits="userSpaceOnUse" color-interpolation-filters="sRGB">
<feFlood flood-opacity="0" result="BackgroundImageFix"/>
<feColorMatrix in="SourceAlpha" type="matrix" values="0 0 0 0 0 0 0 0 0 0 0 0 0 0 0 0 0 0 127 0" result="hardAlpha"/>
<feOffset dy="1"/>
<feGaussianBlur stdDeviation="1"/>
<feComposite in2="hardAlpha" operator="out"/>
<feColorMatrix type="matrix" values="0 0 0 0 0.0156863 0 0 0 0 0.270588 0 0 0 0 0.380392 0 0 0 0.55 0"/>
<feBlend mode="normal" in2="BackgroundImageFix" result="effect1_dropShadow_64_16"/>
<feBlend mode="normal" in="SourceGraphic" in2="effect1_dropShadow_64_16" result="shape"/>
</filter>
<filter id="filter14_i_64_16" x="192" y="64" width="35" height="27" filterUnits="userSpaceOnUse" color-interpolation-filters="sRGB">
<feFlood flood-opacity="0" result="BackgroundImageFix"/>
<feBlend mode="normal" in="SourceGraphic" in2="BackgroundImageFix" result="shape"/>
<feColorMatrix in="SourceAlpha" type="matrix" values="0 0 0 0 0 0 0 0 0 0 0 0 0 0 0 0 0 0 127 0" result="hardAlpha"/>
<feOffset/>
<feGaussianBlur stdDeviation="3"/>
<feComposite in2="hardAlpha" operator="arithmetic" k2="-1" k3="1"/>
<feColorMatrix type="matrix" values="0 0 0 0 0.0156863 0 0 0 0 0.270588 0 0 0 0 0.380392 0 0 0 1 0"/>
<feBlend mode="normal" in2="shape" result="effect1_innerShadow_64_16"/>
</filter>
<filter id="filter15_i_64_16" x="226" y="64" width="36" height="27" filterUnits="userSpaceOnUse" color-interpolation-filters="sRGB">
<feFlood flood-opacity="0" result="BackgroundImageFix"/>
<feBlend mode="normal" in="SourceGraphic" in2="BackgroundImageFix" result="shape"/>
<feColorMatrix in="SourceAlpha" type="matrix" values="0 0 0 0 0 0 0 0 0 0 0 0 0 0 0 0 0 0 127 0" result="hardAlpha"/>
<feOffset/>
<feGaussianBlur stdDeviation="3"/>
<feComposite in2="hardAlpha" operator="arithmetic" k2="-1" k3="1"/>
<feColorMatrix type="matrix" values="0 0 0 0 0.0156863 0 0 0 0 0.270588 0 0 0 0 0.380392 0 0 0 1 0"/>
<feBlend mode="normal" in2="shape" result="effect1_innerShadow_64_16"/>
</filter>
<filter id="filter16_i_64_16" x="261" y="64" width="35" height="27" filterUnits="userSpaceOnUse" color-interpolation-filters="sRGB">
<feFlood flood-opacity="0" result="BackgroundImageFix"/>
<feBlend mode="normal" in="SourceGraphic" in2="BackgroundImageFix" result="shape"/>
<feColorMatrix in="SourceAlpha" type="matrix" values="0 0 0 0 0 0 0 0 0 0 0 0 0 0 0 0 0 0 127 0" result="hardAlpha"/>
<feOffset/>
<feGaussianBlur stdDeviation="3"/>
<feComposite in2="hardAlpha" operator="arithmetic" k2="-1" k3="1"/>
<feColorMatrix type="matrix" values="0 0 0 0 0.0156863 0 0 0 0 0.270588 0 0 0 0 0.380392 0 0 0 1 0"/>
<feBlend mode="normal" in2="shape" result="effect1_innerShadow_64_16"/>
</filter>
<filter id="filter17_d_64_16" x="5" y="95" width="49" height="6" filterUnits="userSpaceOnUse" color-interpolation-filters="sRGB">
<feFlood flood-opacity="0" result="BackgroundImageFix"/>
<feColorMatrix in="SourceAlpha" type="matrix" values="0 0 0 0 0 0 0 0 0 0 0 0 0 0 0 0 0 0 127 0" result="hardAlpha"/>
<feOffset dy="1"/>
<feGaussianBlur stdDeviation="1"/>
<feComposite in2="hardAlpha" operator="out"/>
<feColorMatrix type="matrix" values="0 0 0 0 0.0156863 0 0 0 0 0.270588 0 0 0 0 0.380392 0 0 0 0.55 0"/>
<feBlend mode="normal" in2="BackgroundImageFix" result="effect1_dropShadow_64_16"/>
<feBlend mode="normal" in="SourceGraphic" in2="effect1_dropShadow_64_16" result="shape"/>
</filter>
<filter id="filter18_d_64_16" x="8.5" y="86" width="42" height="6" filterUnits="userSpaceOnUse" color-interpolation-filters="sRGB">
<feFlood flood-opacity="0" result="BackgroundImageFix"/>
<feColorMatrix in="SourceAlpha" type="matrix" values="0 0 0 0 0 0 0 0 0 0 0 0 0 0 0 0 0 0 127 0" result="hardAlpha"/>
<feOffset dy="1"/>
<feGaussianBlur stdDeviation="1"/>
<feComposite in2="hardAlpha" operator="out"/>
<feColorMatrix type="matrix" values="0 0 0 0 0.0156863 0 0 0 0 0.270588 0 0 0 0 0.380392 0 0 0 0.55 0"/>
<feBlend mode="normal" in2="BackgroundImageFix" result="effect1_dropShadow_64_16"/>
<feBlend mode="normal" in="SourceGraphic" in2="effect1_dropShadow_64_16" result="shape"/>
</filter>
<filter id="filter19_d_64_16" x="215" y="47" width="20" height="20" filterUnits="userSpaceOnUse" color-interpolation-filters="sRGB">
<feFlood flood-opacity="0" result="BackgroundImageFix"/>
<feColorMatrix in="SourceAlpha" type="matrix" values="0 0 0 0 0 0 0 0 0 0 0 0 0 0 0 0 0 0 127 0" result="hardAlpha"/>
<feOffset dy="2"/>
<feGaussianBlur stdDeviation="1"/>
<feComposite in2="hardAlpha" operator="out"/>
<feColorMatrix type="matrix" values="0 0 0 0 0.0156863 0 0 0 0 0.270588 0 0 0 0 0.380392 0 0 0 0.55 0"/>
<feBlend mode="normal" in2="BackgroundImageFix" result="effect1_dropShadow_64_16"/>
<feBlend mode="normal" in="SourceGraphic" in2="effect1_dropShadow_64_16" result="shape"/>
</filter>
<filter id="filter20_d_64_16" x="196" y="50" width="20" height="20" filterUnits="userSpaceOnUse" color-interpolation-filters="sRGB">
<feFlood flood-opacity="0" result="BackgroundImageFix"/>
<feColorMatrix in="SourceAlpha" type="matrix" values="0 0 0 0 0 0 0 0 0 0 0 0 0 0 0 0 0 0 127 0" result="hardAlpha"/>
<feOffset dy="2"/>
<feGaussianBlur stdDeviation="1"/>
<feComposite in2="hardAlpha" operator="out"/>
<feColorMatrix type="matrix" values="0 0 0 0 0.0156863 0 0 0 0 0.270588 0 0 0 0 0.380392 0 0 0 0.55 0"/>
<feBlend mode="normal" in2="BackgroundImageFix" result="effect1_dropShadow_64_16"/>
<feBlend mode="normal" in="SourceGraphic" in2="effect1_dropShadow_64_16" result="shape"/>
</filter>
<filter id="filter21_d_64_16" x="177" y="53" width="20" height="20" filterUnits="userSpaceOnUse" color-interpolation-filters="sRGB">
<feFlood flood-opacity="0" result="BackgroundImageFix"/>
<feColorMatrix in="SourceAlpha" type="matrix" values="0 0 0 0 0 0 0 0 0 0 0 0 0 0 0 0 0 0 127 0" result="hardAlpha"/>
<feOffset dy="2"/>
<feGaussianBlur stdDeviation="1"/>
<feComposite in2="hardAlpha" operator="out"/>
<feColorMatrix type="matrix" values="0 0 0 0 0.0156863 0 0 0 0 0.270588 0 0 0 0 0.380392 0 0 0 0.55 0"/>
<feBlend mode="normal" in2="BackgroundImageFix" result="effect1_dropShadow_64_16"/>
<feBlend mode="normal" in="SourceGraphic" in2="effect1_dropShadow_64_16" result="shape"/>
</filter>
<filter id="filter22_d_64_16" x="158" y="55" width="20" height="20" filterUnits="userSpaceOnUse" color-interpolation-filters="sRGB">
<feFlood flood-opacity="0" result="BackgroundImageFix"/>
<feColorMatrix in="SourceAlpha" type="matrix" values="0 0 0 0 0 0 0 0 0 0 0 0 0 0 0 0 0 0 127 0" result="hardAlpha"/>
<feOffset dy="2"/>
<feGaussianBlur stdDeviation="1"/>
<feComposite in2="hardAlpha" operator="out"/>
<feColorMatrix type="matrix" values="0 0 0 0 0.0156863 0 0 0 0 0.270588 0 0 0 0 0.380392 0 0 0 0.55 0"/>
<feBlend mode="normal" in2="BackgroundImageFix" result="effect1_dropShadow_64_16"/>
<feBlend mode="normal" in="SourceGraphic" in2="effect1_dropShadow_64_16" result="shape"/>
</filter>
<filter id="filter23_d_64_16" x="139" y="57" width="20" height="20" filterUnits="userSpaceOnUse" color-interpolation-filters="sRGB">
<feFlood flood-opacity="0" result="BackgroundImageFix"/>
<feColorMatrix in="SourceAlpha" type="matrix" values="0 0 0 0 0 0 0 0 0 0 0 0 0 0 0 0 0 0 127 0" result="hardAlpha"/>
<feOffset dy="2"/>
<feGaussianBlur stdDeviation="1"/>
<feComposite in2="hardAlpha" operator="out"/>
<feColorMatrix type="matrix" values="0 0 0 0 0.0156863 0 0 0 0 0.270588 0 0 0 0 0.380392 0 0 0 0.55 0"/>
<feBlend mode="normal" in2="BackgroundImageFix" result="effect1_dropShadow_64_16"/>
<feBlend mode="normal" in="SourceGraphic" in2="effect1_dropShadow_64_16" result="shape"/>
</filter>
<filter id="filter24_d_64_16" x="120" y="59" width="20" height="20" filterUnits="userSpaceOnUse" color-interpolation-filters="sRGB">
<feFlood flood-opacity="0" result="BackgroundImageFix"/>
<feColorMatrix in="SourceAlpha" type="matrix" values="0 0 0 0 0 0 0 0 0 0 0 0 0 0 0 0 0 0 127 0" result="hardAlpha"/>
<feOffset dy="2"/>
<feGaussianBlur stdDeviation="1"/>
<feComposite in2="hardAlpha" operator="out"/>
<feColorMatrix type="matrix" values="0 0 0 0 0.0156863 0 0 0 0 0.270588 0 0 0 0 0.380392 0 0 0 0.55 0"/>
<feBlend mode="normal" in2="BackgroundImageFix" result="effect1_dropShadow_64_16"/>
<feBlend mode="normal" in="SourceGraphic" in2="effect1_dropShadow_64_16" result="shape"/>
</filter>
<filter id="filter25_d_64_16" x="101" y="61" width="20" height="20" filterUnits="userSpaceOnUse" color-interpolation-filters="sRGB">
<feFlood flood-opacity="0" result="BackgroundImageFix"/>
<feColorMatrix in="SourceAlpha" type="matrix" values="0 0 0 0 0 0 0 0 0 0 0 0 0 0 0 0 0 0 127 0" result="hardAlpha"/>
<feOffset dy="2"/>
<feGaussianBlur stdDeviation="1"/>
<feComposite in2="hardAlpha" operator="out"/>
<feColorMatrix type="matrix" values="0 0 0 0 0.0156863 0 0 0 0 0.270588 0 0 0 0 0.380392 0 0 0 0.55 0"/>
<feBlend mode="normal" in2="BackgroundImageFix" result="effect1_dropShadow_64_16"/>
<feBlend mode="normal" in="SourceGraphic" in2="effect1_dropShadow_64_16" result="shape"/>
</filter>
<filter id="filter26_d_64_16" x="82" y="63" width="20" height="20" filterUnits="userSpaceOnUse" color-interpolation-filters="sRGB">
<feFlood flood-opacity="0" result="BackgroundImageFix"/>
<feColorMatrix in="SourceAlpha" type="matrix" values="0 0 0 0 0 0 0 0 0 0 0 0 0 0 0 0 0 0 127 0" result="hardAlpha"/>
<feOffset dy="2"/>
<feGaussianBlur stdDeviation="1"/>
<feComposite in2="hardAlpha" operator="out"/>
<feColorMatrix type="matrix" values="0 0 0 0 0.0156863 0 0 0 0 0.270588 0 0 0 0 0.380392 0 0 0 0.55 0"/>
<feBlend mode="normal" in2="BackgroundImageFix" result="effect1_dropShadow_64_16"/>
<feBlend mode="normal" in="SourceGraphic" in2="effect1_dropShadow_64_16" result="shape"/>
</filter>
<filter id="filter27_d_64_16" x="63" y="63" width="20" height="20" filterUnits="userSpaceOnUse" color-interpolation-filters="sRGB">
<feFlood flood-opacity="0" result="BackgroundImageFix"/>
<feColorMatrix in="SourceAlpha" type="matrix" values="0 0 0 0 0 0 0 0 0 0 0 0 0 0 0 0 0 0 127 0" result="hardAlpha"/>
<feOffset dy="2"/>
<feGaussianBlur stdDeviation="1"/>
<feComposite in2="hardAlpha" operator="out"/>
<feColorMatrix type="matrix" values="0 0 0 0 0.0156863 0 0 0 0 0.270588 0 0 0 0 0.380392 0 0 0 0.55 0"/>
<feBlend mode="normal" in2="BackgroundImageFix" result="effect1_dropShadow_64_16"/>
<feBlend mode="normal" in="SourceGraphic" in2="effect1_dropShadow_64_16" result="shape"/>
</filter>
<filter id="filter28_d_64_16" x="272" y="36" width="20" height="20" filterUnits="userSpaceOnUse" color-interpolation-filters="sRGB">
<feFlood flood-opacity="0" result="BackgroundImageFix"/>
<feColorMatrix in="SourceAlpha" type="matrix" values="0 0 0 0 0 0 0 0 0 0 0 0 0 0 0 0 0 0 127 0" result="hardAlpha"/>
<feOffset dy="2"/>
<feGaussianBlur stdDeviation="1"/>
<feComposite in2="hardAlpha" operator="out"/>
<feColorMatrix type="matrix" values="0 0 0 0 0.0156863 0 0 0 0 0.270588 0 0 0 0 0.380392 0 0 0 0.55 0"/>
<feBlend mode="normal" in2="BackgroundImageFix" result="effect1_dropShadow_64_16"/>
<feBlend mode="normal" in="SourceGraphic" in2="effect1_dropShadow_64_16" result="shape"/>
</filter>
<filter id="filter29_d_64_16" x="253" y="40" width="20" height="20" filterUnits="userSpaceOnUse" color-interpolation-filters="sRGB">
<feFlood flood-opacity="0" result="BackgroundImageFix"/>
<feColorMatrix in="SourceAlpha" type="matrix" values="0 0 0 0 0 0 0 0 0 0 0 0 0 0 0 0 0 0 127 0" result="hardAlpha"/>
<feOffset dy="2"/>
<feGaussianBlur stdDeviation="1"/>
<feComposite in2="hardAlpha" operator="out"/>
<feColorMatrix type="matrix" values="0 0 0 0 0.0156863 0 0 0 0 0.270588 0 0 0 0 0.380392 0 0 0 0.55 0"/>
<feBlend mode="normal" in2="BackgroundImageFix" result="effect1_dropShadow_64_16"/>
<feBlend mode="normal" in="SourceGraphic" in2="effect1_dropShadow_64_16" result="shape"/>
</filter>
<filter id="filter30_d_64_16" x="234" y="43" width="20" height="20" filterUnits="userSpaceOnUse" color-interpolation-filters="sRGB">
<feFlood flood-opacity="0" result="BackgroundImageFix"/>
<feColorMatrix in="SourceAlpha" type="matrix" values="0 0 0 0 0 0 0 0 0 0 0 0 0 0 0 0 0 0 127 0" result="hardAlpha"/>
<feOffset dy="2"/>
<feGaussianBlur stdDeviation="1"/>
<feComposite in2="hardAlpha" operator="out"/>
<feColorMatrix type="matrix" values="0 0 0 0 0.0156863 0 0 0 0 0.270588 0 0 0 0 0.380392 0 0 0 0.55 0"/>
<feBlend mode="normal" in2="BackgroundImageFix" result="effect1_dropShadow_64_16"/>
<feBlend mode="normal" in="SourceGraphic" in2="effect1_dropShadow_64_16" result="shape"/>
</filter>
<clipPath id="clip0_64_16">
<rect width="307" height="100" fill="white"/>
</clipPath>
</defs>
</svg>
