<svg width="100" height="100" viewBox="0 0 100 100" fill="none" xmlns="http://www.w3.org/2000/svg">
<g filter="url(#filter0_i_61_136)">
<rect x="89" y="30" width="39.0001" height="78.0002" transform="rotate(90 89 30)" fill="#A9BAD0"/>
</g>
<rect x="88.5" y="30.5" width="38.0001" height="77.0002" transform="rotate(90 88.5 30.5)" stroke="#DFEDFF" stroke-miterlimit="10"/>
<g filter="url(#filter1_i_61_136)">
<rect x="82.0903" y="36.7537" width="25.3364" height="23.0331" transform="rotate(90 82.0903 36.7537)" fill="#6A779E"/>
</g>
<g filter="url(#filter2_i_61_136)">
<path d="M26.7061 42.3016L26.7061 35.47L40.3694 35.47L40.3694 42.3016L26.7061 42.3016Z" fill="#6A779E"/>
</g>
<path d="M27.2061 41.8016L27.2061 35.97L39.8694 35.97L39.8694 41.8016L27.2061 41.8016Z" stroke="#BCC6DB" stroke-miterlimit="10"/>
<path d="M25.5676 61.6576L45.502 61.6576L45.502 40.8159L25.5676 40.8159L25.5676 61.6576Z" fill="url(#paint0_linear_61_136)"/>
<path d="M44.6333 59.9207L49.8438 59.9207L49.8437 42.5526L44.6333 42.5526L44.6333 59.9207Z" fill="url(#paint1_linear_61_136)"/>
<path d="M26.2817 61.6576L22.8081 61.6576C21.4262 61.6576 20.1009 61.1086 19.1238 60.1315C18.1467 59.1544 17.5977 57.8291 17.5977 56.4472L17.5977 46.0263C17.5977 44.6445 18.1467 43.3192 19.1238 42.342C20.1009 41.3649 21.4262 40.8159 22.8081 40.8159L26.2817 40.8159L26.2817 61.6576Z" fill="url(#paint2_linear_61_136)"/>
<path opacity="0.7" d="M25.5674 58.2419L43.7852 58.2419L43.7852 57.1033L25.5674 57.1033L25.5674 58.2419Z" fill="white"/>
<path opacity="0.7" d="M25.5674 49.1333L43.7852 49.1333L43.7852 47.9947L25.5674 47.9947L25.5674 49.1333Z" fill="white"/>
<path opacity="0.7" d="M25.5674 53.6877L43.7852 53.6877L43.7852 52.5491L25.5674 52.5491L25.5674 53.6877Z" fill="white"/>
<path opacity="0.7" d="M25.5674 45.717L43.7852 45.717L43.7852 44.5784L25.5674 44.5784L25.5674 45.717Z" fill="white"/>
<defs>
<filter id="filter0_i_61_136" x="11" y="30" width="78" height="39.0001" filterUnits="userSpaceOnUse" color-interpolation-filters="sRGB">
<feFlood flood-opacity="0" result="BackgroundImageFix"/>
<feBlend mode="normal" in="SourceGraphic" in2="BackgroundImageFix" result="shape"/>
<feColorMatrix in="SourceAlpha" type="matrix" values="0 0 0 0 0 0 0 0 0 0 0 0 0 0 0 0 0 0 127 0" result="hardAlpha"/>
<feOffset/>
<feGaussianBlur stdDeviation="3"/>
<feComposite in2="hardAlpha" operator="arithmetic" k2="-1" k3="1"/>
<feColorMatrix type="matrix" values="0 0 0 0 0.0156863 0 0 0 0 0.270588 0 0 0 0 0.380392 0 0 0 1 0"/>
<feBlend mode="normal" in2="shape" result="effect1_innerShadow_61_136"/>
</filter>
<filter id="filter1_i_61_136" x="59.0571" y="36.7537" width="23.0332" height="25.3364" filterUnits="userSpaceOnUse" color-interpolation-filters="sRGB">
<feFlood flood-opacity="0" result="BackgroundImageFix"/>
<feBlend mode="normal" in="SourceGraphic" in2="BackgroundImageFix" result="shape"/>
<feColorMatrix in="SourceAlpha" type="matrix" values="0 0 0 0 0 0 0 0 0 0 0 0 0 0 0 0 0 0 127 0" result="hardAlpha"/>
<feOffset/>
<feGaussianBlur stdDeviation="3"/>
<feComposite in2="hardAlpha" operator="arithmetic" k2="-1" k3="1"/>
<feColorMatrix type="matrix" values="0 0 0 0 0.0156863 0 0 0 0 0.270588 0 0 0 0 0.380392 0 0 0 0.55 0"/>
<feBlend mode="normal" in2="shape" result="effect1_innerShadow_61_136"/>
</filter>
<filter id="filter2_i_61_136" x="26.7061" y="35.47" width="13.6636" height="6.83167" filterUnits="userSpaceOnUse" color-interpolation-filters="sRGB">
<feFlood flood-opacity="0" result="BackgroundImageFix"/>
<feBlend mode="normal" in="SourceGraphic" in2="BackgroundImageFix" result="shape"/>
<feColorMatrix in="SourceAlpha" type="matrix" values="0 0 0 0 0 0 0 0 0 0 0 0 0 0 0 0 0 0 127 0" result="hardAlpha"/>
<feOffset/>
<feGaussianBlur stdDeviation="3"/>
<feComposite in2="hardAlpha" operator="arithmetic" k2="-1" k3="1"/>
<feColorMatrix type="matrix" values="0 0 0 0 0.0156863 0 0 0 0 0.270588 0 0 0 0 0.380392 0 0 0 0.55 0"/>
<feBlend mode="normal" in2="shape" result="effect1_innerShadow_61_136"/>
</filter>
<linearGradient id="paint0_linear_61_136" x1="35.5348" y1="40.8159" x2="35.5348" y2="61.6576" gradientUnits="userSpaceOnUse">
<stop stop-color="#6A779E"/>
<stop offset="0.122" stop-color="#6A779E"/>
<stop offset="0.677" stop-color="#D4DAE7"/>
<stop offset="1" stop-color="#8B9AAF"/>
</linearGradient>
<linearGradient id="paint1_linear_61_136" x1="47.2385" y1="42.5526" x2="47.2385" y2="59.9207" gradientUnits="userSpaceOnUse">
<stop stop-color="#6A779E"/>
<stop offset="0.122" stop-color="#6A779E"/>
<stop offset="0.677" stop-color="#D4DAE7"/>
<stop offset="1" stop-color="#8B9AAF"/>
</linearGradient>
<linearGradient id="paint2_linear_61_136" x1="21.9397" y1="40.8159" x2="21.9397" y2="61.6576" gradientUnits="userSpaceOnUse">
<stop stop-color="#6A779E"/>
<stop offset="0.122" stop-color="#6A779E"/>
<stop offset="0.677" stop-color="#D4DAE7"/>
<stop offset="1" stop-color="#8B9AAF"/>
</linearGradient>
</defs>
</svg>
