<svg width="200" height="100" viewBox="0 0 200 100" fill="none" xmlns="http://www.w3.org/2000/svg">
<g filter="url(#filter0_i_126_292)">
<path d="M186.6 43H14.6V55H186.6V43Z" fill="#6A779E"/>
</g>
<path d="M188.6 43H12.6V45H188.6V43Z" fill="#BCC6DB"/>
<path d="M188.6 55H12.6V57H188.6V55Z" fill="#BCC6DB"/>
<g filter="url(#filter1_i_126_292)">
<path d="M12 43C13.3845 43 14.7378 43.4105 15.889 44.1797C17.0401 44.9489 17.9374 46.0421 18.4672 47.3212C18.997 48.6003 19.1356 50.0078 18.8655 51.3656C18.5954 52.7235 17.9287 53.9708 16.9498 54.9497C15.9708 55.9287 14.7235 56.5954 13.3656 56.8655C12.0078 57.1356 10.6003 56.997 9.32123 56.4672C8.04215 55.9373 6.94887 55.0401 6.1797 53.889C5.41053 52.7378 5 51.3845 5 50C5 48.1435 5.73748 46.363 7.05024 45.0502C8.36299 43.7375 10.1435 43 12 43Z" fill="#C8D0DD"/>
</g>
<g filter="url(#filter2_i_126_292)">
<path d="M12 45C12.9889 45 13.9556 45.2932 14.7779 45.8426C15.6001 46.3921 16.241 47.1729 16.6194 48.0866C16.9978 49.0002 17.0968 50.0055 16.9039 50.9754C16.711 51.9453 16.2348 52.8363 15.5355 53.5355C14.8363 54.2348 13.9453 54.711 12.9754 54.9039C12.0055 55.0969 11.0002 54.9978 10.0866 54.6194C9.17294 54.241 8.39205 53.6001 7.84265 52.7778C7.29324 51.9556 7 50.9889 7 50C7 48.6739 7.5268 47.4021 8.46448 46.4645C9.40216 45.5268 10.6739 45 12 45Z" fill="#6A779E"/>
</g>
<g filter="url(#filter3_d_126_292)">
<path d="M15.817 50.4875C15.8375 50.3275 15.8529 50.165 15.8529 50C15.8529 49.835 15.8375 49.6725 15.817 49.5125L16.9038 48.685C17.0015 48.61 17.0297 48.475 16.9655 48.365L15.9377 46.6325C15.8735 46.525 15.7399 46.48 15.6242 46.525L14.3446 47.0275C14.08 46.83 13.7896 46.6625 13.4761 46.535L13.2834 45.21C13.2603 45.0925 13.155 45 13.0265 45H10.9709C10.8425 45 10.7371 45.0925 10.7166 45.21L10.5239 46.535C10.2104 46.6625 9.92002 46.8275 9.65536 47.0275L8.37577 46.525C8.26015 46.4825 8.12654 46.525 8.0623 46.6325L7.0345 48.365C6.97027 48.4725 6.99852 48.6075 7.09617 48.685L8.18048 49.5125C8.15992 49.6725 8.14451 49.835 8.14451 50C8.14451 50.165 8.15991 50.3275 8.18048 50.4875L7.09617 51.315C6.99852 51.39 6.97026 51.525 7.0345 51.635L8.06229 53.3675C8.12652 53.475 8.26013 53.52 8.37576 53.475L9.65538 52.9725C9.92003 53.17 10.2104 53.3375 10.5239 53.465L10.7166 54.79C10.7371 54.9075 10.8425 55 10.9709 55H13.0265C13.155 55 13.2603 54.9075 13.2809 54.79L13.4736 53.465C13.7871 53.3375 14.0774 53.1725 14.3421 52.9725L15.6217 53.475C15.7373 53.5175 15.8709 53.475 15.9351 53.3675L16.9629 51.635C17.0272 51.5275 16.9989 51.3925 16.9013 51.315L15.8169 50.4875L15.817 50.4875ZM11.9987 51.75C11.0043 51.75 10.2001 50.9675 10.2001 50C10.2001 49.0325 11.0043 48.25 11.9987 48.25C12.9931 48.25 13.7973 49.0325 13.7973 50C13.7973 50.9675 12.9931 51.75 11.9987 51.75L11.9987 51.75Z" fill="#ECECEC"/>
</g>
<g filter="url(#filter4_i_126_292)">
<path d="M188 43C189.384 43 190.738 43.4105 191.889 44.1797C193.04 44.9489 193.937 46.0421 194.467 47.3212C194.997 48.6003 195.136 50.0078 194.865 51.3656C194.595 52.7235 193.929 53.9708 192.95 54.9497C191.971 55.9287 190.724 56.5954 189.366 56.8655C188.008 57.1356 186.6 56.997 185.321 56.4672C184.042 55.9373 182.949 55.0401 182.18 53.889C181.411 52.7378 181 51.3845 181 50C181 48.1435 181.737 46.363 183.05 45.0502C184.363 43.7375 186.143 43 188 43Z" fill="#C8D0DD"/>
</g>
<g filter="url(#filter5_i_126_292)">
<path d="M188 45C188.989 45 189.956 45.2932 190.778 45.8426C191.6 46.3921 192.241 47.1729 192.619 48.0866C192.998 49.0002 193.097 50.0055 192.904 50.9754C192.711 51.9453 192.235 52.8363 191.536 53.5355C190.836 54.2348 189.945 54.711 188.975 54.9039C188.006 55.0969 187 54.9978 186.087 54.6194C185.173 54.241 184.392 53.6001 183.843 52.7778C183.293 51.9556 183 50.9889 183 50C183 48.6739 183.527 47.4021 184.464 46.4645C185.402 45.5268 186.674 45 188 45Z" fill="#6A779E"/>
</g>
<g filter="url(#filter6_d_126_292)">
<path d="M191.817 50.4875C191.838 50.3275 191.853 50.165 191.853 50C191.853 49.835 191.838 49.6725 191.817 49.5125L192.904 48.685C193.001 48.61 193.03 48.475 192.966 48.365L191.938 46.6325C191.873 46.525 191.74 46.48 191.624 46.525L190.345 47.0275C190.08 46.83 189.79 46.6625 189.476 46.535L189.283 45.21C189.26 45.0925 189.155 45 189.027 45H186.971C186.842 45 186.737 45.0925 186.717 45.21L186.524 46.535C186.21 46.6625 185.92 46.8275 185.655 47.0275L184.376 46.525C184.26 46.4825 184.127 46.525 184.062 46.6325L183.034 48.365C182.97 48.4725 182.999 48.6075 183.096 48.685L184.18 49.5125C184.16 49.6725 184.145 49.835 184.145 50C184.145 50.165 184.16 50.3275 184.18 50.4875L183.096 51.315C182.999 51.39 182.97 51.525 183.034 51.635L184.062 53.3675C184.127 53.475 184.26 53.52 184.376 53.475L185.655 52.9725C185.92 53.17 186.21 53.3375 186.524 53.465L186.717 54.79C186.737 54.9075 186.842 55 186.971 55H189.027C189.155 55 189.26 54.9075 189.281 54.79L189.474 53.465C189.787 53.3375 190.077 53.1725 190.342 52.9725L191.622 53.475C191.737 53.5175 191.871 53.475 191.935 53.3675L192.963 51.635C193.027 51.5275 192.999 51.3925 192.901 51.315L191.817 50.4875L191.817 50.4875ZM187.999 51.75C187.004 51.75 186.2 50.9675 186.2 50C186.2 49.0325 187.004 48.25 187.999 48.25C188.993 48.25 189.797 49.0325 189.797 50C189.797 50.9675 188.993 51.75 187.999 51.75L187.999 51.75Z" fill="#ECECEC"/>
</g>
<path d="M17 40H182L188 43H10L17 40Z" fill="#DAE6FF"/>
<path d="M29 49.2C28.5582 49.2 28.2 49.5582 28.2 50C28.2 50.4418 28.5582 50.8 29 50.8V49.2ZM171 50L163 45.3812V54.6188L171 50ZM29 50.8H163.8V49.2H29V50.8Z" fill="white"/>
<defs>
<filter id="filter0_i_126_292" x="14.6" y="43" width="172" height="12" filterUnits="userSpaceOnUse" color-interpolation-filters="sRGB">
<feFlood flood-opacity="0" result="BackgroundImageFix"/>
<feBlend mode="normal" in="SourceGraphic" in2="BackgroundImageFix" result="shape"/>
<feColorMatrix in="SourceAlpha" type="matrix" values="0 0 0 0 0 0 0 0 0 0 0 0 0 0 0 0 0 0 127 0" result="hardAlpha"/>
<feOffset/>
<feGaussianBlur stdDeviation="3"/>
<feComposite in2="hardAlpha" operator="arithmetic" k2="-1" k3="1"/>
<feColorMatrix type="matrix" values="0 0 0 0 0.0156863 0 0 0 0 0.270588 0 0 0 0 0.380392 0 0 0 0.55 0"/>
<feBlend mode="normal" in2="shape" result="effect1_innerShadow_126_292"/>
</filter>
<filter id="filter1_i_126_292" x="5" y="43" width="14" height="14" filterUnits="userSpaceOnUse" color-interpolation-filters="sRGB">
<feFlood flood-opacity="0" result="BackgroundImageFix"/>
<feBlend mode="normal" in="SourceGraphic" in2="BackgroundImageFix" result="shape"/>
<feColorMatrix in="SourceAlpha" type="matrix" values="0 0 0 0 0 0 0 0 0 0 0 0 0 0 0 0 0 0 127 0" result="hardAlpha"/>
<feOffset/>
<feGaussianBlur stdDeviation="5"/>
<feComposite in2="hardAlpha" operator="arithmetic" k2="-1" k3="1"/>
<feColorMatrix type="matrix" values="0 0 0 0 0.576471 0 0 0 0 0.619608 0 0 0 0 0.741176 0 0 0 1 0"/>
<feBlend mode="normal" in2="shape" result="effect1_innerShadow_126_292"/>
</filter>
<filter id="filter2_i_126_292" x="7" y="45" width="10" height="10" filterUnits="userSpaceOnUse" color-interpolation-filters="sRGB">
<feFlood flood-opacity="0" result="BackgroundImageFix"/>
<feBlend mode="normal" in="SourceGraphic" in2="BackgroundImageFix" result="shape"/>
<feColorMatrix in="SourceAlpha" type="matrix" values="0 0 0 0 0 0 0 0 0 0 0 0 0 0 0 0 0 0 127 0" result="hardAlpha"/>
<feOffset/>
<feGaussianBlur stdDeviation="3"/>
<feComposite in2="hardAlpha" operator="arithmetic" k2="-1" k3="1"/>
<feColorMatrix type="matrix" values="0 0 0 0 0.0156863 0 0 0 0 0.270588 0 0 0 0 0.380392 0 0 0 0.55 0"/>
<feBlend mode="normal" in2="shape" result="effect1_innerShadow_126_292"/>
</filter>
<filter id="filter3_d_126_292" x="3" y="41" width="18" height="18" filterUnits="userSpaceOnUse" color-interpolation-filters="sRGB">
<feFlood flood-opacity="0" result="BackgroundImageFix"/>
<feColorMatrix in="SourceAlpha" type="matrix" values="0 0 0 0 0 0 0 0 0 0 0 0 0 0 0 0 0 0 127 0" result="hardAlpha"/>
<feOffset/>
<feGaussianBlur stdDeviation="2"/>
<feComposite in2="hardAlpha" operator="out"/>
<feColorMatrix type="matrix" values="0 0 0 0 0.0156863 0 0 0 0 0.270588 0 0 0 0 0.380392 0 0 0 0.55 0"/>
<feBlend mode="normal" in2="BackgroundImageFix" result="effect1_dropShadow_126_292"/>
<feBlend mode="normal" in="SourceGraphic" in2="effect1_dropShadow_126_292" result="shape"/>
</filter>
<filter id="filter4_i_126_292" x="181" y="43" width="14" height="14" filterUnits="userSpaceOnUse" color-interpolation-filters="sRGB">
<feFlood flood-opacity="0" result="BackgroundImageFix"/>
<feBlend mode="normal" in="SourceGraphic" in2="BackgroundImageFix" result="shape"/>
<feColorMatrix in="SourceAlpha" type="matrix" values="0 0 0 0 0 0 0 0 0 0 0 0 0 0 0 0 0 0 127 0" result="hardAlpha"/>
<feOffset/>
<feGaussianBlur stdDeviation="5"/>
<feComposite in2="hardAlpha" operator="arithmetic" k2="-1" k3="1"/>
<feColorMatrix type="matrix" values="0 0 0 0 0.576471 0 0 0 0 0.619608 0 0 0 0 0.741176 0 0 0 1 0"/>
<feBlend mode="normal" in2="shape" result="effect1_innerShadow_126_292"/>
</filter>
<filter id="filter5_i_126_292" x="183" y="45" width="10" height="10" filterUnits="userSpaceOnUse" color-interpolation-filters="sRGB">
<feFlood flood-opacity="0" result="BackgroundImageFix"/>
<feBlend mode="normal" in="SourceGraphic" in2="BackgroundImageFix" result="shape"/>
<feColorMatrix in="SourceAlpha" type="matrix" values="0 0 0 0 0 0 0 0 0 0 0 0 0 0 0 0 0 0 127 0" result="hardAlpha"/>
<feOffset/>
<feGaussianBlur stdDeviation="3"/>
<feComposite in2="hardAlpha" operator="arithmetic" k2="-1" k3="1"/>
<feColorMatrix type="matrix" values="0 0 0 0 0.0156863 0 0 0 0 0.270588 0 0 0 0 0.380392 0 0 0 0.55 0"/>
<feBlend mode="normal" in2="shape" result="effect1_innerShadow_126_292"/>
</filter>
<filter id="filter6_d_126_292" x="179" y="41" width="18" height="18" filterUnits="userSpaceOnUse" color-interpolation-filters="sRGB">
<feFlood flood-opacity="0" result="BackgroundImageFix"/>
<feColorMatrix in="SourceAlpha" type="matrix" values="0 0 0 0 0 0 0 0 0 0 0 0 0 0 0 0 0 0 127 0" result="hardAlpha"/>
<feOffset/>
<feGaussianBlur stdDeviation="2"/>
<feComposite in2="hardAlpha" operator="out"/>
<feColorMatrix type="matrix" values="0 0 0 0 0.0156863 0 0 0 0 0.270588 0 0 0 0 0.380392 0 0 0 0.55 0"/>
<feBlend mode="normal" in2="BackgroundImageFix" result="effect1_dropShadow_126_292"/>
<feBlend mode="normal" in="SourceGraphic" in2="effect1_dropShadow_126_292" result="shape"/>
</filter>
</defs>
</svg>
