<svg width="100" height="100" viewBox="0 0 100 100" fill="none" xmlns="http://www.w3.org/2000/svg">
<g clip-path="url(#clip0_22_531)">
<g filter="url(#filter0_i_22_531)">
<path d="M93 44H7V56H93V44Z" fill="#6A779E"/>
</g>
<path d="M94 44H6V46H94V44Z" fill="#BCC6DB"/>
<path d="M94 56H6V58H94V56Z" fill="#BCC6DB"/>
<g filter="url(#filter1_i_22_531)">
<path d="M7 44C8.38447 44 9.73784 44.4105 10.889 45.1797C12.0401 45.9489 12.9374 47.0421 13.4672 48.3212C13.997 49.6003 14.1356 51.0078 13.8655 52.3656C13.5954 53.7235 12.9287 54.9708 11.9498 55.9497C10.9708 56.9287 9.72351 57.5954 8.36564 57.8655C7.00778 58.1356 5.60031 57.997 4.32123 57.4672C3.04215 56.9373 1.94887 56.0401 1.1797 54.889C0.410529 53.7378 0 52.3845 0 51C0 49.1435 0.737485 47.363 2.05024 46.0502C3.36299 44.7375 5.14348 44 7 44Z" fill="#C8D0DD"/>
</g>
<g filter="url(#filter2_i_22_531)">
<path d="M7 46C7.9889 46 8.95562 46.2932 9.77786 46.8426C10.6001 47.3921 11.241 48.1729 11.6194 49.0866C11.9978 50.0002 12.0968 51.0055 11.9039 51.9754C11.711 52.9453 11.2348 53.8363 10.5355 54.5355C9.83625 55.2348 8.94533 55.711 7.97543 55.9039C7.00552 56.0969 6.0002 55.9978 5.08657 55.6194C4.17294 55.241 3.39205 54.6001 2.84265 53.7778C2.29324 52.9556 2 51.9889 2 51C2 49.6739 2.5268 48.4021 3.46448 47.4645C4.40216 46.5268 5.67392 46 7 46Z" fill="#6A779E"/>
</g>
<g filter="url(#filter3_d_22_531)">
<path d="M10.817 51.4875C10.8375 51.3275 10.8529 51.165 10.8529 51C10.8529 50.835 10.8375 50.6725 10.817 50.5125L11.9038 49.685C12.0015 49.61 12.0297 49.475 11.9655 49.365L10.9377 47.6325C10.8735 47.525 10.7399 47.48 10.6242 47.525L9.34462 48.0275C9.07997 47.83 8.78963 47.6625 8.47615 47.535L8.28345 46.21C8.26033 46.0925 8.15498 46 8.02651 46H5.97093C5.84245 46 5.73712 46.0925 5.71656 46.21L5.52385 47.535C5.21037 47.6625 4.92002 47.8275 4.65536 48.0275L3.37577 47.525C3.26015 47.4825 3.12654 47.525 3.0623 47.6325L2.0345 49.365C1.97027 49.4725 1.99852 49.6075 2.09617 49.685L3.18048 50.5125C3.15992 50.6725 3.14451 50.835 3.14451 51C3.14451 51.165 3.15991 51.3275 3.18048 51.4875L2.09617 52.315C1.99852 52.39 1.97026 52.525 2.0345 52.635L3.06229 54.3675C3.12652 54.475 3.26013 54.52 3.37576 54.475L4.65538 53.9725C4.92003 54.17 5.21038 54.3375 5.52385 54.465L5.71656 55.79C5.73712 55.9075 5.84246 56 5.97093 56H8.02651C8.15499 56 8.26033 55.9075 8.28088 55.79L8.47359 54.465C8.78707 54.3375 9.07742 54.1725 9.34208 53.9725L10.6217 54.475C10.7373 54.5175 10.8709 54.475 10.9351 54.3675L11.9629 52.635C12.0272 52.5275 11.9989 52.3925 11.9013 52.315L10.8169 51.4875L10.817 51.4875ZM6.99871 52.75C6.00433 52.75 5.20008 51.9675 5.20008 51C5.20008 50.0325 6.00433 49.25 6.9987 49.25C7.99309 49.25 8.79733 50.0325 8.79733 51C8.79733 51.9675 7.99309 52.75 6.9987 52.75L6.99871 52.75Z" fill="#ECECEC"/>
</g>
<g filter="url(#filter4_i_22_531)">
<path d="M93 44C94.3845 44 95.7378 44.4105 96.889 45.1797C98.0401 45.9489 98.9374 47.0421 99.4672 48.3212C99.997 49.6003 100.136 51.0078 99.8655 52.3656C99.5954 53.7235 98.9287 54.9708 97.9498 55.9497C96.9708 56.9287 95.7235 57.5954 94.3656 57.8655C93.0078 58.1356 91.6003 57.997 90.3212 57.4672C89.0421 56.9373 87.9489 56.0401 87.1797 54.889C86.4105 53.7378 86 52.3845 86 51C86 49.1435 86.7375 47.363 88.0502 46.0502C89.363 44.7375 91.1435 44 93 44Z" fill="#C8D0DD"/>
</g>
<g filter="url(#filter5_i_22_531)">
<path d="M93 46C93.9889 46 94.9556 46.2932 95.7779 46.8426C96.6001 47.3921 97.241 48.1729 97.6194 49.0866C97.9978 50.0002 98.0968 51.0055 97.9039 51.9754C97.711 52.9453 97.2348 53.8363 96.5355 54.5355C95.8363 55.2348 94.9453 55.711 93.9754 55.9039C93.0055 56.0969 92.0002 55.9978 91.0866 55.6194C90.1729 55.241 89.3921 54.6001 88.8426 53.7778C88.2932 52.9556 88 51.9889 88 51C88 49.6739 88.5268 48.4021 89.4645 47.4645C90.4022 46.5268 91.6739 46 93 46Z" fill="#6A779E"/>
</g>
<g filter="url(#filter6_d_22_531)">
<path d="M96.817 51.4875C96.8375 51.3275 96.8529 51.165 96.8529 51C96.8529 50.835 96.8375 50.6725 96.817 50.5125L97.9038 49.685C98.0015 49.61 98.0297 49.475 97.9655 49.365L96.9377 47.6325C96.8735 47.525 96.7399 47.48 96.6242 47.525L95.3446 48.0275C95.08 47.83 94.7896 47.6625 94.4761 47.535L94.2834 46.21C94.2603 46.0925 94.155 46 94.0265 46H91.9709C91.8425 46 91.7371 46.0925 91.7166 46.21L91.5239 47.535C91.2104 47.6625 90.92 47.8275 90.6554 48.0275L89.3758 47.525C89.2602 47.4825 89.1265 47.525 89.0623 47.6325L88.0345 49.365C87.9703 49.4725 87.9985 49.6075 88.0962 49.685L89.1805 50.5125C89.1599 50.6725 89.1445 50.835 89.1445 51C89.1445 51.165 89.1599 51.3275 89.1805 51.4875L88.0962 52.315C87.9985 52.39 87.9703 52.525 88.0345 52.635L89.0623 54.3675C89.1265 54.475 89.2601 54.52 89.3758 54.475L90.6554 53.9725C90.92 54.17 91.2104 54.3375 91.5239 54.465L91.7166 55.79C91.7371 55.9075 91.8425 56 91.9709 56H94.0265C94.155 56 94.2603 55.9075 94.2809 55.79L94.4736 54.465C94.7871 54.3375 95.0774 54.1725 95.3421 53.9725L96.6217 54.475C96.7373 54.5175 96.8709 54.475 96.9351 54.3675L97.9629 52.635C98.0272 52.5275 97.9989 52.3925 97.9013 52.315L96.8169 51.4875L96.817 51.4875ZM92.9987 52.75C92.0043 52.75 91.2001 51.9675 91.2001 51C91.2001 50.0325 92.0043 49.25 92.9987 49.25C93.9931 49.25 94.7973 50.0325 94.7973 51C94.7973 51.9675 93.9931 52.75 92.9987 52.75L92.9987 52.75Z" fill="#ECECEC"/>
</g>
<path d="M13 41H88L94 44H6L13 41Z" fill="#DAE6FF"/>
<path d="M21 50.2C20.5582 50.2 20.2 50.5582 20.2 51C20.2 51.4418 20.5582 51.8 21 51.8V50.2ZM78 51L70 46.3812V55.6188L78 51ZM21 51.8H70.8V50.2H21V51.8Z" fill="white"/>
</g>
<defs>
<filter id="filter0_i_22_531" x="7" y="44" width="86" height="12" filterUnits="userSpaceOnUse" color-interpolation-filters="sRGB">
<feFlood flood-opacity="0" result="BackgroundImageFix"/>
<feBlend mode="normal" in="SourceGraphic" in2="BackgroundImageFix" result="shape"/>
<feColorMatrix in="SourceAlpha" type="matrix" values="0 0 0 0 0 0 0 0 0 0 0 0 0 0 0 0 0 0 127 0" result="hardAlpha"/>
<feOffset/>
<feGaussianBlur stdDeviation="3"/>
<feComposite in2="hardAlpha" operator="arithmetic" k2="-1" k3="1"/>
<feColorMatrix type="matrix" values="0 0 0 0 0.0156863 0 0 0 0 0.270588 0 0 0 0 0.380392 0 0 0 0.55 0"/>
<feBlend mode="normal" in2="shape" result="effect1_innerShadow_22_531"/>
</filter>
<filter id="filter1_i_22_531" x="0" y="44" width="14" height="14" filterUnits="userSpaceOnUse" color-interpolation-filters="sRGB">
<feFlood flood-opacity="0" result="BackgroundImageFix"/>
<feBlend mode="normal" in="SourceGraphic" in2="BackgroundImageFix" result="shape"/>
<feColorMatrix in="SourceAlpha" type="matrix" values="0 0 0 0 0 0 0 0 0 0 0 0 0 0 0 0 0 0 127 0" result="hardAlpha"/>
<feOffset/>
<feGaussianBlur stdDeviation="5"/>
<feComposite in2="hardAlpha" operator="arithmetic" k2="-1" k3="1"/>
<feColorMatrix type="matrix" values="0 0 0 0 0.576471 0 0 0 0 0.619608 0 0 0 0 0.741176 0 0 0 1 0"/>
<feBlend mode="normal" in2="shape" result="effect1_innerShadow_22_531"/>
</filter>
<filter id="filter2_i_22_531" x="2" y="46" width="10" height="10" filterUnits="userSpaceOnUse" color-interpolation-filters="sRGB">
<feFlood flood-opacity="0" result="BackgroundImageFix"/>
<feBlend mode="normal" in="SourceGraphic" in2="BackgroundImageFix" result="shape"/>
<feColorMatrix in="SourceAlpha" type="matrix" values="0 0 0 0 0 0 0 0 0 0 0 0 0 0 0 0 0 0 127 0" result="hardAlpha"/>
<feOffset/>
<feGaussianBlur stdDeviation="3"/>
<feComposite in2="hardAlpha" operator="arithmetic" k2="-1" k3="1"/>
<feColorMatrix type="matrix" values="0 0 0 0 0.0156863 0 0 0 0 0.270588 0 0 0 0 0.380392 0 0 0 0.55 0"/>
<feBlend mode="normal" in2="shape" result="effect1_innerShadow_22_531"/>
</filter>
<filter id="filter3_d_22_531" x="-2" y="42" width="18" height="18" filterUnits="userSpaceOnUse" color-interpolation-filters="sRGB">
<feFlood flood-opacity="0" result="BackgroundImageFix"/>
<feColorMatrix in="SourceAlpha" type="matrix" values="0 0 0 0 0 0 0 0 0 0 0 0 0 0 0 0 0 0 127 0" result="hardAlpha"/>
<feOffset/>
<feGaussianBlur stdDeviation="2"/>
<feComposite in2="hardAlpha" operator="out"/>
<feColorMatrix type="matrix" values="0 0 0 0 0.0156863 0 0 0 0 0.270588 0 0 0 0 0.380392 0 0 0 0.55 0"/>
<feBlend mode="normal" in2="BackgroundImageFix" result="effect1_dropShadow_22_531"/>
<feBlend mode="normal" in="SourceGraphic" in2="effect1_dropShadow_22_531" result="shape"/>
</filter>
<filter id="filter4_i_22_531" x="86" y="44" width="14" height="14" filterUnits="userSpaceOnUse" color-interpolation-filters="sRGB">
<feFlood flood-opacity="0" result="BackgroundImageFix"/>
<feBlend mode="normal" in="SourceGraphic" in2="BackgroundImageFix" result="shape"/>
<feColorMatrix in="SourceAlpha" type="matrix" values="0 0 0 0 0 0 0 0 0 0 0 0 0 0 0 0 0 0 127 0" result="hardAlpha"/>
<feOffset/>
<feGaussianBlur stdDeviation="5"/>
<feComposite in2="hardAlpha" operator="arithmetic" k2="-1" k3="1"/>
<feColorMatrix type="matrix" values="0 0 0 0 0.576471 0 0 0 0 0.619608 0 0 0 0 0.741176 0 0 0 1 0"/>
<feBlend mode="normal" in2="shape" result="effect1_innerShadow_22_531"/>
</filter>
<filter id="filter5_i_22_531" x="88" y="46" width="10" height="10" filterUnits="userSpaceOnUse" color-interpolation-filters="sRGB">
<feFlood flood-opacity="0" result="BackgroundImageFix"/>
<feBlend mode="normal" in="SourceGraphic" in2="BackgroundImageFix" result="shape"/>
<feColorMatrix in="SourceAlpha" type="matrix" values="0 0 0 0 0 0 0 0 0 0 0 0 0 0 0 0 0 0 127 0" result="hardAlpha"/>
<feOffset/>
<feGaussianBlur stdDeviation="3"/>
<feComposite in2="hardAlpha" operator="arithmetic" k2="-1" k3="1"/>
<feColorMatrix type="matrix" values="0 0 0 0 0.0156863 0 0 0 0 0.270588 0 0 0 0 0.380392 0 0 0 0.55 0"/>
<feBlend mode="normal" in2="shape" result="effect1_innerShadow_22_531"/>
</filter>
<filter id="filter6_d_22_531" x="84" y="42" width="18" height="18" filterUnits="userSpaceOnUse" color-interpolation-filters="sRGB">
<feFlood flood-opacity="0" result="BackgroundImageFix"/>
<feColorMatrix in="SourceAlpha" type="matrix" values="0 0 0 0 0 0 0 0 0 0 0 0 0 0 0 0 0 0 127 0" result="hardAlpha"/>
<feOffset/>
<feGaussianBlur stdDeviation="2"/>
<feComposite in2="hardAlpha" operator="out"/>
<feColorMatrix type="matrix" values="0 0 0 0 0.0156863 0 0 0 0 0.270588 0 0 0 0 0.380392 0 0 0 0.55 0"/>
<feBlend mode="normal" in2="BackgroundImageFix" result="effect1_dropShadow_22_531"/>
<feBlend mode="normal" in="SourceGraphic" in2="effect1_dropShadow_22_531" result="shape"/>
</filter>
<clipPath id="clip0_22_531">
<rect width="100" height="100" fill="white"/>
</clipPath>
</defs>
</svg>
