<svg width="100" height="100" viewBox="0 0 100 100" fill="none" xmlns="http://www.w3.org/2000/svg">
<g clip-path="url(#clip0_146_103)">
<g filter="url(#filter0_d_146_103)">
<path d="M80.7935 33.7023L80.7935 38.3304L81.7191 38.3304L81.7191 33.7023L80.7935 33.7023Z" fill="#BCC6DB"/>
</g>
<g filter="url(#filter1_d_146_103)">
<path d="M80.7935 43.8842L80.7935 48.5123L81.7191 48.5123L81.7191 43.8842L80.7935 43.8842Z" fill="#BCC6DB"/>
</g>
<path d="M74.9507 33.4131L74.9507 54.0662L79.8681 54.0662L79.8681 33.4131L74.9507 33.4131Z" fill="url(#paint0_linear_146_103)"/>
<path d="M72 32.7766L72 48.5122L83.1075 48.5122L83.1075 32.7766L72 32.7766Z" fill="url(#paint1_linear_146_103)"/>
<path d="M72.9258 48.0495L72.9258 50.8264L82.182 50.8264L82.182 48.0495L72.9258 48.0495Z" fill="url(#paint2_linear_146_103)"/>
<path d="M72 34.6283L72 32.777C72 32.0406 72.2926 31.3343 72.8133 30.8135C73.3341 30.2927 74.0404 30.0002 74.7769 30.0002L80.3306 30.0002C81.0671 30.0002 81.7734 30.2927 82.2942 30.8135C82.8149 31.3343 83.1075 32.0406 83.1075 32.777L83.1075 34.6283L72 34.6283Z" fill="url(#paint3_linear_146_103)"/>
<g filter="url(#filter2_d_146_103)">
<path d="M74.083 47.3555L74.083 34.3967L74.083 47.3555Z" stroke="#C8CCDA" stroke-width="0.621118" stroke-linejoin="round"/>
</g>
<g filter="url(#filter3_d_146_103)">
<path d="M78.7109 47.3556L78.7109 34.3968L78.7109 47.3556Z" stroke="#C8CCDA" stroke-width="0.621118" stroke-linejoin="round"/>
</g>
<g filter="url(#filter4_d_146_103)">
<path d="M76.397 47.3556L76.397 34.3968L76.397 47.3556Z" stroke="#C8CCDA" stroke-width="0.621118" stroke-linejoin="round"/>
</g>
<g filter="url(#filter5_d_146_103)">
<path d="M81.0254 47.3556L81.0254 34.3968L81.0254 47.3556Z" stroke="#C8CCDA" stroke-width="0.621118" stroke-linejoin="round"/>
</g>
<path d="M79.8681 54.0662H74.9507V58.0001H79.8681V54.0662Z" fill="url(#paint4_linear_146_103)"/>
<path d="M81.6248 54.0662H72.9834V55.7944H81.6248V54.0662Z" fill="#BCC6DB"/>
<g filter="url(#filter6_d_146_103)">
<path d="M92 67C93.1046 67 94 67.8954 94 69V69C94 70.1046 93.1046 71 92 71L86.1097 71L80 71C78.8954 71 78 70.1046 78 69V69C78 67.8954 78.8954 67 80 67L86.0825 67L92 67Z" fill="url(#paint5_linear_146_103)"/>
</g>
<g filter="url(#filter7_d_146_103)">
<path d="M92 87C93.1046 87 94 87.8954 94 89V89C94 90.1046 93.1046 91 92 91L86.1097 91L80 91C78.8954 91 78 90.1046 78 89V89C78 87.8954 78.8954 87 80 87L86.0825 87L92 87Z" fill="url(#paint6_linear_146_103)"/>
</g>
<g filter="url(#filter8_d_146_103)">
<path d="M92 49C93.1046 49 94 49.8954 94 51V51C94 52.1046 93.1046 53 92 53L72.7948 53L53 53C51.8954 53 51 52.1046 51 51V51C51 49.8954 51.8954 49 53 49L72.7217 49L92 49Z" fill="url(#paint7_linear_146_103)"/>
</g>
<g filter="url(#filter9_i_146_103)">
<rect x="32" y="38" width="24" height="28" transform="rotate(90 32 38)" fill="#A9BAD0"/>
</g>
<rect x="31.5" y="38.5" width="23" height="27" transform="rotate(90 31.5 38.5)" stroke="#DFEDFF" stroke-miterlimit="10"/>
<g filter="url(#filter10_i_146_103)">
<rect x="89" y="58" width="42" height="89" transform="rotate(90 89 58)" fill="#6A779E"/>
</g>
<rect x="88.5" y="58.5" width="41" height="88" transform="rotate(90 88.5 58.5)" stroke="#DFEDFF" stroke-miterlimit="10"/>
<g filter="url(#filter11_d_146_103)">
<path d="M8.341 76.3505C8.58365 76.3505 8.82631 76.1701 8.92848 75.8479C9.09451 75.1778 9.36271 74.5335 9.78416 73.7474C9.96296 73.4768 9.8991 73.0902 9.70753 72.8711C9.33716 72.1495 9.41379 71.3505 9.92465 70.8351C10.4738 70.2809 11.3806 70.2036 11.9936 70.6675C12.0702 70.7448 12.1341 70.7835 12.2874 70.7835H12.7471L12.811 70.7448C13.3985 70.3711 14.0243 70.1134 14.8416 69.8943C14.8964 69.8832 14.9485 69.8613 14.9949 69.8299H15.0971L15.1865 69.7397C15.2641 69.701 15.327 69.6376 15.3653 69.5593C15.4291 69.482 15.4547 69.4175 15.4547 69.2887C15.6079 68.5284 16.2465 68 17.0511 68C17.8557 68 18.4943 68.5284 18.6603 69.3531V69.482L18.7241 69.5335V69.5979L18.8774 69.7526C18.9413 69.8814 19.069 69.9588 19.1967 69.9588H19.2222C19.848 70.1263 20.4866 70.384 21.2529 70.8093L21.3167 70.8479H21.8787L21.9425 70.7835H21.9808L22.0575 70.732C22.6705 70.268 23.5773 70.3454 24.1264 70.8995C24.6501 71.4794 24.7139 72.2784 24.2925 72.9871C24.1264 73.1804 24.0881 73.451 24.1903 73.7603C24.6373 74.5979 24.9055 75.2423 25.0587 75.8866C25.1609 76.2216 25.3908 76.4021 25.6718 76.4149C26.4636 76.5954 27 77.2526 27 78.0258C27 78.8376 26.4764 79.482 25.659 79.6495C25.3908 79.6495 25.1481 79.8686 25.1226 80.1392C24.9566 80.7835 24.7011 81.4149 24.2797 82.201C24.152 82.5747 24.2031 82.8582 24.3946 83.0515C24.8289 83.6443 24.7522 84.5593 24.2031 85.1134C23.6794 85.6418 22.8365 85.7062 22.1341 85.2809C21.9425 85.1134 21.6743 85.0747 21.3678 85.1778C20.5377 85.6289 19.8991 85.8995 19.2605 86.0541C18.9285 86.1572 18.7497 86.3892 18.7369 86.6727C18.5581 87.4588 17.9068 88 17.1405 88C16.3359 88 15.6973 87.4717 15.5441 86.6469C15.5441 86.4021 15.3653 86.1572 15.046 86.0541C14.3819 85.8866 13.7433 85.616 12.9642 85.1907C12.5939 85.0619 12.3129 85.1134 12.1213 85.3067C11.4955 85.7448 10.6271 85.6804 10.0779 85.1134L10.0396 85.0876C9.47765 84.5722 9.40102 83.6572 9.65645 83.0515C9.80971 82.8582 9.84802 82.6005 9.74585 82.2912C9.34994 81.5438 9.05619 80.8093 8.87739 80.1263V80.1005C8.87739 80.0103 8.85185 79.9459 8.81354 79.8943V79.8557L8.72414 79.7655C8.69859 79.7139 8.66028 79.6753 8.62196 79.6366C8.57088 79.5593 8.46871 79.4948 8.27714 79.4948C7.43423 79.366 7 78.8505 7 77.9485C7 77.1495 7.52363 76.5052 8.341 76.3505ZM10.1673 78.5283H13.424C13.5517 79.2242 13.7944 79.7912 14.1775 80.3067L11.8531 82.6521C11.6616 82.8454 11.6616 83.0902 11.8531 83.2835C11.917 83.3479 12.0447 83.4124 12.1724 83.4124C12.3001 83.4124 12.4278 83.3479 12.4917 83.2835L14.8161 80.9381C15.3142 81.3763 15.94 81.634 16.5785 81.6985V84.9845C16.5785 85.2423 16.7701 85.4227 17.0128 85.4227C17.2682 85.4227 17.447 85.2294 17.447 84.9845V81.6985C18.1367 81.5696 18.6986 81.3247 19.2095 80.9381L21.5338 83.2835C21.5977 83.3479 21.7254 83.4124 21.8531 83.4124C21.9808 83.4124 22.1086 83.3479 22.1724 83.2835C22.364 83.0902 22.364 82.8454 22.1724 82.6521L19.848 80.3067C20.2752 79.8067 20.5384 79.1854 20.6015 78.5283H23.8582C24.1137 78.5283 24.2925 78.3351 24.2925 78.0902C24.2925 77.8325 24.1009 77.6521 23.8582 77.6521H20.7165C20.5888 76.9562 20.3461 76.3892 19.963 75.8737L22.2874 73.5284C22.4789 73.3351 22.4789 73.0902 22.2874 72.8969C22.0958 72.7036 21.8531 72.7036 21.6616 72.8969L19.3372 75.2423C18.8391 74.8041 18.2133 74.5464 17.5747 74.482V71.1959C17.5747 70.9381 17.3831 70.7577 17.1405 70.7577C16.8851 70.7577 16.7063 70.951 16.7063 71.1959V74.4304C16.0166 74.5593 15.4547 74.8041 14.9438 75.1907L12.6194 72.8454C12.4278 72.6521 12.1852 72.6521 11.9936 72.8454C11.802 73.0387 11.802 73.2835 11.9936 73.4768L14.318 75.8222C13.8838 76.3247 13.6284 76.9562 13.5645 77.6005H10.3078C10.0524 77.6005 9.74585 77.8582 9.74585 78.1031C9.72031 78.3479 9.91188 78.5283 10.1673 78.5283Z" fill="#ECECEC"/>
</g>
<g filter="url(#filter12_d_146_103)">
<path d="M81 92C82.1046 92 83 92.8954 83 94V94C83 95.1046 82.1046 96 81 96L45.521 96L9 96C7.89543 96 7 95.1046 7 94V94C7 92.8954 7.89543 92 9 92L45.3918 92L81 92Z" fill="url(#paint8_linear_146_103)"/>
</g>
<g filter="url(#filter13_d_146_103)">
<path d="M95 94C95 95.1046 94.1046 96 93 96V96C91.8954 96 91 95.1046 91 94L91 72.8222L91 51C91 49.8954 91.8954 49 93 49V49C94.1046 49 95 49.8954 95 51L95 72.7423L95 94Z" fill="url(#paint9_linear_146_103)"/>
</g>
<g filter="url(#filter14_i_146_103)">
<path d="M60 34L60 42.25L55 48.5L55 59L45 59L45 48.5L40 42.25L40 34L60 34Z" fill="#6A779E"/>
</g>
<path d="M54.5 48.5L54.5 58.5L45.5 58.5L45.5 48.5L45.5 48.3246L45.3904 48.1877L40.5 42.0746L40.5 34.5L59.5 34.5L59.5 42.0746L54.6096 48.1877L54.5 48.3246L54.5 48.5Z" stroke="#DFEDFF" stroke-miterlimit="10"/>
<g filter="url(#filter15_i_146_103)">
<rect x="29" y="41" width="15" height="22" transform="rotate(90 29 41)" fill="#6A779E"/>
</g>
<rect x="28.5" y="41.5" width="14" height="21" transform="rotate(90 28.5 41.5)" stroke="#DFEDFF" stroke-miterlimit="10"/>
</g>
<defs>
<filter id="filter0_d_146_103" x="78.309" y="31.8389" width="5.89473" height="9.59712" filterUnits="userSpaceOnUse" color-interpolation-filters="sRGB">
<feFlood flood-opacity="0" result="BackgroundImageFix"/>
<feColorMatrix in="SourceAlpha" type="matrix" values="0 0 0 0 0 0 0 0 0 0 0 0 0 0 0 0 0 0 127 0" result="hardAlpha"/>
<feOffset dy="0.621118"/>
<feGaussianBlur stdDeviation="1.24224"/>
<feColorMatrix type="matrix" values="0 0 0 0 0.0156863 0 0 0 0 0.270588 0 0 0 0 0.380392 0 0 0 0.549 0"/>
<feBlend mode="normal" in2="BackgroundImageFix" result="effect1_dropShadow_146_103"/>
<feBlend mode="normal" in="SourceGraphic" in2="effect1_dropShadow_146_103" result="shape"/>
</filter>
<filter id="filter1_d_146_103" x="78.309" y="42.0208" width="5.89473" height="9.59712" filterUnits="userSpaceOnUse" color-interpolation-filters="sRGB">
<feFlood flood-opacity="0" result="BackgroundImageFix"/>
<feColorMatrix in="SourceAlpha" type="matrix" values="0 0 0 0 0 0 0 0 0 0 0 0 0 0 0 0 0 0 127 0" result="hardAlpha"/>
<feOffset dy="0.621118"/>
<feGaussianBlur stdDeviation="1.24224"/>
<feColorMatrix type="matrix" values="0 0 0 0 0.0156863 0 0 0 0 0.270588 0 0 0 0 0.380392 0 0 0 0.549 0"/>
<feBlend mode="normal" in2="BackgroundImageFix" result="effect1_dropShadow_146_103"/>
<feBlend mode="normal" in="SourceGraphic" in2="effect1_dropShadow_146_103" result="shape"/>
</filter>
<filter id="filter2_d_146_103" x="72.7725" y="33.0862" width="2.62109" height="15.5798" filterUnits="userSpaceOnUse" color-interpolation-filters="sRGB">
<feFlood flood-opacity="0" result="BackgroundImageFix"/>
<feColorMatrix in="SourceAlpha" type="matrix" values="0 0 0 0 0 0 0 0 0 0 0 0 0 0 0 0 0 0 127 0" result="hardAlpha"/>
<feOffset/>
<feGaussianBlur stdDeviation="0.5"/>
<feComposite in2="hardAlpha" operator="out"/>
<feColorMatrix type="matrix" values="0 0 0 0 0 0 0 0 0 0 0 0 0 0 0 0 0 0 0.25 0"/>
<feBlend mode="normal" in2="BackgroundImageFix" result="effect1_dropShadow_146_103"/>
<feBlend mode="normal" in="SourceGraphic" in2="effect1_dropShadow_146_103" result="shape"/>
</filter>
<filter id="filter3_d_146_103" x="77.4004" y="33.0863" width="2.62109" height="15.5798" filterUnits="userSpaceOnUse" color-interpolation-filters="sRGB">
<feFlood flood-opacity="0" result="BackgroundImageFix"/>
<feColorMatrix in="SourceAlpha" type="matrix" values="0 0 0 0 0 0 0 0 0 0 0 0 0 0 0 0 0 0 127 0" result="hardAlpha"/>
<feOffset/>
<feGaussianBlur stdDeviation="0.5"/>
<feComposite in2="hardAlpha" operator="out"/>
<feColorMatrix type="matrix" values="0 0 0 0 0 0 0 0 0 0 0 0 0 0 0 0 0 0 0.25 0"/>
<feBlend mode="normal" in2="BackgroundImageFix" result="effect1_dropShadow_146_103"/>
<feBlend mode="normal" in="SourceGraphic" in2="effect1_dropShadow_146_103" result="shape"/>
</filter>
<filter id="filter4_d_146_103" x="75.0864" y="33.0863" width="2.62109" height="15.5798" filterUnits="userSpaceOnUse" color-interpolation-filters="sRGB">
<feFlood flood-opacity="0" result="BackgroundImageFix"/>
<feColorMatrix in="SourceAlpha" type="matrix" values="0 0 0 0 0 0 0 0 0 0 0 0 0 0 0 0 0 0 127 0" result="hardAlpha"/>
<feOffset/>
<feGaussianBlur stdDeviation="0.5"/>
<feComposite in2="hardAlpha" operator="out"/>
<feColorMatrix type="matrix" values="0 0 0 0 0 0 0 0 0 0 0 0 0 0 0 0 0 0 0.25 0"/>
<feBlend mode="normal" in2="BackgroundImageFix" result="effect1_dropShadow_146_103"/>
<feBlend mode="normal" in="SourceGraphic" in2="effect1_dropShadow_146_103" result="shape"/>
</filter>
<filter id="filter5_d_146_103" x="79.7148" y="33.0863" width="2.62109" height="15.5798" filterUnits="userSpaceOnUse" color-interpolation-filters="sRGB">
<feFlood flood-opacity="0" result="BackgroundImageFix"/>
<feColorMatrix in="SourceAlpha" type="matrix" values="0 0 0 0 0 0 0 0 0 0 0 0 0 0 0 0 0 0 127 0" result="hardAlpha"/>
<feOffset/>
<feGaussianBlur stdDeviation="0.5"/>
<feComposite in2="hardAlpha" operator="out"/>
<feColorMatrix type="matrix" values="0 0 0 0 0 0 0 0 0 0 0 0 0 0 0 0 0 0 0.25 0"/>
<feBlend mode="normal" in2="BackgroundImageFix" result="effect1_dropShadow_146_103"/>
<feBlend mode="normal" in="SourceGraphic" in2="effect1_dropShadow_146_103" result="shape"/>
</filter>
<filter id="filter6_d_146_103" x="74" y="61" width="24" height="12" filterUnits="userSpaceOnUse" color-interpolation-filters="sRGB">
<feFlood flood-opacity="0" result="BackgroundImageFix"/>
<feColorMatrix in="SourceAlpha" type="matrix" values="0 0 0 0 0 0 0 0 0 0 0 0 0 0 0 0 0 0 127 0" result="hardAlpha"/>
<feOffset dy="-2"/>
<feGaussianBlur stdDeviation="2"/>
<feComposite in2="hardAlpha" operator="out"/>
<feColorMatrix type="matrix" values="0 0 0 0 0 0 0 0 0 0 0 0 0 0 0 0 0 0 0.25 0"/>
<feBlend mode="normal" in2="BackgroundImageFix" result="effect1_dropShadow_146_103"/>
<feBlend mode="normal" in="SourceGraphic" in2="effect1_dropShadow_146_103" result="shape"/>
</filter>
<filter id="filter7_d_146_103" x="74" y="81" width="24" height="12" filterUnits="userSpaceOnUse" color-interpolation-filters="sRGB">
<feFlood flood-opacity="0" result="BackgroundImageFix"/>
<feColorMatrix in="SourceAlpha" type="matrix" values="0 0 0 0 0 0 0 0 0 0 0 0 0 0 0 0 0 0 127 0" result="hardAlpha"/>
<feOffset dy="-2"/>
<feGaussianBlur stdDeviation="2"/>
<feComposite in2="hardAlpha" operator="out"/>
<feColorMatrix type="matrix" values="0 0 0 0 0 0 0 0 0 0 0 0 0 0 0 0 0 0 0.25 0"/>
<feBlend mode="normal" in2="BackgroundImageFix" result="effect1_dropShadow_146_103"/>
<feBlend mode="normal" in="SourceGraphic" in2="effect1_dropShadow_146_103" result="shape"/>
</filter>
<filter id="filter8_d_146_103" x="47" y="43" width="51" height="12" filterUnits="userSpaceOnUse" color-interpolation-filters="sRGB">
<feFlood flood-opacity="0" result="BackgroundImageFix"/>
<feColorMatrix in="SourceAlpha" type="matrix" values="0 0 0 0 0 0 0 0 0 0 0 0 0 0 0 0 0 0 127 0" result="hardAlpha"/>
<feOffset dy="-2"/>
<feGaussianBlur stdDeviation="2"/>
<feComposite in2="hardAlpha" operator="out"/>
<feColorMatrix type="matrix" values="0 0 0 0 0 0 0 0 0 0 0 0 0 0 0 0 0 0 0.25 0"/>
<feBlend mode="normal" in2="BackgroundImageFix" result="effect1_dropShadow_146_103"/>
<feBlend mode="normal" in="SourceGraphic" in2="effect1_dropShadow_146_103" result="shape"/>
</filter>
<filter id="filter9_i_146_103" x="4" y="38" width="28" height="24" filterUnits="userSpaceOnUse" color-interpolation-filters="sRGB">
<feFlood flood-opacity="0" result="BackgroundImageFix"/>
<feBlend mode="normal" in="SourceGraphic" in2="BackgroundImageFix" result="shape"/>
<feColorMatrix in="SourceAlpha" type="matrix" values="0 0 0 0 0 0 0 0 0 0 0 0 0 0 0 0 0 0 127 0" result="hardAlpha"/>
<feOffset/>
<feGaussianBlur stdDeviation="3"/>
<feComposite in2="hardAlpha" operator="arithmetic" k2="-1" k3="1"/>
<feColorMatrix type="matrix" values="0 0 0 0 0.0156863 0 0 0 0 0.270588 0 0 0 0 0.380392 0 0 0 1 0"/>
<feBlend mode="normal" in2="shape" result="effect1_innerShadow_146_103"/>
</filter>
<filter id="filter10_i_146_103" x="0" y="58" width="89" height="42" filterUnits="userSpaceOnUse" color-interpolation-filters="sRGB">
<feFlood flood-opacity="0" result="BackgroundImageFix"/>
<feBlend mode="normal" in="SourceGraphic" in2="BackgroundImageFix" result="shape"/>
<feColorMatrix in="SourceAlpha" type="matrix" values="0 0 0 0 0 0 0 0 0 0 0 0 0 0 0 0 0 0 127 0" result="hardAlpha"/>
<feOffset/>
<feGaussianBlur stdDeviation="3"/>
<feComposite in2="hardAlpha" operator="arithmetic" k2="-1" k3="1"/>
<feColorMatrix type="matrix" values="0 0 0 0 0.0156863 0 0 0 0 0.270588 0 0 0 0 0.380392 0 0 0 0.55 0"/>
<feBlend mode="normal" in2="shape" result="effect1_innerShadow_146_103"/>
</filter>
<filter id="filter11_d_146_103" x="5" y="68" width="24" height="24" filterUnits="userSpaceOnUse" color-interpolation-filters="sRGB">
<feFlood flood-opacity="0" result="BackgroundImageFix"/>
<feColorMatrix in="SourceAlpha" type="matrix" values="0 0 0 0 0 0 0 0 0 0 0 0 0 0 0 0 0 0 127 0" result="hardAlpha"/>
<feOffset dy="2"/>
<feGaussianBlur stdDeviation="1"/>
<feComposite in2="hardAlpha" operator="out"/>
<feColorMatrix type="matrix" values="0 0 0 0 0.0156863 0 0 0 0 0.270588 0 0 0 0 0.380392 0 0 0 0.55 0"/>
<feBlend mode="normal" in2="BackgroundImageFix" result="effect1_dropShadow_146_103"/>
<feBlend mode="normal" in="SourceGraphic" in2="effect1_dropShadow_146_103" result="shape"/>
</filter>
<filter id="filter12_d_146_103" x="3" y="86" width="84" height="12" filterUnits="userSpaceOnUse" color-interpolation-filters="sRGB">
<feFlood flood-opacity="0" result="BackgroundImageFix"/>
<feColorMatrix in="SourceAlpha" type="matrix" values="0 0 0 0 0 0 0 0 0 0 0 0 0 0 0 0 0 0 127 0" result="hardAlpha"/>
<feOffset dy="-2"/>
<feGaussianBlur stdDeviation="2"/>
<feComposite in2="hardAlpha" operator="out"/>
<feColorMatrix type="matrix" values="0 0 0 0 0 0 0 0 0 0 0 0 0 0 0 0 0 0 0.25 0"/>
<feBlend mode="normal" in2="BackgroundImageFix" result="effect1_dropShadow_146_103"/>
<feBlend mode="normal" in="SourceGraphic" in2="effect1_dropShadow_146_103" result="shape"/>
</filter>
<filter id="filter13_d_146_103" x="87" y="43" width="12" height="55" filterUnits="userSpaceOnUse" color-interpolation-filters="sRGB">
<feFlood flood-opacity="0" result="BackgroundImageFix"/>
<feColorMatrix in="SourceAlpha" type="matrix" values="0 0 0 0 0 0 0 0 0 0 0 0 0 0 0 0 0 0 127 0" result="hardAlpha"/>
<feOffset dy="-2"/>
<feGaussianBlur stdDeviation="2"/>
<feComposite in2="hardAlpha" operator="out"/>
<feColorMatrix type="matrix" values="0 0 0 0 0 0 0 0 0 0 0 0 0 0 0 0 0 0 0.25 0"/>
<feBlend mode="normal" in2="BackgroundImageFix" result="effect1_dropShadow_146_103"/>
<feBlend mode="normal" in="SourceGraphic" in2="effect1_dropShadow_146_103" result="shape"/>
</filter>
<filter id="filter14_i_146_103" x="40" y="34" width="20" height="25" filterUnits="userSpaceOnUse" color-interpolation-filters="sRGB">
<feFlood flood-opacity="0" result="BackgroundImageFix"/>
<feBlend mode="normal" in="SourceGraphic" in2="BackgroundImageFix" result="shape"/>
<feColorMatrix in="SourceAlpha" type="matrix" values="0 0 0 0 0 0 0 0 0 0 0 0 0 0 0 0 0 0 127 0" result="hardAlpha"/>
<feOffset/>
<feGaussianBlur stdDeviation="3"/>
<feComposite in2="hardAlpha" operator="arithmetic" k2="-1" k3="1"/>
<feColorMatrix type="matrix" values="0 0 0 0 0.0156863 0 0 0 0 0.270588 0 0 0 0 0.380392 0 0 0 0.55 0"/>
<feBlend mode="normal" in2="shape" result="effect1_innerShadow_146_103"/>
</filter>
<filter id="filter15_i_146_103" x="7" y="41" width="22" height="15" filterUnits="userSpaceOnUse" color-interpolation-filters="sRGB">
<feFlood flood-opacity="0" result="BackgroundImageFix"/>
<feBlend mode="normal" in="SourceGraphic" in2="BackgroundImageFix" result="shape"/>
<feColorMatrix in="SourceAlpha" type="matrix" values="0 0 0 0 0 0 0 0 0 0 0 0 0 0 0 0 0 0 127 0" result="hardAlpha"/>
<feOffset/>
<feGaussianBlur stdDeviation="3"/>
<feComposite in2="hardAlpha" operator="arithmetic" k2="-1" k3="1"/>
<feColorMatrix type="matrix" values="0 0 0 0 0.0156863 0 0 0 0 0.270588 0 0 0 0 0.380392 0 0 0 0.55 0"/>
<feBlend mode="normal" in2="shape" result="effect1_innerShadow_146_103"/>
</filter>
<linearGradient id="paint0_linear_146_103" x1="79.8681" y1="43.7396" x2="74.9507" y2="43.7396" gradientUnits="userSpaceOnUse">
<stop stop-color="#6A779E"/>
<stop offset="0.122" stop-color="#6A779E"/>
<stop offset="0.677" stop-color="#D4DAE7"/>
<stop offset="1" stop-color="#8B9AAF"/>
</linearGradient>
<linearGradient id="paint1_linear_146_103" x1="83.1075" y1="40.6444" x2="72" y2="40.6444" gradientUnits="userSpaceOnUse">
<stop stop-color="#6A779E"/>
<stop offset="0.122" stop-color="#6A779E"/>
<stop offset="0.677" stop-color="#D4DAE7"/>
<stop offset="1" stop-color="#8B9AAF"/>
</linearGradient>
<linearGradient id="paint2_linear_146_103" x1="82.182" y1="49.438" x2="72.9258" y2="49.438" gradientUnits="userSpaceOnUse">
<stop stop-color="#6A779E"/>
<stop offset="0.122" stop-color="#6A779E"/>
<stop offset="0.677" stop-color="#D4DAE7"/>
<stop offset="1" stop-color="#8B9AAF"/>
</linearGradient>
<linearGradient id="paint3_linear_146_103" x1="83.1075" y1="32.3142" x2="72" y2="32.3142" gradientUnits="userSpaceOnUse">
<stop stop-color="#6A779E"/>
<stop offset="0.122" stop-color="#6A779E"/>
<stop offset="0.677" stop-color="#D4DAE7"/>
<stop offset="1" stop-color="#8B9AAF"/>
</linearGradient>
<linearGradient id="paint4_linear_146_103" x1="74.9507" y1="56.0331" x2="79.8681" y2="56.0331" gradientUnits="userSpaceOnUse">
<stop stop-color="#6A779E"/>
<stop offset="0.122" stop-color="#6A779E"/>
<stop offset="0.677" stop-color="#D4DAE7"/>
<stop offset="1" stop-color="#8B9AAF"/>
</linearGradient>
<linearGradient id="paint5_linear_146_103" x1="86" y1="67" x2="86" y2="71" gradientUnits="userSpaceOnUse">
<stop stop-color="#6A779E"/>
<stop offset="0.122" stop-color="#6A779E"/>
<stop offset="0.677" stop-color="#D4DAE7"/>
<stop offset="1" stop-color="#8B9AAF"/>
</linearGradient>
<linearGradient id="paint6_linear_146_103" x1="86" y1="87" x2="86" y2="91" gradientUnits="userSpaceOnUse">
<stop stop-color="#6A779E"/>
<stop offset="0.122" stop-color="#6A779E"/>
<stop offset="0.677" stop-color="#D4DAE7"/>
<stop offset="1" stop-color="#8B9AAF"/>
</linearGradient>
<linearGradient id="paint7_linear_146_103" x1="72.5" y1="49" x2="72.5" y2="53" gradientUnits="userSpaceOnUse">
<stop stop-color="#6A779E"/>
<stop offset="0.122" stop-color="#6A779E"/>
<stop offset="0.677" stop-color="#D4DAE7"/>
<stop offset="1" stop-color="#8B9AAF"/>
</linearGradient>
<linearGradient id="paint8_linear_146_103" x1="45" y1="92" x2="45" y2="96" gradientUnits="userSpaceOnUse">
<stop stop-color="#6A779E"/>
<stop offset="0.122" stop-color="#6A779E"/>
<stop offset="0.677" stop-color="#D4DAE7"/>
<stop offset="1" stop-color="#8B9AAF"/>
</linearGradient>
<linearGradient id="paint9_linear_146_103" x1="95" y1="72.5" x2="91" y2="72.5" gradientUnits="userSpaceOnUse">
<stop stop-color="#6A779E"/>
<stop offset="0.122" stop-color="#6A779E"/>
<stop offset="0.677" stop-color="#D4DAE7"/>
<stop offset="1" stop-color="#8B9AAF"/>
</linearGradient>
<clipPath id="clip0_146_103">
<rect width="100" height="100" fill="white"/>
</clipPath>
</defs>
</svg>
