<svg width="100" height="100" viewBox="0 0 100 100" fill="none" xmlns="http://www.w3.org/2000/svg">
<path d="M36 60.0002H46V68.0002H36V60.0002Z" fill="url(#paint0_linear_58_2)"/>
<g filter="url(#filter0_d_58_2)">
<rect x="35" y="70.0002" width="12" height="4" rx="2" transform="rotate(-90 35 70.0002)" fill="#BCC6DB"/>
</g>
<path d="M49 60.0001H58V68.0001H49V60.0001Z" fill="url(#paint1_linear_58_2)"/>
<g filter="url(#filter1_i_58_2)">
<path d="M58 58.0002C59.1867 58.0002 60.3467 58.3521 61.3334 59.0114C62.3201 59.6707 63.0892 60.6078 63.5433 61.7041C63.9974 62.8005 64.1162 64.0069 63.8847 65.1708C63.6532 66.3346 63.0817 67.4038 62.2426 68.2429C61.4035 69.082 60.3344 69.6534 59.1705 69.885C58.0066 70.1165 56.8002 69.9976 55.7039 69.5435C54.6075 69.0894 53.6705 68.3204 53.0112 67.3337C52.3519 66.347 52 65.1869 52 64.0002C52 62.4089 52.6322 60.8828 53.7574 59.7576C54.8826 58.6324 56.4087 58.0002 58 58.0002Z" fill="#6A779E"/>
</g>
<path d="M58 59.0002C58.9889 59.0002 59.9556 59.2935 60.7779 59.8429C61.6001 60.3923 62.241 61.1732 62.6194 62.0868C62.9978 63.0004 63.0968 64.0058 62.9039 64.9757C62.711 65.9456 62.2348 66.8365 61.5355 67.5358C60.8362 68.235 59.9453 68.7112 58.9754 68.9042C58.0055 69.0971 57.0002 68.9981 56.0866 68.6196C55.1729 68.2412 54.3921 67.6003 53.8426 66.7781C53.2932 65.9558 53 64.9892 53 64.0002C53 62.6742 53.5268 61.4024 54.4645 60.4647C55.4022 59.527 56.6739 59.0002 58 59.0002Z" stroke="#BCC6DB" stroke-width="2" stroke-miterlimit="10"/>
<path d="M44 25.0002L44 71.0002L51 71.0002L51 25.0002L44 25.0002Z" fill="url(#paint2_linear_58_2)"/>
<path d="M35 55.0002L35 57.0002L60 57.0002L60 55.0002L35 55.0002Z" fill="url(#paint3_linear_58_2)"/>
<g filter="url(#filter2_d_58_2)">
<rect x="41" y="71.0002" width="12" height="4" rx="2" fill="#BCC6DB"/>
</g>
<g filter="url(#filter3_i_58_2)">
<path d="M55 33.0002H61V45.0002H55V33.0002Z" fill="#6A779E"/>
</g>
<path d="M55.5 33.5002H60.5V44.5002H55.5V33.5002Z" stroke="#BCC6DB" stroke-miterlimit="10"/>
<path d="M38 32.0002L38 49.5078L56.3044 49.5078L56.3044 32.0002L38 32.0002Z" fill="url(#paint4_linear_58_2)"/>
<path d="M39.5254 48.7449L39.5254 53.321L54.7791 53.321L54.7791 48.7449L39.5254 48.7449Z" fill="url(#paint5_linear_58_2)"/>
<path d="M38 32.627L38 29.5762C38 28.3626 38.4821 27.1986 39.3403 26.3404C40.1985 25.4822 41.3625 25.0001 42.5761 25.0001L51.7283 25.0001C52.942 25.0001 54.1059 25.4822 54.9641 26.3404C55.8223 27.1986 56.3044 28.3626 56.3044 29.5762L56.3044 32.627L38 32.627Z" fill="url(#paint6_linear_58_2)"/>
<g filter="url(#filter4_d_58_2)">
<g opacity="0.502">
<path d="M41.4321 47.7067L41.4321 32.2759L41.4321 47.7067Z" stroke="#C8CCDA" stroke-width="0.621118" stroke-linejoin="round"/>
</g>
</g>
<g filter="url(#filter5_d_58_2)">
<g opacity="0.502">
<path d="M49.0591 47.7068L49.0591 32.276L49.0591 47.7068Z" stroke="#C8CCDA" stroke-width="0.621118" stroke-linejoin="round"/>
</g>
</g>
<g filter="url(#filter6_d_58_2)">
<g opacity="0.502">
<path d="M45.2456 47.7068L45.2456 32.276L45.2456 47.7068Z" stroke="#C8CCDA" stroke-width="0.621118" stroke-linejoin="round"/>
</g>
</g>
<g filter="url(#filter7_d_58_2)">
<g opacity="0.502">
<path d="M52.8721 47.7068L52.8721 32.276L52.8721 47.7068Z" stroke="#C8CCDA" stroke-width="0.621118" stroke-linejoin="round"/>
</g>
</g>
<defs>
<filter id="filter0_d_58_2" x="33" y="57.0002" width="8" height="16" filterUnits="userSpaceOnUse" color-interpolation-filters="sRGB">
<feFlood flood-opacity="0" result="BackgroundImageFix"/>
<feColorMatrix in="SourceAlpha" type="matrix" values="0 0 0 0 0 0 0 0 0 0 0 0 0 0 0 0 0 0 127 0" result="hardAlpha"/>
<feOffset dy="1"/>
<feGaussianBlur stdDeviation="1"/>
<feComposite in2="hardAlpha" operator="out"/>
<feColorMatrix type="matrix" values="0 0 0 0 0.0156863 0 0 0 0 0.270588 0 0 0 0 0.380392 0 0 0 0.55 0"/>
<feBlend mode="normal" in2="BackgroundImageFix" result="effect1_dropShadow_58_2"/>
<feBlend mode="normal" in="SourceGraphic" in2="effect1_dropShadow_58_2" result="shape"/>
</filter>
<filter id="filter1_i_58_2" x="52" y="58.0002" width="12" height="12" filterUnits="userSpaceOnUse" color-interpolation-filters="sRGB">
<feFlood flood-opacity="0" result="BackgroundImageFix"/>
<feBlend mode="normal" in="SourceGraphic" in2="BackgroundImageFix" result="shape"/>
<feColorMatrix in="SourceAlpha" type="matrix" values="0 0 0 0 0 0 0 0 0 0 0 0 0 0 0 0 0 0 127 0" result="hardAlpha"/>
<feOffset/>
<feGaussianBlur stdDeviation="3"/>
<feComposite in2="hardAlpha" operator="arithmetic" k2="-1" k3="1"/>
<feColorMatrix type="matrix" values="0 0 0 0 0.0156863 0 0 0 0 0.270588 0 0 0 0 0.380392 0 0 0 0.55 0"/>
<feBlend mode="normal" in2="shape" result="effect1_innerShadow_58_2"/>
</filter>
<filter id="filter2_d_58_2" x="39" y="70.0002" width="16" height="8" filterUnits="userSpaceOnUse" color-interpolation-filters="sRGB">
<feFlood flood-opacity="0" result="BackgroundImageFix"/>
<feColorMatrix in="SourceAlpha" type="matrix" values="0 0 0 0 0 0 0 0 0 0 0 0 0 0 0 0 0 0 127 0" result="hardAlpha"/>
<feOffset dy="1"/>
<feGaussianBlur stdDeviation="1"/>
<feComposite in2="hardAlpha" operator="out"/>
<feColorMatrix type="matrix" values="0 0 0 0 0.0156863 0 0 0 0 0.270588 0 0 0 0 0.380392 0 0 0 0.55 0"/>
<feBlend mode="normal" in2="BackgroundImageFix" result="effect1_dropShadow_58_2"/>
<feBlend mode="normal" in="SourceGraphic" in2="effect1_dropShadow_58_2" result="shape"/>
</filter>
<filter id="filter3_i_58_2" x="55" y="33.0002" width="6" height="12" filterUnits="userSpaceOnUse" color-interpolation-filters="sRGB">
<feFlood flood-opacity="0" result="BackgroundImageFix"/>
<feBlend mode="normal" in="SourceGraphic" in2="BackgroundImageFix" result="shape"/>
<feColorMatrix in="SourceAlpha" type="matrix" values="0 0 0 0 0 0 0 0 0 0 0 0 0 0 0 0 0 0 127 0" result="hardAlpha"/>
<feOffset/>
<feGaussianBlur stdDeviation="3"/>
<feComposite in2="hardAlpha" operator="arithmetic" k2="-1" k3="1"/>
<feColorMatrix type="matrix" values="0 0 0 0 0.0156863 0 0 0 0 0.270588 0 0 0 0 0.380392 0 0 0 0.55 0"/>
<feBlend mode="normal" in2="shape" result="effect1_innerShadow_58_2"/>
</filter>
<filter id="filter4_d_58_2" x="41.1216" y="31.9653" width="1.24221" height="16.0519" filterUnits="userSpaceOnUse" color-interpolation-filters="sRGB">
<feFlood flood-opacity="0" result="BackgroundImageFix"/>
<feColorMatrix in="SourceAlpha" type="matrix" values="0 0 0 0 0 0 0 0 0 0 0 0 0 0 0 0 0 0 127 0" result="hardAlpha"/>
<feOffset dx="0.621118"/>
<feColorMatrix type="matrix" values="0 0 0 0 0.0156863 0 0 0 0 0.270588 0 0 0 0 0.380392 0 0 0 0.549 0"/>
<feBlend mode="normal" in2="BackgroundImageFix" result="effect1_dropShadow_58_2"/>
<feBlend mode="normal" in="SourceGraphic" in2="effect1_dropShadow_58_2" result="shape"/>
</filter>
<filter id="filter5_d_58_2" x="48.7485" y="31.9655" width="1.24221" height="16.0519" filterUnits="userSpaceOnUse" color-interpolation-filters="sRGB">
<feFlood flood-opacity="0" result="BackgroundImageFix"/>
<feColorMatrix in="SourceAlpha" type="matrix" values="0 0 0 0 0 0 0 0 0 0 0 0 0 0 0 0 0 0 127 0" result="hardAlpha"/>
<feOffset dx="0.621118"/>
<feColorMatrix type="matrix" values="0 0 0 0 0.0156863 0 0 0 0 0.270588 0 0 0 0 0.380392 0 0 0 0.549 0"/>
<feBlend mode="normal" in2="BackgroundImageFix" result="effect1_dropShadow_58_2"/>
<feBlend mode="normal" in="SourceGraphic" in2="effect1_dropShadow_58_2" result="shape"/>
</filter>
<filter id="filter6_d_58_2" x="44.9351" y="31.9655" width="1.24221" height="16.0519" filterUnits="userSpaceOnUse" color-interpolation-filters="sRGB">
<feFlood flood-opacity="0" result="BackgroundImageFix"/>
<feColorMatrix in="SourceAlpha" type="matrix" values="0 0 0 0 0 0 0 0 0 0 0 0 0 0 0 0 0 0 127 0" result="hardAlpha"/>
<feOffset dx="0.621118"/>
<feColorMatrix type="matrix" values="0 0 0 0 0.0156863 0 0 0 0 0.270588 0 0 0 0 0.380392 0 0 0 0.549 0"/>
<feBlend mode="normal" in2="BackgroundImageFix" result="effect1_dropShadow_58_2"/>
<feBlend mode="normal" in="SourceGraphic" in2="effect1_dropShadow_58_2" result="shape"/>
</filter>
<filter id="filter7_d_58_2" x="52.5615" y="31.9655" width="1.24221" height="16.0519" filterUnits="userSpaceOnUse" color-interpolation-filters="sRGB">
<feFlood flood-opacity="0" result="BackgroundImageFix"/>
<feColorMatrix in="SourceAlpha" type="matrix" values="0 0 0 0 0 0 0 0 0 0 0 0 0 0 0 0 0 0 127 0" result="hardAlpha"/>
<feOffset dx="0.621118"/>
<feColorMatrix type="matrix" values="0 0 0 0 0.0156863 0 0 0 0 0.270588 0 0 0 0 0.380392 0 0 0 0.549 0"/>
<feBlend mode="normal" in2="BackgroundImageFix" result="effect1_dropShadow_58_2"/>
<feBlend mode="normal" in="SourceGraphic" in2="effect1_dropShadow_58_2" result="shape"/>
</filter>
<linearGradient id="paint0_linear_58_2" x1="40.5455" y1="60.0002" x2="40.5455" y2="68.0002" gradientUnits="userSpaceOnUse">
<stop offset="0.12" stop-color="#6A779E"/>
<stop offset="0.68" stop-color="#D4DAE7"/>
<stop offset="1" stop-color="#8B9AAF"/>
</linearGradient>
<linearGradient id="paint1_linear_58_2" x1="53.0909" y1="60.0001" x2="53.0909" y2="68.0001" gradientUnits="userSpaceOnUse">
<stop offset="0.12" stop-color="#6A779E"/>
<stop offset="0.68" stop-color="#D4DAE7"/>
<stop offset="1" stop-color="#8B9AAF"/>
</linearGradient>
<linearGradient id="paint2_linear_58_2" x1="51" y1="48.0002" x2="44" y2="48.0002" gradientUnits="userSpaceOnUse">
<stop stop-color="#6A779E"/>
<stop offset="0.122" stop-color="#6A779E"/>
<stop offset="0.677" stop-color="#D4DAE7"/>
<stop offset="1" stop-color="#8B9AAF"/>
</linearGradient>
<linearGradient id="paint3_linear_58_2" x1="60" y1="56.0002" x2="35" y2="56.0002" gradientUnits="userSpaceOnUse">
<stop stop-color="#6A779E"/>
<stop offset="0.122" stop-color="#6A779E"/>
<stop offset="0.677" stop-color="#D4DAE7"/>
<stop offset="1" stop-color="#8B9AAF"/>
</linearGradient>
<linearGradient id="paint4_linear_58_2" x1="56.3044" y1="40.754" x2="38" y2="40.754" gradientUnits="userSpaceOnUse">
<stop stop-color="#6A779E"/>
<stop offset="0.122" stop-color="#6A779E"/>
<stop offset="0.677" stop-color="#D4DAE7"/>
<stop offset="1" stop-color="#8B9AAF"/>
</linearGradient>
<linearGradient id="paint5_linear_58_2" x1="54.7791" y1="51.033" x2="39.5254" y2="51.033" gradientUnits="userSpaceOnUse">
<stop stop-color="#6A779E"/>
<stop offset="0.122" stop-color="#6A779E"/>
<stop offset="0.677" stop-color="#D4DAE7"/>
<stop offset="1" stop-color="#8B9AAF"/>
</linearGradient>
<linearGradient id="paint6_linear_58_2" x1="56.3044" y1="28.8135" x2="38" y2="28.8135" gradientUnits="userSpaceOnUse">
<stop stop-color="#6A779E"/>
<stop offset="0.122" stop-color="#6A779E"/>
<stop offset="0.677" stop-color="#D4DAE7"/>
<stop offset="1" stop-color="#8B9AAF"/>
</linearGradient>
</defs>
</svg>
