<svg width="100" height="100" viewBox="0 0 100 100" fill="none" xmlns="http://www.w3.org/2000/svg">
<path d="M71 38L64 38L64 29L71 29L71 38Z" fill="url(#paint0_linear_151_398)"/>
<g filter="url(#filter0_d_151_398)">
<path d="M73 28C73 28.5523 72.5523 29 72 29L63 29C62.4477 29 62 28.5523 62 28V28C62 27.4477 62.4477 27 63 27L72 27C72.5523 27 73 27.4477 73 28V28Z" fill="#BCC6DB"/>
</g>
<g filter="url(#filter1_i_151_398)">
<rect x="83" y="36" width="29" height="66" transform="rotate(90 83 36)" fill="#A9BAD0"/>
</g>
<rect x="82.5" y="36.5" width="28" height="65" transform="rotate(90 82.5 36.5)" stroke="#DFEDFF" stroke-miterlimit="10"/>
<path d="M15 36H85V38H15V36Z" fill="#BCC6DB"/>
<g filter="url(#filter2_i_151_398)">
<path d="M9 63H91V72H9V63Z" fill="#6A779E"/>
</g>
<path d="M90.5 63.5H9.5V71.5H90.5V63.5Z" stroke="#DFEDFF" stroke-miterlimit="10"/>
<path d="M7 70H93V72H7V70Z" fill="#BCC6DB"/>
<path d="M5 63H95V65H5V63Z" fill="#BCC6DB"/>
<defs>
<filter id="filter0_d_151_398" x="60" y="24" width="15" height="6" filterUnits="userSpaceOnUse" color-interpolation-filters="sRGB">
<feFlood flood-opacity="0" result="BackgroundImageFix"/>
<feColorMatrix in="SourceAlpha" type="matrix" values="0 0 0 0 0 0 0 0 0 0 0 0 0 0 0 0 0 0 127 0" result="hardAlpha"/>
<feOffset dy="-1"/>
<feGaussianBlur stdDeviation="1"/>
<feComposite in2="hardAlpha" operator="out"/>
<feColorMatrix type="matrix" values="0 0 0 0 0.0156863 0 0 0 0 0.270588 0 0 0 0 0.380392 0 0 0 0.55 0"/>
<feBlend mode="normal" in2="BackgroundImageFix" result="effect1_dropShadow_151_398"/>
<feBlend mode="normal" in="SourceGraphic" in2="effect1_dropShadow_151_398" result="shape"/>
</filter>
<filter id="filter1_i_151_398" x="17" y="36" width="66" height="29" filterUnits="userSpaceOnUse" color-interpolation-filters="sRGB">
<feFlood flood-opacity="0" result="BackgroundImageFix"/>
<feBlend mode="normal" in="SourceGraphic" in2="BackgroundImageFix" result="shape"/>
<feColorMatrix in="SourceAlpha" type="matrix" values="0 0 0 0 0 0 0 0 0 0 0 0 0 0 0 0 0 0 127 0" result="hardAlpha"/>
<feOffset/>
<feGaussianBlur stdDeviation="3"/>
<feComposite in2="hardAlpha" operator="arithmetic" k2="-1" k3="1"/>
<feColorMatrix type="matrix" values="0 0 0 0 0.0156863 0 0 0 0 0.270588 0 0 0 0 0.380392 0 0 0 1 0"/>
<feBlend mode="normal" in2="shape" result="effect1_innerShadow_151_398"/>
</filter>
<filter id="filter2_i_151_398" x="9" y="63" width="82" height="9" filterUnits="userSpaceOnUse" color-interpolation-filters="sRGB">
<feFlood flood-opacity="0" result="BackgroundImageFix"/>
<feBlend mode="normal" in="SourceGraphic" in2="BackgroundImageFix" result="shape"/>
<feColorMatrix in="SourceAlpha" type="matrix" values="0 0 0 0 0 0 0 0 0 0 0 0 0 0 0 0 0 0 127 0" result="hardAlpha"/>
<feOffset/>
<feGaussianBlur stdDeviation="3"/>
<feComposite in2="hardAlpha" operator="arithmetic" k2="-1" k3="1"/>
<feColorMatrix type="matrix" values="0 0 0 0 0.0156863 0 0 0 0 0.270588 0 0 0 0 0.380392 0 0 0 0.55 0"/>
<feBlend mode="normal" in2="shape" result="effect1_innerShadow_151_398"/>
</filter>
<linearGradient id="paint0_linear_151_398" x1="71.2742" y1="33.0579" x2="63.6617" y2="33.0579" gradientUnits="userSpaceOnUse">
<stop offset="0.12" stop-color="#6A779E"/>
<stop offset="0.68" stop-color="#D4DAE7"/>
<stop offset="1" stop-color="#8B9AAF"/>
</linearGradient>
</defs>
</svg>
