<svg width="100" height="100" viewBox="0 0 100 100" fill="none" xmlns="http://www.w3.org/2000/svg">
<g filter="url(#filter0_i_110_4264)">
<path d="M80 40L93.3806 52.2787C94.4125 53.2256 95 54.562 95 55.9626L95 61C95 63.7614 92.7614 66 90 66L10 66C7.23858 66 5 63.7614 5 61L5 55.9626C5 54.562 5.58746 53.2256 6.61942 52.2787L20 40L80 40Z" fill="#6A779E"/>
</g>
<path d="M20.1947 40.5L79.8054 40.5L93.0425 52.6471C93.9713 53.4993 94.5 54.7021 94.5 55.9626L94.5 61C94.5 63.4853 92.4853 65.5 90 65.5L10 65.5C7.51473 65.5 5.5 63.4853 5.5 61L5.5 55.9626C5.5 54.7021 6.02871 53.4993 6.95748 52.6471L20.1947 40.5Z" stroke="#A4B3C7" stroke-miterlimit="10"/>
<rect width="10.905" height="26.5526" rx="4" transform="matrix(0.66461 -0.747191 0.754521 0.656276 68.1816 48.6428)" fill="url(#paint0_linear_110_4264)"/>
<rect width="10.905" height="26.5526" rx="4" transform="matrix(-0.66461 -0.747191 -0.754521 0.656276 31.8276 48.6428)" fill="url(#paint1_linear_110_4264)"/>
<path d="M27.7727 35H72.9091L80 40H20L27.7727 35Z" fill="#DAE6FF"/>
<g filter="url(#filter1_i_110_4264)">
<path d="M88.879 53.4701C90.0776 53.4701 91.2494 53.8216 92.2461 54.4801C93.2427 55.1387 94.0195 56.0746 94.4782 57.1698C94.937 58.2649 95.057 59.4699 94.8231 60.6324C94.5893 61.795 94.012 62.8629 93.1644 63.701C92.3168 64.5392 91.2369 65.11 90.0613 65.3413C88.8857 65.5725 87.6671 65.4538 86.5597 65.0002C85.4522 64.5466 84.5057 63.7784 83.8397 62.7929C83.1738 61.8073 82.8184 60.6486 82.8184 59.4633C82.8184 57.8738 83.4569 56.3494 84.5935 55.2254C85.7301 54.1015 87.2716 53.4701 88.879 53.4701Z" fill="#6A779E"/>
</g>
<path d="M88.879 54.4701C89.8823 54.4701 90.8623 54.7644 91.6948 55.3144C92.5272 55.8644 93.1742 56.645 93.5559 57.5561C93.9375 58.4671 94.0371 59.4689 93.8427 60.4352C93.6484 61.4017 93.1682 62.2909 92.4613 62.99C91.7543 63.6892 90.8521 64.1666 89.8683 64.3601C88.8845 64.5536 87.8648 64.4542 86.9387 64.0748C86.0127 63.6955 85.2231 63.054 84.6683 62.233C84.1137 61.4122 83.8184 60.4483 83.8184 59.4633C83.8184 58.1426 84.3488 56.8738 85.2966 55.9365C86.2448 54.9988 87.5332 54.4701 88.879 54.4701Z" stroke="#BCC6DB" stroke-width="2" stroke-miterlimit="10"/>
<g filter="url(#filter2_i_110_4264)">
<path d="M11.1211 53.4701C12.3198 53.4701 13.4916 53.8216 14.4883 54.4801C15.4849 55.1387 16.2617 56.0746 16.7204 57.1698C17.1791 58.2649 17.2991 59.4699 17.0653 60.6324C16.8314 61.795 16.2542 62.8629 15.4066 63.701C14.559 64.5392 13.4791 65.11 12.3035 65.3413C11.1278 65.5725 9.90927 65.4538 8.80184 65.0002C7.69441 64.5466 6.74788 63.7784 6.08194 62.7929C5.41599 61.8073 5.06055 60.6486 5.06055 59.4633C5.06055 57.8738 5.69909 56.3494 6.83568 55.2254C7.97226 54.1015 9.51378 53.4701 11.1211 53.4701Z" fill="#6A779E"/>
</g>
<path d="M11.1211 54.4701C12.1245 54.4701 13.1045 54.7644 13.937 55.3144C14.7694 55.8644 15.4164 56.645 15.7981 57.5561C16.1797 58.4671 16.2793 59.4689 16.0849 60.4352C15.8905 61.4017 15.4104 62.2909 14.7035 62.99C13.9964 63.6892 13.0943 64.1666 12.1105 64.3601C11.1266 64.5536 10.107 64.4542 9.18088 64.0748C8.2549 63.6955 7.46525 63.054 6.91052 62.233C6.35587 61.4122 6.06055 60.4483 6.06055 59.4633C6.06055 58.1426 6.59098 56.8738 7.53882 55.9365C8.48702 54.9988 9.77541 54.4701 11.1211 54.4701Z" stroke="#BCC6DB" stroke-width="2" stroke-miterlimit="10"/>
<path d="M25 41L25 65L75 65L75 41L25 41Z" fill="url(#paint2_linear_110_4264)"/>
<g filter="url(#filter3_i_110_4264)">
<rect x="26" y="40" width="14" height="6" transform="rotate(90 26 40)" fill="#A9BAD0"/>
</g>
<rect x="25.5" y="40.5" width="13" height="5" transform="rotate(90 25.5 40.5)" stroke="#DFEDFF" stroke-miterlimit="10"/>
<g filter="url(#filter4_i_110_4264)">
<rect x="80" y="40" width="14" height="6" transform="rotate(90 80 40)" fill="#A9BAD0"/>
</g>
<rect x="79.5" y="40.5" width="13" height="5" transform="rotate(90 79.5 40.5)" stroke="#DFEDFF" stroke-miterlimit="10"/>
<g filter="url(#filter5_i_110_4264)">
<path d="M23 40C23.5933 40 24.1734 40.1759 24.6667 40.5056C25.1601 40.8352 25.5446 41.3038 25.7716 41.8519C25.9987 42.4001 26.0581 43.0033 25.9424 43.5853C25.8266 44.1672 25.5409 44.7018 25.1213 45.1213C24.7018 45.5409 24.1672 45.8266 23.5853 45.9424C23.0033 46.0581 22.4001 45.9987 21.8519 45.7716C21.3038 45.5446 20.8352 45.1601 20.5056 44.6667C20.1759 44.1734 20 43.5933 20 43C20 42.2044 20.3161 41.4413 20.8787 40.8787C21.4413 40.3161 22.2043 40 23 40Z" fill="#6A779E"/>
</g>
<path d="M23 40.5C23.4945 40.5 23.9778 40.6466 24.3889 40.9213C24.8001 41.196 25.1205 41.5865 25.3097 42.0433C25.4989 42.5001 25.5484 43.0028 25.452 43.4877C25.3555 43.9727 25.1174 44.4181 24.7678 44.7678C24.4181 45.1174 23.9727 45.3555 23.4877 45.452C23.0028 45.5484 22.5001 45.4989 22.0433 45.3097C21.5865 45.1205 21.196 44.8 20.9213 44.3889C20.6466 43.9778 20.5 43.4945 20.5 43C20.5 42.337 20.7634 41.7011 21.2322 41.2322C21.7011 40.7634 22.337 40.5 23 40.5Z" stroke="#BCC6DB" stroke-miterlimit="10"/>
<g filter="url(#filter6_i_110_4264)">
<path d="M77 40C77.5933 40 78.1734 40.1759 78.6667 40.5056C79.1601 40.8352 79.5446 41.3038 79.7716 41.8519C79.9987 42.4001 80.0581 43.0033 79.9424 43.5853C79.8266 44.1672 79.5409 44.7018 79.1213 45.1213C78.7018 45.5409 78.1672 45.8266 77.5853 45.9424C77.0033 46.0581 76.4001 45.9987 75.8519 45.7716C75.3038 45.5446 74.8352 45.1601 74.5056 44.6667C74.1759 44.1734 74 43.5933 74 43C74 42.2044 74.3161 41.4413 74.8787 40.8787C75.4413 40.3161 76.2043 40 77 40Z" fill="#6A779E"/>
</g>
<path d="M77 40.5C77.4945 40.5 77.9778 40.6466 78.3889 40.9213C78.8001 41.196 79.1205 41.5865 79.3097 42.0433C79.4989 42.5001 79.5484 43.0028 79.452 43.4877C79.3555 43.9727 79.1174 44.4181 78.7678 44.7678C78.4181 45.1174 77.9727 45.3555 77.4877 45.452C77.0028 45.5484 76.5001 45.4989 76.0433 45.3097C75.5865 45.1205 75.196 44.8 74.9213 44.3889C74.6466 43.9778 74.5 43.4945 74.5 43C74.5 42.337 74.7634 41.7011 75.2322 41.2322C75.7011 40.7634 76.337 40.5 77 40.5Z" stroke="#BCC6DB" stroke-miterlimit="10"/>
<g filter="url(#filter7_i_110_4264)">
<rect x="100" y="52.4813" width="8.98973" height="100" transform="rotate(90 100 52.4813)" fill="#A9BAD0"/>
</g>
<rect x="99.5" y="52.9813" width="7.98973" height="99" transform="rotate(90 99.5 52.9813)" stroke="#DFEDFF" stroke-miterlimit="10"/>
<g filter="url(#filter8_i_110_4264)">
<path d="M48.4849 50.983C49.6836 50.983 50.8554 51.3345 51.852 51.9931C52.8487 52.6516 53.6255 53.5876 54.0842 54.6827C54.5429 55.7778 54.6629 56.9828 54.4291 58.1454C54.1952 59.3079 53.618 60.3758 52.7704 61.214C51.9228 62.0521 50.8429 62.623 49.6673 62.8542C48.4916 63.0854 47.273 62.9668 46.1656 62.5131C45.0582 62.0595 44.1117 61.2914 43.4457 60.3058C42.7798 59.3202 42.4243 58.1615 42.4243 56.9762C42.4243 55.3867 43.0629 53.8623 44.1994 52.7384C45.336 51.6144 46.8775 50.983 48.4849 50.983Z" fill="#6A779E"/>
</g>
<path d="M48.4849 51.983C49.4883 51.983 50.4682 52.2773 51.3008 52.8274C52.1331 53.3774 52.7802 54.1579 53.1619 55.069C53.5434 55.98 53.6431 56.9818 53.4487 57.9482C53.2543 58.9146 52.7742 59.8039 52.0673 60.5029C51.3602 61.2021 50.458 61.6795 49.4743 61.873C48.4904 62.0665 47.4707 61.9671 46.5447 61.5878C45.6187 61.2085 44.829 60.5669 44.2743 59.7459C43.7196 58.9251 43.4243 57.9612 43.4243 56.9762C43.4243 55.6556 43.9547 54.3867 44.9026 53.4494C45.8508 52.5118 47.1392 51.983 48.4849 51.983Z" stroke="#BCC6DB" stroke-width="2" stroke-miterlimit="10"/>
<defs>
<filter id="filter0_i_110_4264" x="5" y="40" width="90" height="26" filterUnits="userSpaceOnUse" color-interpolation-filters="sRGB">
<feFlood flood-opacity="0" result="BackgroundImageFix"/>
<feBlend mode="normal" in="SourceGraphic" in2="BackgroundImageFix" result="shape"/>
<feColorMatrix in="SourceAlpha" type="matrix" values="0 0 0 0 0 0 0 0 0 0 0 0 0 0 0 0 0 0 127 0" result="hardAlpha"/>
<feOffset/>
<feGaussianBlur stdDeviation="3"/>
<feComposite in2="hardAlpha" operator="arithmetic" k2="-1" k3="1"/>
<feColorMatrix type="matrix" values="0 0 0 0 0.0156863 0 0 0 0 0.270588 0 0 0 0 0.380392 0 0 0 0.55 0"/>
<feBlend mode="normal" in2="shape" result="effect1_innerShadow_110_4264"/>
</filter>
<filter id="filter1_i_110_4264" x="82.8184" y="53.4701" width="12.1211" height="11.9863" filterUnits="userSpaceOnUse" color-interpolation-filters="sRGB">
<feFlood flood-opacity="0" result="BackgroundImageFix"/>
<feBlend mode="normal" in="SourceGraphic" in2="BackgroundImageFix" result="shape"/>
<feColorMatrix in="SourceAlpha" type="matrix" values="0 0 0 0 0 0 0 0 0 0 0 0 0 0 0 0 0 0 127 0" result="hardAlpha"/>
<feOffset/>
<feGaussianBlur stdDeviation="3"/>
<feComposite in2="hardAlpha" operator="arithmetic" k2="-1" k3="1"/>
<feColorMatrix type="matrix" values="0 0 0 0 0.0156863 0 0 0 0 0.270588 0 0 0 0 0.380392 0 0 0 0.55 0"/>
<feBlend mode="normal" in2="shape" result="effect1_innerShadow_110_4264"/>
</filter>
<filter id="filter2_i_110_4264" x="5.06055" y="53.4701" width="12.1211" height="11.9863" filterUnits="userSpaceOnUse" color-interpolation-filters="sRGB">
<feFlood flood-opacity="0" result="BackgroundImageFix"/>
<feBlend mode="normal" in="SourceGraphic" in2="BackgroundImageFix" result="shape"/>
<feColorMatrix in="SourceAlpha" type="matrix" values="0 0 0 0 0 0 0 0 0 0 0 0 0 0 0 0 0 0 127 0" result="hardAlpha"/>
<feOffset/>
<feGaussianBlur stdDeviation="3"/>
<feComposite in2="hardAlpha" operator="arithmetic" k2="-1" k3="1"/>
<feColorMatrix type="matrix" values="0 0 0 0 0.0156863 0 0 0 0 0.270588 0 0 0 0 0.380392 0 0 0 0.55 0"/>
<feBlend mode="normal" in2="shape" result="effect1_innerShadow_110_4264"/>
</filter>
<filter id="filter3_i_110_4264" x="20" y="40" width="6" height="14" filterUnits="userSpaceOnUse" color-interpolation-filters="sRGB">
<feFlood flood-opacity="0" result="BackgroundImageFix"/>
<feBlend mode="normal" in="SourceGraphic" in2="BackgroundImageFix" result="shape"/>
<feColorMatrix in="SourceAlpha" type="matrix" values="0 0 0 0 0 0 0 0 0 0 0 0 0 0 0 0 0 0 127 0" result="hardAlpha"/>
<feOffset/>
<feGaussianBlur stdDeviation="3"/>
<feComposite in2="hardAlpha" operator="arithmetic" k2="-1" k3="1"/>
<feColorMatrix type="matrix" values="0 0 0 0 0.0156863 0 0 0 0 0.270588 0 0 0 0 0.380392 0 0 0 1 0"/>
<feBlend mode="normal" in2="shape" result="effect1_innerShadow_110_4264"/>
</filter>
<filter id="filter4_i_110_4264" x="74" y="40" width="6" height="14" filterUnits="userSpaceOnUse" color-interpolation-filters="sRGB">
<feFlood flood-opacity="0" result="BackgroundImageFix"/>
<feBlend mode="normal" in="SourceGraphic" in2="BackgroundImageFix" result="shape"/>
<feColorMatrix in="SourceAlpha" type="matrix" values="0 0 0 0 0 0 0 0 0 0 0 0 0 0 0 0 0 0 127 0" result="hardAlpha"/>
<feOffset/>
<feGaussianBlur stdDeviation="3"/>
<feComposite in2="hardAlpha" operator="arithmetic" k2="-1" k3="1"/>
<feColorMatrix type="matrix" values="0 0 0 0 0.0156863 0 0 0 0 0.270588 0 0 0 0 0.380392 0 0 0 1 0"/>
<feBlend mode="normal" in2="shape" result="effect1_innerShadow_110_4264"/>
</filter>
<filter id="filter5_i_110_4264" x="20" y="40" width="6" height="6" filterUnits="userSpaceOnUse" color-interpolation-filters="sRGB">
<feFlood flood-opacity="0" result="BackgroundImageFix"/>
<feBlend mode="normal" in="SourceGraphic" in2="BackgroundImageFix" result="shape"/>
<feColorMatrix in="SourceAlpha" type="matrix" values="0 0 0 0 0 0 0 0 0 0 0 0 0 0 0 0 0 0 127 0" result="hardAlpha"/>
<feOffset/>
<feGaussianBlur stdDeviation="3"/>
<feComposite in2="hardAlpha" operator="arithmetic" k2="-1" k3="1"/>
<feColorMatrix type="matrix" values="0 0 0 0 0.0156863 0 0 0 0 0.270588 0 0 0 0 0.380392 0 0 0 0.55 0"/>
<feBlend mode="normal" in2="shape" result="effect1_innerShadow_110_4264"/>
</filter>
<filter id="filter6_i_110_4264" x="74" y="40" width="6" height="6" filterUnits="userSpaceOnUse" color-interpolation-filters="sRGB">
<feFlood flood-opacity="0" result="BackgroundImageFix"/>
<feBlend mode="normal" in="SourceGraphic" in2="BackgroundImageFix" result="shape"/>
<feColorMatrix in="SourceAlpha" type="matrix" values="0 0 0 0 0 0 0 0 0 0 0 0 0 0 0 0 0 0 127 0" result="hardAlpha"/>
<feOffset/>
<feGaussianBlur stdDeviation="3"/>
<feComposite in2="hardAlpha" operator="arithmetic" k2="-1" k3="1"/>
<feColorMatrix type="matrix" values="0 0 0 0 0.0156863 0 0 0 0 0.270588 0 0 0 0 0.380392 0 0 0 0.55 0"/>
<feBlend mode="normal" in2="shape" result="effect1_innerShadow_110_4264"/>
</filter>
<filter id="filter7_i_110_4264" x="0" y="52.4813" width="100" height="8.98975" filterUnits="userSpaceOnUse" color-interpolation-filters="sRGB">
<feFlood flood-opacity="0" result="BackgroundImageFix"/>
<feBlend mode="normal" in="SourceGraphic" in2="BackgroundImageFix" result="shape"/>
<feColorMatrix in="SourceAlpha" type="matrix" values="0 0 0 0 0 0 0 0 0 0 0 0 0 0 0 0 0 0 127 0" result="hardAlpha"/>
<feOffset/>
<feGaussianBlur stdDeviation="3"/>
<feComposite in2="hardAlpha" operator="arithmetic" k2="-1" k3="1"/>
<feColorMatrix type="matrix" values="0 0 0 0 0.0156863 0 0 0 0 0.270588 0 0 0 0 0.380392 0 0 0 1 0"/>
<feBlend mode="normal" in2="shape" result="effect1_innerShadow_110_4264"/>
</filter>
<filter id="filter8_i_110_4264" x="42.4243" y="50.983" width="12.1211" height="11.9863" filterUnits="userSpaceOnUse" color-interpolation-filters="sRGB">
<feFlood flood-opacity="0" result="BackgroundImageFix"/>
<feBlend mode="normal" in="SourceGraphic" in2="BackgroundImageFix" result="shape"/>
<feColorMatrix in="SourceAlpha" type="matrix" values="0 0 0 0 0 0 0 0 0 0 0 0 0 0 0 0 0 0 127 0" result="hardAlpha"/>
<feOffset/>
<feGaussianBlur stdDeviation="3"/>
<feComposite in2="hardAlpha" operator="arithmetic" k2="-1" k3="1"/>
<feColorMatrix type="matrix" values="0 0 0 0 0.0156863 0 0 0 0 0.270588 0 0 0 0 0.380392 0 0 0 0.55 0"/>
<feBlend mode="normal" in2="shape" result="effect1_innerShadow_110_4264"/>
</filter>
<linearGradient id="paint0_linear_110_4264" x1="10.6467" y1="12.5517" x2="6.44666e-07" y2="12.5517" gradientUnits="userSpaceOnUse">
<stop stop-color="#8E98B5"/>
<stop offset="0.122" stop-color="#A2AAC2"/>
<stop offset="0.677" stop-color="#D4DAE7"/>
<stop offset="1" stop-color="#8B9AAF"/>
</linearGradient>
<linearGradient id="paint1_linear_110_4264" x1="10.6467" y1="12.5517" x2="6.44666e-07" y2="12.5517" gradientUnits="userSpaceOnUse">
<stop stop-color="#8E98B5"/>
<stop offset="0.122" stop-color="#A2AAC2"/>
<stop offset="0.677" stop-color="#D4DAE7"/>
<stop offset="1" stop-color="#8B9AAF"/>
</linearGradient>
<linearGradient id="paint2_linear_110_4264" x1="75" y1="53" x2="25" y2="53" gradientUnits="userSpaceOnUse">
<stop stop-color="#6A779E"/>
<stop offset="0.122" stop-color="#6A779E"/>
<stop offset="0.677" stop-color="#D4DAE7"/>
<stop offset="1" stop-color="#8B9AAF"/>
</linearGradient>
</defs>
</svg>
