<svg width="128" height="100" viewBox="0 0 128 100" fill="none" xmlns="http://www.w3.org/2000/svg">
<g clip-path="url(#clip0_103_2)">
<path d="M76.8319 41.7444L87.5416 28.5421L81.4137 23.5711L70.704 36.7735L76.8319 41.7444Z" fill="#A9BAD0" stroke="#DFEDFF" stroke-miterlimit="10"/>
<g filter="url(#filter0_i_103_2)">
<path d="M11 23.1277H69C69 23.1277 86 39.3945 95.5 42.6277C110.47 47.7224 122 47.6277 122 47.6277V66.6277C122 66.6277 86.8646 67.6749 59 59.1277C40.8196 53.551 11 42.6277 11 42.6277V23.1277Z" fill="#A9BAD0"/>
</g>
<path d="M121.5 66.1393V48.1224C121.488 48.1222 121.477 48.1219 121.465 48.1217C121.115 48.1142 120.601 48.0978 119.938 48.0622C118.612 47.9908 116.69 47.8424 114.3 47.5341C109.52 46.9175 102.861 45.6611 95.3389 43.101C92.8998 42.2709 90.0119 40.6179 87.0716 38.6311C84.1243 36.6395 81.0955 34.2925 78.3699 32.0515C75.6435 29.8097 73.2155 27.6699 71.4693 26.0907C70.5961 25.301 69.893 24.6512 69.4079 24.1985C69.1653 23.9722 68.9773 23.7951 68.8497 23.6745C68.8321 23.6578 68.8156 23.6422 68.8003 23.6277H11.5V42.2781L11.5108 42.282C11.7335 42.3634 12.0625 42.4834 12.4878 42.6381C13.3383 42.9475 14.5737 43.3958 16.1131 43.9513C19.1919 45.0621 23.4862 46.6014 28.3485 48.3149C38.0752 51.7425 50.0669 55.8646 59.1466 58.6497C73.0253 62.9068 88.7313 64.7784 100.982 65.584C107.104 65.9865 112.358 66.1225 116.079 66.1578C117.94 66.1754 119.418 66.1679 120.43 66.156C120.882 66.1507 121.241 66.1445 121.5 66.1393Z" stroke="#DFEDFF" stroke-miterlimit="10"/>
<line y1="-0.5" x2="29.1548" y2="-0.5" transform="matrix(-0.926092 0.377297 0.377297 0.926092 74 30.1277)" stroke="#BCC6DB"/>
<line y1="-0.5" x2="18.868" y2="-0.5" transform="matrix(-0.529999 0.847998 0.847998 0.529999 57 24.1277)" stroke="#BCC6DB"/>
<line y1="-0.5" x2="16.1245" y2="-0.5" transform="matrix(-0.496139 0.868243 0.868243 0.496139 44 24.1277)" stroke="#BCC6DB"/>
<line y1="-0.5" x2="13.4164" y2="-0.5" transform="matrix(-0.447214 0.894427 0.894427 0.447214 32 24.1277)" stroke="#BCC6DB"/>
<line y1="-0.5" x2="8.48528" y2="-0.5" transform="matrix(-0.707107 0.707107 0.707107 0.707107 114 47.1277)" stroke="#BCC6DB"/>
<line y1="-0.5" x2="7.93555" y2="-0.5" transform="matrix(-0.654466 0.756092 0.756092 0.654466 105.194 47.1277)" stroke="#BCC6DB"/>
<line y1="-0.5" x2="5.99992" y2="-0.5" transform="matrix(-0.312362 0.949963 0.949963 0.312362 99.874 53.428)" stroke="#BCC6DB"/>
<line y1="-0.5" x2="5.99992" y2="-0.5" transform="matrix(-0.312362 0.949963 0.949963 0.312362 81.874 52.428)" stroke="#BCC6DB"/>
<line y1="-0.5" x2="6.38337" y2="-0.5" transform="matrix(-0.450255 0.8929 0.8929 0.450255 65.874 48.428)" stroke="#BCC6DB"/>
<line y1="-0.5" x2="6.9569" y2="-0.5" transform="matrix(-0.269394 0.96303 0.96303 0.269394 50.874 43.428)" stroke="#BCC6DB"/>
<line y1="-0.5" x2="12" y2="-0.5" transform="matrix(-0.312362 0.949963 0.949963 0.312362 36.874 38.428)" stroke="#BCC6DB"/>
<line y1="-0.5" x2="5.99992" y2="-0.5" transform="matrix(-0.312362 0.949963 0.949963 0.312362 21.874 33.428)" stroke="#BCC6DB"/>
<line y1="-0.5" x2="9.43398" y2="-0.5" transform="matrix(-0.529999 0.847998 0.847998 0.529999 98 45.1277)" stroke="#BCC6DB"/>
<path d="M122 53.6277C122 53.6277 86.8646 54.6749 59 46.1277C40.8196 40.551 11 29.6277 11 29.6277" stroke="#DFEDFF" stroke-opacity="0.5" stroke-miterlimit="10"/>
<path d="M122 60.6277C122 60.6277 86.8646 61.6749 59 53.1277C40.8196 47.551 11 36.6277 11 36.6277" stroke="#DFEDFF" stroke-opacity="0.5" stroke-miterlimit="10"/>
<path d="M91.7045 27.2963L82.3163 19.7032L77.9143 25.1458L87.3025 32.739L91.7045 27.2963Z" fill="#A9BAD0" stroke="#DFEDFF" stroke-miterlimit="10"/>
<path d="M103 68.1277H115V70.1277H103V68.1277Z" fill="#BCC6DB"/>
<path d="M114.5 75.6277V58.6277H111.5V75.6277H114.5Z" fill="#A9BAD0" stroke="#DFEDFF" stroke-miterlimit="10"/>
<path d="M106.5 75.6277V58.6277H103.5V75.6277H106.5Z" fill="#A9BAD0" stroke="#DFEDFF" stroke-miterlimit="10"/>
<path d="M81.8702 33.9851C81.6914 33.8787 81.394 34.0462 81.2069 34.3625L73.0559 48.0002C72.8687 48.3142 72.8619 48.6553 73.0401 48.7617C73.2182 48.8681 73.5163 48.7006 73.7035 48.3843L81.8544 34.7466C82.0423 34.4334 82.0491 34.0923 81.8702 33.9851Z" fill="#BCC6DB"/>
<path d="M82.1105 36.256C81.9289 36.3577 81.9254 36.699 82.1056 37.0192L89.8408 50.897C90.0191 51.2161 90.3111 51.3926 90.4923 51.2915C90.6736 51.1905 90.6775 50.8485 90.4972 50.5283L82.7621 36.6505C82.5848 36.3312 82.2928 36.1547 82.1105 36.256Z" fill="#BCC6DB"/>
<path d="M78.1804 31.6752C77.9879 31.5612 77.6672 31.7401 77.4657 32.076L68.6853 46.6692C68.483 47.005 68.4755 47.3703 68.6687 47.4843C68.8619 47.5982 69.1819 47.4194 69.3841 47.0835L78.1638 32.4888C78.3683 32.1545 78.3728 31.7899 78.1804 31.6752Z" fill="#BCC6DB"/>
<path d="M74.3682 30.1688C74.1312 30.033 73.7372 30.2443 73.4882 30.6458L62.6814 48.0194C62.4331 48.4194 62.4233 48.8541 62.661 48.9899C62.8987 49.1258 63.2927 48.9145 63.541 48.5129L74.3478 31.1394C74.5999 30.7401 74.6089 30.3054 74.3682 30.1688Z" fill="#BCC6DB"/>
<path d="M6 72.1277H122V81.1277H6V72.1277Z" fill="#BCC6DB"/>
<g filter="url(#filter1_d_103_2)">
<path d="M3 79.1277H125V81.1277H3V79.1277Z" fill="#BCC6DB"/>
</g>
<g filter="url(#filter2_d_103_2)">
<path d="M3 72.1277H125V74.1277H3V72.1277Z" fill="#BCC6DB"/>
<path d="M101 57.1277H117V59.1277H101V57.1277Z" fill="#BCC6DB"/>
<path d="M24 57.1277H36V59.1277H24V57.1277Z" fill="#BCC6DB"/>
<path d="M35.5 75.6277V40.6277H32.5V75.6277H35.5Z" fill="#A9BAD0" stroke="#DFEDFF" stroke-miterlimit="10"/>
<path d="M27.5 75.6277V40.6277H24.5V75.6277H27.5Z" fill="#A9BAD0" stroke="#DFEDFF" stroke-miterlimit="10"/>
<path d="M22 39.1277H38V41.1277H22V39.1277Z" fill="#BCC6DB"/>
</g>
</g>
<defs>
<filter id="filter0_i_103_2" x="11" y="23.1277" width="111" height="43.5405" filterUnits="userSpaceOnUse" color-interpolation-filters="sRGB">
<feFlood flood-opacity="0" result="BackgroundImageFix"/>
<feBlend mode="normal" in="SourceGraphic" in2="BackgroundImageFix" result="shape"/>
<feColorMatrix in="SourceAlpha" type="matrix" values="0 0 0 0 0 0 0 0 0 0 0 0 0 0 0 0 0 0 127 0" result="hardAlpha"/>
<feOffset/>
<feGaussianBlur stdDeviation="3"/>
<feComposite in2="hardAlpha" operator="arithmetic" k2="-1" k3="1"/>
<feColorMatrix type="matrix" values="0 0 0 0 0.0156863 0 0 0 0 0.270588 0 0 0 0 0.380392 0 0 0 1 0"/>
<feBlend mode="normal" in2="shape" result="effect1_innerShadow_103_2"/>
</filter>
<filter id="filter1_d_103_2" x="-0.934426" y="76.1769" width="129.869" height="9.86885" filterUnits="userSpaceOnUse" color-interpolation-filters="sRGB">
<feFlood flood-opacity="0" result="BackgroundImageFix"/>
<feColorMatrix in="SourceAlpha" type="matrix" values="0 0 0 0 0 0 0 0 0 0 0 0 0 0 0 0 0 0 127 0" result="hardAlpha"/>
<feOffset dy="0.983607"/>
<feGaussianBlur stdDeviation="1.96721"/>
<feColorMatrix type="matrix" values="0 0 0 0 0.0156863 0 0 0 0 0.270588 0 0 0 0 0.380392 0 0 0 0.549 0"/>
<feBlend mode="normal" in2="BackgroundImageFix" result="effect1_dropShadow_103_2"/>
<feBlend mode="normal" in="SourceGraphic" in2="effect1_dropShadow_103_2" result="shape"/>
</filter>
<filter id="filter2_d_103_2" x="-0.934426" y="36.1769" width="129.869" height="44.8689" filterUnits="userSpaceOnUse" color-interpolation-filters="sRGB">
<feFlood flood-opacity="0" result="BackgroundImageFix"/>
<feColorMatrix in="SourceAlpha" type="matrix" values="0 0 0 0 0 0 0 0 0 0 0 0 0 0 0 0 0 0 127 0" result="hardAlpha"/>
<feOffset dy="0.983607"/>
<feGaussianBlur stdDeviation="1.96721"/>
<feColorMatrix type="matrix" values="0 0 0 0 0.0156863 0 0 0 0 0.270588 0 0 0 0 0.380392 0 0 0 0.549 0"/>
<feBlend mode="normal" in2="BackgroundImageFix" result="effect1_dropShadow_103_2"/>
<feBlend mode="normal" in="SourceGraphic" in2="effect1_dropShadow_103_2" result="shape"/>
</filter>
<clipPath id="clip0_103_2">
<rect width="128" height="100" fill="white"/>
</clipPath>
</defs>
</svg>
